<?xml version="1.0" encoding="UTF-8"?>
<!DOCTYPE svg PUBLIC "-//W3C//DTD SVG 1.1//EN" "http://www.w3.org/Graphics/SVG/1.1/DTD/svg11.dtd">
<svg xmlns="http://www.w3.org/2000/svg" version="1.1" width="191px" height="46px" style="shape-rendering:geometricPrecision; text-rendering:geometricPrecision; image-rendering:optimizeQuality; fill-rule:evenodd; clip-rule:evenodd" xmlns:xlink="http://www.w3.org/1999/xlink">
<g><path style="opacity:0.771" fill="#fbfffe" d="M 84.5,7.5 C 84.4539,12.8616 81.7872,14.8616 76.5,13.5C 76.5,15.1667 76.5,16.8333 76.5,18.5C 75.1667,18.5 73.8333,18.5 72.5,18.5C 72.5,13.8333 72.5,9.16667 72.5,4.5C 75.8499,4.33499 79.1832,4.50166 82.5,5C 83.0659,5.9947 83.7326,6.82803 84.5,7.5 Z M 76.5,7.5 C 81.8333,8.5 81.8333,9.5 76.5,10.5C 76.5,9.5 76.5,8.5 76.5,7.5 Z"/></g>
<g><path style="opacity:0.774" fill="#fbfffe" d="M 84.5,7.5 C 84.5,6.5 84.5,5.5 84.5,4.5C 88.5,4.5 92.5,4.5 96.5,4.5C 96.5,5.5 96.5,6.5 96.5,7.5C 95.1667,7.5 93.8333,7.5 92.5,7.5C 92.5,11.1667 92.5,14.8333 92.5,18.5C 91.1667,18.5 89.8333,18.5 88.5,18.5C 88.5,14.8333 88.5,11.1667 88.5,7.5C 87.1667,7.5 85.8333,7.5 84.5,7.5 Z"/></g>
<g><path style="opacity:0.774" fill="#fbfffe" d="M 105.5,4.5 C 109.673,3.95636 113.506,4.62303 117,6.5C 117.839,9.13956 117.339,11.4729 115.5,13.5C 116.624,14.914 117.624,16.414 118.5,18C 114.835,18.387 112.002,16.887 110,13.5C 109.506,15.1341 109.34,16.8008 109.5,18.5C 108.167,18.5 106.833,18.5 105.5,18.5C 105.5,13.8333 105.5,9.16667 105.5,4.5 Z M 109.5,7.5 C 116.167,8.5 116.167,9.5 109.5,10.5C 109.5,9.5 109.5,8.5 109.5,7.5 Z"/></g>
<g><path style="opacity:0.878" fill="#fbfffe" d="M 119.5,4.5 C 123.167,4.5 126.833,4.5 130.5,4.5C 130.5,5.5 130.5,6.5 130.5,7.5C 128.076,7.19244 125.743,7.52577 123.5,8.5C 125.396,9.46557 127.396,9.7989 129.5,9.5C 129.5,10.5 129.5,11.5 129.5,12.5C 127.5,12.5 125.5,12.5 123.5,12.5C 123.5,13.5 123.5,14.5 123.5,15.5C 125.833,15.5 128.167,15.5 130.5,15.5C 130.5,16.5 130.5,17.5 130.5,18.5C 126.833,18.5 123.167,18.5 119.5,18.5C 119.5,13.8333 119.5,9.16667 119.5,4.5 Z"/></g>
<g><path style="opacity:0.773" fill="#fbfffe" d="M 135.5,4.5 C 139.64,3.71456 142.973,4.88122 145.5,8C 144.892,8.86992 144.059,9.36992 143,9.5C 137.937,6.24128 135.603,7.57461 136,13.5C 137.466,15.3249 139.299,15.8249 141.5,15C 140.552,14.5172 139.552,14.3505 138.5,14.5C 138.5,13.5 138.5,12.5 138.5,11.5C 140.833,11.5 143.167,11.5 145.5,11.5C 146.145,14.5468 145.145,16.7135 142.5,18C 132.896,19.5444 129.73,15.7111 133,6.5C 133.995,5.93406 134.828,5.26739 135.5,4.5 Z"/></g>
<g><path style="opacity:0.683" fill="#fbfffe" d="M 146.5,4.5 C 147.833,4.5 149.167,4.5 150.5,4.5C 150.5,9.16667 150.5,13.8333 150.5,18.5C 149.167,18.5 147.833,18.5 146.5,18.5C 146.5,13.8333 146.5,9.16667 146.5,4.5 Z"/></g>
<g><path style="opacity:0.841" fill="#fbfffe" d="M 152.5,4.5 C 153.978,4.23798 155.311,4.57131 156.5,5.5C 159.865,15.0278 161.198,14.6944 160.5,4.5C 161.5,4.5 162.5,4.5 163.5,4.5C 163.5,9.16667 163.5,13.8333 163.5,18.5C 162.022,18.762 160.689,18.4287 159.5,17.5C 156.135,7.97224 154.802,8.30557 155.5,18.5C 154.5,18.5 153.5,18.5 152.5,18.5C 152.5,13.8333 152.5,9.16667 152.5,4.5 Z"/></g>
<g><path style="opacity:0.804" fill="#fbfffe" d="M 169.5,4.5 C 171.144,4.28649 172.644,4.61983 174,5.5C 176.079,9.65286 177.579,13.9862 178.5,18.5C 177.167,18.5 175.833,18.5 174.5,18.5C 174.5,17.5 174.5,16.5 174.5,15.5C 170.839,15.7942 167.506,16.6275 164.5,18C 166.267,13.5316 167.934,9.03164 169.5,4.5 Z M 171.5,9.5 C 172.776,10.3864 172.776,11.3864 171.5,12.5C 170.438,11.5754 170.438,10.5754 171.5,9.5 Z"/></g>
<g><path style="opacity:1" fill="#6493ea" d="M 39.5,6.5 C 42.9419,5.82827 45.6086,6.82827 47.5,9.5C 45.2075,9.75642 43.0408,9.42308 41,8.5C 40.8019,10.3817 40.3019,12.0484 39.5,13.5C 39.5,11.8333 39.5,10.1667 39.5,8.5C 39.5,7.83333 39.5,7.16667 39.5,6.5 Z"/></g>
<g><path style="opacity:0.996" fill="#a2d1e3" d="M 19.5,8.5 C 26.1667,8.5 32.8333,8.5 39.5,8.5C 39.5,10.1667 39.5,11.8333 39.5,13.5C 37.1667,13.5 34.8333,13.5 32.5,13.5C 32.5,14.5 32.5,15.5 32.5,16.5C 32.5,17.8333 32.5,19.1667 32.5,20.5C 31.5987,21.2905 30.9321,22.2905 30.5,23.5C 28.9582,22.6993 27.2915,22.366 25.5,22.5C 25.6159,19.1401 25.9492,15.8067 26.5,12.5C 24.1667,12.5 21.8333,12.5 19.5,12.5C 19.5,11.1667 19.5,9.83333 19.5,8.5 Z"/></g>
<g><path style="opacity:0.996" fill="#4c7fe4" d="M 47.5,9.5 C 48.5635,16.3758 46.8968,22.3758 42.5,27.5C 43.0541,30.0871 44.0541,32.4204 45.5,34.5C 43.076,34.8076 40.7427,34.4742 38.5,33.5C 37.79,28.7811 35.1234,26.7811 30.5,27.5C 30.5,26.1667 30.5,24.8333 30.5,23.5C 30.9321,22.2905 31.5987,21.2905 32.5,20.5C 34.6282,21.6291 36.9615,21.7958 39.5,21C 41.0779,18.6612 40.7446,16.8278 38.5,15.5C 38.8333,14.8333 39.1667,14.1667 39.5,13.5C 40.3019,12.0484 40.8019,10.3817 41,8.5C 43.0408,9.42308 45.2075,9.75642 47.5,9.5 Z"/></g>
<g><path style="opacity:1" fill="#acd5e5" d="M 20.5,2.5 C 26.9368,3.42543 33.2701,4.75876 39.5,6.5C 39.5,7.16667 39.5,7.83333 39.5,8.5C 32.8333,8.5 26.1667,8.5 19.5,8.5C 19.1667,8.5 18.8333,8.5 18.5,8.5C 18.4827,6.97189 17.816,6.47189 16.5,7C 11.7886,11.1396 10.2886,16.3062 12,22.5C 13.8266,28.1454 16.9933,32.812 21.5,36.5C 23.2964,38.9 25.6298,40.5667 28.5,41.5C 33.4626,42.4964 38.4626,42.6631 43.5,42C 45.96,40.5422 48.1266,38.7089 50,36.5C 50.6667,37.5 50.6667,38.5 50,39.5C 48.955,40.3734 48.1217,41.3734 47.5,42.5C 45.5956,42.7376 44.2623,43.7376 43.5,45.5C 38.5,45.5 33.5,45.5 28.5,45.5C 27.1667,44.5 25.8333,43.5 24.5,42.5C 20.2315,39.0514 16.0648,34.718 12,29.5C 9.22498,24.5435 7.89165,19.2102 8,13.5C 7.50335,15.8098 7.33669,18.1432 7.5,20.5C 6.36594,18.0336 6.19927,15.367 7,12.5C 9.68023,6.58851 14.1802,3.25518 20.5,2.5 Z"/></g>
<g><path style="opacity:0.614" fill="#58808f" d="M 17.5,13.5 C 20.1873,13.3359 22.854,13.5026 25.5,14C 24.944,14.3826 24.6107,14.8826 24.5,15.5C 22.4727,15.6621 20.4727,15.4955 18.5,15C 17.944,14.6174 17.6107,14.1174 17.5,13.5 Z"/></g>
<g><path style="opacity:0.906" fill="#436b8c" d="M 39.5,13.5 C 39.1667,14.1667 38.8333,14.8333 38.5,15.5C 36.3792,15.3253 34.3792,15.6586 32.5,16.5C 32.5,15.5 32.5,14.5 32.5,13.5C 34.8333,13.5 37.1667,13.5 39.5,13.5 Z"/></g>
<g><path style="opacity:0.373" fill="#81abc1" d="M 18.5,8.5 C 18.8333,8.5 19.1667,8.5 19.5,8.5C 19.5,9.83333 19.5,11.1667 19.5,12.5C 21.8333,12.5 24.1667,12.5 26.5,12.5C 25.9492,15.8067 25.6159,19.1401 25.5,22.5C 24.5318,24.6074 24.1984,26.9407 24.5,29.5C 23.8333,29.5 23.1667,29.5 22.5,29.5C 22.9504,24.7984 23.617,20.1317 24.5,15.5C 24.6107,14.8826 24.944,14.3826 25.5,14C 22.854,13.5026 20.1873,13.3359 17.5,13.5C 17.2155,11.5853 17.5489,9.91866 18.5,8.5 Z"/></g>
<g><path style="opacity:0.867" fill="#fbfffe" d="M 95.5,15.5 C 96.5,15.5 97.5,15.5 98.5,15.5C 98.5,16.5 98.5,17.5 98.5,18.5C 97.5,18.5 96.5,18.5 95.5,18.5C 95.5,17.5 95.5,16.5 95.5,15.5 Z"/></g>
<g><path style="opacity:0.312" fill="#436dc1" d="M 47.5,9.5 C 49.382,16.3381 48.382,22.8381 44.5,29C 45.3091,30.7842 45.9757,32.6175 46.5,34.5C 46.4573,35.4164 46.1239,36.0831 45.5,36.5C 45.5,35.8333 45.5,35.1667 45.5,34.5C 44.0541,32.4204 43.0541,30.0871 42.5,27.5C 46.8968,22.3758 48.5635,16.3758 47.5,9.5 Z"/></g>
<g><path style="opacity:0.996" fill="#88b8e2" d="M 25.5,22.5 C 27.2915,22.366 28.9582,22.6993 30.5,23.5C 30.5,24.8333 30.5,26.1667 30.5,27.5C 28.7179,28.7196 26.7179,29.3862 24.5,29.5C 24.1984,26.9407 24.5318,24.6074 25.5,22.5 Z"/></g>
<g><path style="opacity:0.765" fill="#2569ad" d="M 20.5,2.5 C 14.1802,3.25518 9.68023,6.58851 7,12.5C 6.19927,15.367 6.36594,18.0336 7.5,20.5C 8.66181,27.1577 11.6618,32.8244 16.5,37.5C 13.9455,38.388 11.2788,38.7214 8.5,38.5C 9.347,37.0337 10.6803,36.2004 12.5,36C 4.98081,29.0302 2.48081,20.5302 5,10.5C 8.1708,3.99777 13.3375,1.3311 20.5,2.5 Z"/></g>
<g><path style="opacity:0.774" fill="#fbfffe" d="M 63.5,27.5 C 67.5,27.5 71.5,27.5 75.5,27.5C 75.5,28.5 75.5,29.5 75.5,30.5C 74.1667,30.5 72.8333,30.5 71.5,30.5C 71.5,34.1667 71.5,37.8333 71.5,41.5C 70.1667,41.5 68.8333,41.5 67.5,41.5C 67.5,37.8333 67.5,34.1667 67.5,30.5C 66.1667,30.5 64.8333,30.5 63.5,30.5C 63.5,29.5 63.5,28.5 63.5,27.5 Z"/></g>
<g><path style="opacity:0.878" fill="#fbfffe" d="M 76.5,27.5 C 80.1667,27.5 83.8333,27.5 87.5,27.5C 87.5,28.5 87.5,29.5 87.5,30.5C 85.076,30.1924 82.7427,30.5258 80.5,31.5C 82.396,32.4656 84.396,32.7989 86.5,32.5C 86.5,33.5 86.5,34.5 86.5,35.5C 84.5,35.5 82.5,35.5 80.5,35.5C 80.5,36.5 80.5,37.5 80.5,38.5C 82.8333,38.5 85.1667,38.5 87.5,38.5C 87.5,39.5 87.5,40.5 87.5,41.5C 83.8333,41.5 80.1667,41.5 76.5,41.5C 76.5,36.8333 76.5,32.1667 76.5,27.5 Z"/></g>
<g><path style="opacity:0.805" fill="#fbfffe" d="M 89.5,27.5 C 90.5,27.5 91.5,27.5 92.5,27.5C 92.3398,29.1992 92.5065,30.8659 93,32.5C 94.4831,28.3345 97.3164,26.8345 101.5,28C 99.8333,29.6667 98.1667,31.3333 96.5,33C 98.3628,35.364 100.029,37.864 101.5,40.5C 100.277,41.6139 98.9437,41.7805 97.5,41C 94.7017,34.9643 93.0351,35.131 92.5,41.5C 91.5,41.5 90.5,41.5 89.5,41.5C 89.5,36.8333 89.5,32.1667 89.5,27.5 Z"/></g>
<g><path style="opacity:0.709" fill="#fbfffe" d="M 102.5,27.5 C 103.873,27.3433 105.207,27.51 106.5,28C 107.794,30.087 108.961,32.2537 110,34.5C 110.497,32.1902 110.663,29.8568 110.5,27.5C 111.833,27.5 113.167,27.5 114.5,27.5C 114.5,32.1667 114.5,36.8333 114.5,41.5C 113.127,41.6567 111.793,41.49 110.5,41C 109.206,38.913 108.039,36.7463 107,34.5C 106.503,36.8098 106.337,39.1432 106.5,41.5C 105.167,41.5 103.833,41.5 102.5,41.5C 102.5,36.8333 102.5,32.1667 102.5,27.5 Z"/></g>
<g><path style="opacity:0.911" fill="#fbfffe" d="M 116.5,27.5 C 117.5,27.5 118.5,27.5 119.5,27.5C 119.5,32.1667 119.5,36.8333 119.5,41.5C 118.5,41.5 117.5,41.5 116.5,41.5C 116.5,36.8333 116.5,32.1667 116.5,27.5 Z"/></g>
<g><path style="opacity:0.733" fill="#fbfffe" d="M 121.5,27.5 C 122.833,27.5 124.167,27.5 125.5,27.5C 125.367,32.2717 126.7,32.4384 129.5,28C 131.167,27.3333 132.833,27.3333 134.5,28C 132.833,29.6667 131.167,31.3333 129.5,33C 131.291,35.414 132.957,37.914 134.5,40.5C 130.441,41.6583 127.941,39.9917 127,35.5C 125.681,37.2495 125.181,39.2495 125.5,41.5C 124.167,41.5 122.833,41.5 121.5,41.5C 121.5,36.8333 121.5,32.1667 121.5,27.5 Z"/></g>
<g><path style="opacity:0.726" fill="#fbfffe" d="M 145.5,27.5 C 146.833,27.5 148.167,27.5 149.5,27.5C 149.665,31.1817 149.499,34.8484 149,38.5C 147.334,41.3788 144.834,42.2121 141.5,41C 139.963,39.8904 139.297,38.3904 139.5,36.5C 141.492,36.3285 143.158,36.9951 144.5,38.5C 145.489,34.8927 145.823,31.226 145.5,27.5 Z"/></g>
<g><path style="opacity:0.796" fill="#fbfffe" d="M 154.5,27.5 C 156.167,27.5 157.833,27.5 159.5,27.5C 160.669,32.174 162.336,36.674 164.5,41C 163.833,41.1667 163.167,41.3333 162.5,41.5C 160.671,40.5354 158.838,39.5354 157,38.5C 155.393,38.7692 154.226,39.6026 153.5,41C 152.167,41.6667 150.833,41.6667 149.5,41C 151.66,36.6859 153.327,32.1859 154.5,27.5 Z M 156.5,32.5 C 159.377,34.8455 159.044,35.6789 155.5,35C 156.252,34.3292 156.586,33.4959 156.5,32.5 Z"/></g>
<g><path style="opacity:0.716" fill="#fbfffe" d="M 161.5,28.5 C 162.097,27.8614 162.93,27.528 164,27.5C 166.069,28.2701 167.735,29.6035 169,31.5C 170.007,28.1966 172.173,27.0299 175.5,28C 171.629,31.6975 169.962,36.1975 170.5,41.5C 169.167,41.5 167.833,41.5 166.5,41.5C 167.301,36.1181 165.634,31.7848 161.5,28.5 Z"/></g>
<g><path style="opacity:0.796" fill="#fbfffe" d="M 177.5,27.5 C 179.167,27.5 180.833,27.5 182.5,27.5C 183.669,32.174 185.336,36.674 187.5,41C 186.833,41.1667 186.167,41.3333 185.5,41.5C 183.671,40.5354 181.838,39.5354 180,38.5C 178.393,38.7692 177.226,39.6026 176.5,41C 175.167,41.6667 173.833,41.6667 172.5,41C 174.66,36.6859 176.327,32.1859 177.5,27.5 Z M 179.5,32.5 C 182.377,34.8455 182.044,35.6789 178.5,35C 179.252,34.3292 179.586,33.4959 179.5,32.5 Z"/></g>
<g><path style="opacity:1" fill="#578cc7" d="M 30.5,27.5 C 30.5,28.1667 30.5,28.8333 30.5,29.5C 30.7947,31.7354 30.4614,33.7354 29.5,35.5C 27.1955,33.7598 24.5288,32.7598 21.5,32.5C 22.1098,31.609 22.4431,30.609 22.5,29.5C 23.1667,29.5 23.8333,29.5 24.5,29.5C 26.7179,29.3862 28.7179,28.7196 30.5,27.5 Z"/></g>
<g><path style="opacity:0.89" fill="#d4e6ef" d="M 24.5,42.5 C 21.5251,41.3449 18.8584,39.6782 16.5,37.5C 11.6618,32.8244 8.66181,27.1577 7.5,20.5C 7.33669,18.1432 7.50335,15.8098 8,13.5C 7.89165,19.2102 9.22498,24.5435 12,29.5C 16.0648,34.718 20.2315,39.0514 24.5,42.5 Z"/></g>
<g><path style="opacity:0.169" fill="#1e4297" d="M 30.5,27.5 C 35.1234,26.7811 37.79,28.7811 38.5,33.5C 40.7427,34.4742 43.076,34.8076 45.5,34.5C 45.5,35.1667 45.5,35.8333 45.5,36.5C 42.8127,36.6641 40.146,36.4974 37.5,36C 36.3081,34.0876 35.3081,32.0876 34.5,30C 33.2068,29.51 31.8734,29.3433 30.5,29.5C 30.5,28.8333 30.5,28.1667 30.5,27.5 Z"/></g>
<g><path style="opacity:1" fill="#165aa4" d="M 21.5,32.5 C 24.5288,32.7598 27.1955,33.7598 29.5,35.5C 29.6747,37.6208 29.3414,39.6208 28.5,41.5C 25.6298,40.5667 23.2964,38.9 21.5,36.5C 21.5,35.1667 21.5,33.8333 21.5,32.5 Z"/></g>
<g><path style="opacity:0.998" fill="#0a4f9e" d="M 16.5,37.5 C 18.8584,39.6782 21.5251,41.3449 24.5,42.5C 25.8333,43.5 27.1667,44.5 28.5,45.5C 27.5,45.5 26.5,45.5 25.5,45.5C 19.69,44.5104 13.69,44.1771 7.5,44.5C 7.51715,42.4352 7.85048,40.4352 8.5,38.5C 11.2788,38.7214 13.9455,38.388 16.5,37.5 Z"/></g>
<g><path style="opacity:0.063" fill="#6889a1" d="M 47.5,42.5 C 47.2178,43.7777 46.5511,44.7777 45.5,45.5C 44.8333,45.5 44.1667,45.5 43.5,45.5C 44.2623,43.7376 45.5956,42.7376 47.5,42.5 Z"/></g>
</svg>
