<?xml version="1.0" encoding="UTF-8"?>
<!DOCTYPE svg PUBLIC "-//W3C//DTD SVG 1.1//EN" "http://www.w3.org/Graphics/SVG/1.1/DTD/svg11.dtd">
<svg xmlns="http://www.w3.org/2000/svg" version="1.1" width="192px" height="46px" style="shape-rendering:geometricPrecision; text-rendering:geometricPrecision; image-rendering:optimizeQuality; fill-rule:evenodd; clip-rule:evenodd" xmlns:xlink="http://www.w3.org/1999/xlink">
<g><path style="opacity:0.771" fill="#d52e4b" d="M 79.5,7.5 C 79.4539,12.8616 76.7872,14.8616 71.5,13.5C 71.5,15.1667 71.5,16.8333 71.5,18.5C 70.1667,18.5 68.8333,18.5 67.5,18.5C 67.5,13.8333 67.5,9.16667 67.5,4.5C 70.8499,4.33499 74.1832,4.50166 77.5,5C 78.0659,5.9947 78.7326,6.82803 79.5,7.5 Z M 71.5,7.5 C 76.8333,8.5 76.8333,9.5 71.5,10.5C 71.5,9.5 71.5,8.5 71.5,7.5 Z"/></g>
<g><path style="opacity:0.774" fill="#d52e4b" d="M 79.5,7.5 C 79.5,6.5 79.5,5.5 79.5,4.5C 83.5,4.5 87.5,4.5 91.5,4.5C 91.5,5.5 91.5,6.5 91.5,7.5C 90.1667,7.5 88.8333,7.5 87.5,7.5C 87.5,11.1667 87.5,14.8333 87.5,18.5C 86.1667,18.5 84.8333,18.5 83.5,18.5C 83.5,14.8333 83.5,11.1667 83.5,7.5C 82.1667,7.5 80.8333,7.5 79.5,7.5 Z"/></g>
<g><path style="opacity:0.774" fill="#d52e4b" d="M 100.5,4.5 C 104.673,3.95636 108.506,4.62303 112,6.5C 112.839,9.13956 112.339,11.4729 110.5,13.5C 111.624,14.914 112.624,16.414 113.5,18C 109.835,18.387 107.002,16.887 105,13.5C 104.506,15.1341 104.34,16.8008 104.5,18.5C 103.167,18.5 101.833,18.5 100.5,18.5C 100.5,13.8333 100.5,9.16667 100.5,4.5 Z M 104.5,7.5 C 111.167,8.5 111.167,9.5 104.5,10.5C 104.5,9.5 104.5,8.5 104.5,7.5 Z"/></g>
<g><path style="opacity:0.878" fill="#d52e4b" d="M 114.5,4.5 C 118.167,4.5 121.833,4.5 125.5,4.5C 125.5,5.5 125.5,6.5 125.5,7.5C 123.076,7.19244 120.743,7.52577 118.5,8.5C 120.396,9.46557 122.396,9.7989 124.5,9.5C 124.5,10.5 124.5,11.5 124.5,12.5C 122.5,12.5 120.5,12.5 118.5,12.5C 118.5,13.5 118.5,14.5 118.5,15.5C 120.833,15.5 123.167,15.5 125.5,15.5C 125.5,16.5 125.5,17.5 125.5,18.5C 121.833,18.5 118.167,18.5 114.5,18.5C 114.5,13.8333 114.5,9.16667 114.5,4.5 Z"/></g>
<g><path style="opacity:0.773" fill="#d52e4b" d="M 130.5,4.5 C 134.64,3.71456 137.973,4.88122 140.5,8C 139.892,8.86992 139.059,9.36992 138,9.5C 132.937,6.24128 130.603,7.57461 131,13.5C 132.466,15.3249 134.299,15.8249 136.5,15C 135.552,14.5172 134.552,14.3505 133.5,14.5C 133.5,13.5 133.5,12.5 133.5,11.5C 135.833,11.5 138.167,11.5 140.5,11.5C 141.145,14.5468 140.145,16.7135 137.5,18C 127.896,19.5444 124.73,15.7111 128,6.5C 128.995,5.93406 129.828,5.26739 130.5,4.5 Z"/></g>
<g><path style="opacity:0.683" fill="#d52e4b" d="M 141.5,4.5 C 142.833,4.5 144.167,4.5 145.5,4.5C 145.5,9.16667 145.5,13.8333 145.5,18.5C 144.167,18.5 142.833,18.5 141.5,18.5C 141.5,13.8333 141.5,9.16667 141.5,4.5 Z"/></g>
<g><path style="opacity:0.841" fill="#d52e4b" d="M 147.5,4.5 C 148.978,4.23798 150.311,4.57131 151.5,5.5C 154.865,15.0278 156.198,14.6944 155.5,4.5C 156.5,4.5 157.5,4.5 158.5,4.5C 158.5,9.16667 158.5,13.8333 158.5,18.5C 157.022,18.762 155.689,18.4287 154.5,17.5C 151.135,7.97224 149.802,8.30557 150.5,18.5C 149.5,18.5 148.5,18.5 147.5,18.5C 147.5,13.8333 147.5,9.16667 147.5,4.5 Z"/></g>
<g><path style="opacity:0.804" fill="#d52e4b" d="M 164.5,4.5 C 166.144,4.28649 167.644,4.61983 169,5.5C 171.079,9.65286 172.579,13.9862 173.5,18.5C 172.167,18.5 170.833,18.5 169.5,18.5C 169.5,17.5 169.5,16.5 169.5,15.5C 165.839,15.7942 162.506,16.6275 159.5,18C 161.267,13.5316 162.934,9.03164 164.5,4.5 Z M 166.5,9.5 C 167.776,10.3864 167.776,11.3864 166.5,12.5C 165.438,11.5754 165.438,10.5754 166.5,9.5 Z"/></g>
<g><path style="opacity:1" fill="#6493ea" d="M 34.5,5.5 C 37.9419,4.82827 40.6086,5.82827 42.5,8.5C 40.2075,8.75642 38.0408,8.42308 36,7.5C 35.8019,9.38172 35.3019,11.0484 34.5,12.5C 34.5,10.8333 34.5,9.16667 34.5,7.5C 34.5,6.83333 34.5,6.16667 34.5,5.5 Z"/></g>
<g><path style="opacity:0.996" fill="#a2d1e3" d="M 14.5,7.5 C 21.1667,7.5 27.8333,7.5 34.5,7.5C 34.5,9.16667 34.5,10.8333 34.5,12.5C 32.1667,12.5 29.8333,12.5 27.5,12.5C 27.5,13.5 27.5,14.5 27.5,15.5C 27.5,16.8333 27.5,18.1667 27.5,19.5C 26.5987,20.2905 25.9321,21.2905 25.5,22.5C 23.9582,21.6993 22.2915,21.366 20.5,21.5C 20.6159,18.1401 20.9492,14.8067 21.5,11.5C 19.1667,11.5 16.8333,11.5 14.5,11.5C 14.5,10.1667 14.5,8.83333 14.5,7.5 Z"/></g>
<g><path style="opacity:0.996" fill="#4c7fe4" d="M 42.5,8.5 C 43.5635,15.3758 41.8968,21.3758 37.5,26.5C 38.0541,29.0871 39.0541,31.4204 40.5,33.5C 38.076,33.8076 35.7427,33.4742 33.5,32.5C 32.79,27.7811 30.1234,25.7811 25.5,26.5C 25.5,25.1667 25.5,23.8333 25.5,22.5C 25.9321,21.2905 26.5987,20.2905 27.5,19.5C 29.6282,20.6291 31.9615,20.7958 34.5,20C 36.0779,17.6612 35.7446,15.8278 33.5,14.5C 33.8333,13.8333 34.1667,13.1667 34.5,12.5C 35.3019,11.0484 35.8019,9.38172 36,7.5C 38.0408,8.42308 40.2075,8.75642 42.5,8.5 Z"/></g>
<g><path style="opacity:1" fill="#acd5e5" d="M 15.5,1.5 C 21.9368,2.42543 28.2701,3.75876 34.5,5.5C 34.5,6.16667 34.5,6.83333 34.5,7.5C 27.8333,7.5 21.1667,7.5 14.5,7.5C 14.1667,7.5 13.8333,7.5 13.5,7.5C 13.4827,5.97189 12.816,5.47189 11.5,6C 6.78864,10.1396 5.28864,15.3062 7,21.5C 8.82663,27.1454 11.9933,31.812 16.5,35.5C 18.2964,37.9 20.6298,39.5667 23.5,40.5C 28.4626,41.4964 33.4626,41.6631 38.5,41C 40.96,39.5422 43.1266,37.7089 45,35.5C 45.6667,36.5 45.6667,37.5 45,38.5C 43.955,39.3734 43.1217,40.3734 42.5,41.5C 38.2615,44.0903 33.5948,45.0903 28.5,44.5C 24.9557,44.8676 21.9557,43.8676 19.5,41.5C 15.2315,38.0514 11.0648,33.718 7,28.5C 4.22498,23.5435 2.89165,18.2102 3,12.5C 2.50335,14.8098 2.33669,17.1432 2.5,19.5C 1.36594,17.0336 1.19927,14.367 2,11.5C 4.68023,5.58851 9.18023,2.25518 15.5,1.5 Z"/></g>
<g><path style="opacity:0.614" fill="#58808f" d="M 12.5,12.5 C 15.1873,12.3359 17.854,12.5026 20.5,13C 19.944,13.3826 19.6107,13.8826 19.5,14.5C 17.4727,14.6621 15.4727,14.4955 13.5,14C 12.944,13.6174 12.6107,13.1174 12.5,12.5 Z"/></g>
<g><path style="opacity:0.906" fill="#436b8c" d="M 34.5,12.5 C 34.1667,13.1667 33.8333,13.8333 33.5,14.5C 31.3792,14.3253 29.3792,14.6586 27.5,15.5C 27.5,14.5 27.5,13.5 27.5,12.5C 29.8333,12.5 32.1667,12.5 34.5,12.5 Z"/></g>
<g><path style="opacity:0.373" fill="#81abc1" d="M 13.5,7.5 C 13.8333,7.5 14.1667,7.5 14.5,7.5C 14.5,8.83333 14.5,10.1667 14.5,11.5C 16.8333,11.5 19.1667,11.5 21.5,11.5C 20.9492,14.8067 20.6159,18.1401 20.5,21.5C 19.5318,23.6074 19.1984,25.9407 19.5,28.5C 18.8333,28.5 18.1667,28.5 17.5,28.5C 17.9504,23.7984 18.617,19.1317 19.5,14.5C 19.6107,13.8826 19.944,13.3826 20.5,13C 17.854,12.5026 15.1873,12.3359 12.5,12.5C 12.2155,10.5853 12.5489,8.91866 13.5,7.5 Z"/></g>
<g><path style="opacity:0.867" fill="#d52e4b" d="M 90.5,15.5 C 91.5,15.5 92.5,15.5 93.5,15.5C 93.5,16.5 93.5,17.5 93.5,18.5C 92.5,18.5 91.5,18.5 90.5,18.5C 90.5,17.5 90.5,16.5 90.5,15.5 Z"/></g>
<g><path style="opacity:0.312" fill="#436dc1" d="M 42.5,8.5 C 44.382,15.3381 43.382,21.8381 39.5,28C 40.3091,29.7842 40.9757,31.6175 41.5,33.5C 41.4573,34.4164 41.1239,35.0831 40.5,35.5C 40.5,34.8333 40.5,34.1667 40.5,33.5C 39.0541,31.4204 38.0541,29.0871 37.5,26.5C 41.8968,21.3758 43.5635,15.3758 42.5,8.5 Z"/></g>
<g><path style="opacity:0.996" fill="#88b8e2" d="M 20.5,21.5 C 22.2915,21.366 23.9582,21.6993 25.5,22.5C 25.5,23.8333 25.5,25.1667 25.5,26.5C 23.7179,27.7196 21.7179,28.3862 19.5,28.5C 19.1984,25.9407 19.5318,23.6074 20.5,21.5 Z"/></g>
<g><path style="opacity:0.765" fill="#2569ad" d="M 15.5,1.5 C 9.18023,2.25518 4.68023,5.58851 2,11.5C 1.19927,14.367 1.36594,17.0336 2.5,19.5C 3.66181,26.1577 6.66181,31.8244 11.5,36.5C 8.94551,37.388 6.27884,37.7214 3.5,37.5C 4.347,36.0337 5.68034,35.2004 7.5,35C 4.68771,31.1876 2.02105,27.3543 -0.5,23.5C -0.5,18.8333 -0.5,14.1667 -0.5,9.5C 2.90894,3.12878 8.24227,0.46211 15.5,1.5 Z"/></g>
<g><path style="opacity:0.774" fill="#d52e4b" d="M 58.5,27.5 C 62.5,27.5 66.5,27.5 70.5,27.5C 70.5,28.5 70.5,29.5 70.5,30.5C 69.1667,30.5 67.8333,30.5 66.5,30.5C 66.5,34.1667 66.5,37.8333 66.5,41.5C 65.1667,41.5 63.8333,41.5 62.5,41.5C 62.5,37.8333 62.5,34.1667 62.5,30.5C 61.1667,30.5 59.8333,30.5 58.5,30.5C 58.5,29.5 58.5,28.5 58.5,27.5 Z"/></g>
<g><path style="opacity:0.878" fill="#d52e4b" d="M 71.5,27.5 C 75.1667,27.5 78.8333,27.5 82.5,27.5C 82.5,28.5 82.5,29.5 82.5,30.5C 80.076,30.1924 77.7427,30.5258 75.5,31.5C 77.396,32.4656 79.396,32.7989 81.5,32.5C 81.5,33.5 81.5,34.5 81.5,35.5C 79.5,35.5 77.5,35.5 75.5,35.5C 75.5,36.5 75.5,37.5 75.5,38.5C 77.8333,38.5 80.1667,38.5 82.5,38.5C 82.5,39.5 82.5,40.5 82.5,41.5C 78.8333,41.5 75.1667,41.5 71.5,41.5C 71.5,36.8333 71.5,32.1667 71.5,27.5 Z"/></g>
<g><path style="opacity:0.805" fill="#d52e4b" d="M 84.5,27.5 C 85.5,27.5 86.5,27.5 87.5,27.5C 87.3398,29.1992 87.5065,30.8659 88,32.5C 89.4831,28.3345 92.3164,26.8345 96.5,28C 94.8333,29.6667 93.1667,31.3333 91.5,33C 93.3628,35.364 95.0295,37.864 96.5,40.5C 95.277,41.6139 93.9437,41.7805 92.5,41C 89.7017,34.9643 88.0351,35.131 87.5,41.5C 86.5,41.5 85.5,41.5 84.5,41.5C 84.5,36.8333 84.5,32.1667 84.5,27.5 Z"/></g>
<g><path style="opacity:0.709" fill="#d52e4b" d="M 97.5,27.5 C 98.8734,27.3433 100.207,27.51 101.5,28C 102.794,30.087 103.961,32.2537 105,34.5C 105.497,32.1902 105.663,29.8568 105.5,27.5C 106.833,27.5 108.167,27.5 109.5,27.5C 109.5,32.1667 109.5,36.8333 109.5,41.5C 108.127,41.6567 106.793,41.49 105.5,41C 104.206,38.913 103.039,36.7463 102,34.5C 101.503,36.8098 101.337,39.1432 101.5,41.5C 100.167,41.5 98.8333,41.5 97.5,41.5C 97.5,36.8333 97.5,32.1667 97.5,27.5 Z"/></g>
<g><path style="opacity:0.911" fill="#d52e4b" d="M 111.5,27.5 C 112.5,27.5 113.5,27.5 114.5,27.5C 114.5,32.1667 114.5,36.8333 114.5,41.5C 113.5,41.5 112.5,41.5 111.5,41.5C 111.5,36.8333 111.5,32.1667 111.5,27.5 Z"/></g>
<g><path style="opacity:0.733" fill="#d52e4b" d="M 116.5,27.5 C 117.833,27.5 119.167,27.5 120.5,27.5C 120.367,32.2717 121.7,32.4384 124.5,28C 126.167,27.3333 127.833,27.3333 129.5,28C 127.833,29.6667 126.167,31.3333 124.5,33C 126.291,35.414 127.957,37.914 129.5,40.5C 125.441,41.6583 122.941,39.9917 122,35.5C 120.681,37.2495 120.181,39.2495 120.5,41.5C 119.167,41.5 117.833,41.5 116.5,41.5C 116.5,36.8333 116.5,32.1667 116.5,27.5 Z"/></g>
<g><path style="opacity:0.726" fill="#d52e4b" d="M 140.5,27.5 C 141.833,27.5 143.167,27.5 144.5,27.5C 144.665,31.1817 144.499,34.8484 144,38.5C 142.334,41.3788 139.834,42.2121 136.5,41C 134.963,39.8904 134.297,38.3904 134.5,36.5C 136.492,36.3285 138.158,36.9951 139.5,38.5C 140.489,34.8927 140.823,31.226 140.5,27.5 Z"/></g>
<g><path style="opacity:0.796" fill="#d52e4b" d="M 149.5,27.5 C 151.167,27.5 152.833,27.5 154.5,27.5C 155.669,32.174 157.336,36.674 159.5,41C 158.833,41.1667 158.167,41.3333 157.5,41.5C 155.671,40.5354 153.838,39.5354 152,38.5C 150.393,38.7692 149.226,39.6026 148.5,41C 147.167,41.6667 145.833,41.6667 144.5,41C 146.66,36.6859 148.327,32.1859 149.5,27.5 Z M 151.5,32.5 C 154.377,34.8455 154.044,35.6789 150.5,35C 151.252,34.3292 151.586,33.4959 151.5,32.5 Z"/></g>
<g><path style="opacity:0.716" fill="#d52e4b" d="M 156.5,28.5 C 157.097,27.8614 157.93,27.528 159,27.5C 161.069,28.2701 162.735,29.6035 164,31.5C 165.007,28.1966 167.173,27.0299 170.5,28C 166.629,31.6975 164.962,36.1975 165.5,41.5C 164.167,41.5 162.833,41.5 161.5,41.5C 162.301,36.1181 160.634,31.7848 156.5,28.5 Z"/></g>
<g><path style="opacity:0.796" fill="#d52e4b" d="M 172.5,27.5 C 174.167,27.5 175.833,27.5 177.5,27.5C 178.669,32.174 180.336,36.674 182.5,41C 181.833,41.1667 181.167,41.3333 180.5,41.5C 178.671,40.5354 176.838,39.5354 175,38.5C 173.393,38.7692 172.226,39.6026 171.5,41C 170.167,41.6667 168.833,41.6667 167.5,41C 169.66,36.6859 171.327,32.1859 172.5,27.5 Z M 174.5,32.5 C 177.377,34.8455 177.044,35.6789 173.5,35C 174.252,34.3292 174.586,33.4959 174.5,32.5 Z"/></g>
<g><path style="opacity:1" fill="#578cc7" d="M 25.5,26.5 C 25.5,27.1667 25.5,27.8333 25.5,28.5C 25.7947,30.7354 25.4614,32.7354 24.5,34.5C 22.1955,32.7598 19.5288,31.7598 16.5,31.5C 17.1098,30.609 17.4431,29.609 17.5,28.5C 18.1667,28.5 18.8333,28.5 19.5,28.5C 21.7179,28.3862 23.7179,27.7196 25.5,26.5 Z"/></g>
<g><path style="opacity:0.89" fill="#d4e6ef" d="M 19.5,41.5 C 16.5251,40.3449 13.8584,38.6782 11.5,36.5C 6.66181,31.8244 3.66181,26.1577 2.5,19.5C 2.33669,17.1432 2.50335,14.8098 3,12.5C 2.89165,18.2102 4.22498,23.5435 7,28.5C 11.0648,33.718 15.2315,38.0514 19.5,41.5 Z"/></g>
<g><path style="opacity:0.169" fill="#1e4297" d="M 25.5,26.5 C 30.1234,25.7811 32.79,27.7811 33.5,32.5C 35.7427,33.4742 38.076,33.8076 40.5,33.5C 40.5,34.1667 40.5,34.8333 40.5,35.5C 37.8127,35.6641 35.146,35.4974 32.5,35C 31.3081,33.0876 30.3081,31.0876 29.5,29C 28.2068,28.51 26.8734,28.3433 25.5,28.5C 25.5,27.8333 25.5,27.1667 25.5,26.5 Z"/></g>
<g><path style="opacity:1" fill="#165aa4" d="M 16.5,31.5 C 19.5288,31.7598 22.1955,32.7598 24.5,34.5C 24.6747,36.6208 24.3414,38.6208 23.5,40.5C 20.6298,39.5667 18.2964,37.9 16.5,35.5C 16.5,34.1667 16.5,32.8333 16.5,31.5 Z"/></g>
<g><path style="opacity:0.998" fill="#0b509e" d="M 11.5,36.5 C 13.8584,38.6782 16.5251,40.3449 19.5,41.5C 21.9557,43.8676 24.9557,44.8676 28.5,44.5C 28.5,44.8333 28.5,45.1667 28.5,45.5C 26.5,45.5 24.5,45.5 22.5,45.5C 22.0825,44.7784 21.4158,44.2784 20.5,44C 14.5092,43.5005 8.50924,43.3338 2.5,43.5C 2.51715,41.4352 2.85048,39.4352 3.5,37.5C 6.27884,37.7214 8.94551,37.388 11.5,36.5 Z"/></g>
<g><path style="opacity:0.067" fill="#6b92ad" d="M 42.5,41.5 C 41.7888,43.0301 40.7888,44.3634 39.5,45.5C 35.8333,45.5 32.1667,45.5 28.5,45.5C 28.5,45.1667 28.5,44.8333 28.5,44.5C 33.5948,45.0903 38.2615,44.0903 42.5,41.5 Z"/></g>
</svg>
