<?xml version="1.0" encoding="UTF-8"?>
<svg version="1.1" xmlns="http://www.w3.org/2000/svg" width="258" height="43">
<path d="M0 0 C1.98 0 3.96 0 6 0 C6.33 1.65 6.66 3.3 7 5 C7.33 4.175 7.66 3.35 8 2.5 C10 0 10 0 11.98046875 -0.33203125 C13.98995058 -0.31424822 15.9971564 -0.16416751 18 0 C17.60425781 0.54527344 17.20851563 1.09054687 16.80078125 1.65234375 C13.73392105 6.20664397 13.73392105 6.20664397 13.30078125 11.49609375 C14.07992633 13.74490585 14.97441243 15.85402264 16 18 C16.33 18.99 16.66 19.98 17 21 C17.33 16.05 17.66 11.1 18 6 C21.3 6 24.6 6 28 6 C27.67 7.98 27.34 9.96 27 12 C26.01 12 25.02 12 24 12 C23.67 16.29 23.34 20.58 23 25 C19.04 25 15.08 25 11 25 C9 20 9 20 9 17 C8.34 17 7.68 17 7 17 C6.67 19.64 6.34 22.28 6 25 C4.02 25 2.04 25 0 25 C0 16.75 0 8.5 0 0 Z " fill="#9CA09E" transform="translate(53,11)"/>
<path d="M0 0 C3.82805922 0.06848049 3.82805922 0.06848049 6.0625 2.375 C7.38258475 6.10229812 7.79112452 9.43526934 8.125 13.375 C8.929375 13.354375 9.73375 13.33375 10.5625 13.3125 C13.125 13.375 13.125 13.375 14.125 14.375 C14.455 13.715 14.785 13.055 15.125 12.375 C14.34125 12.25125 13.5575 12.1275 12.75 12 C10.125 11.375 10.125 11.375 8.125 9.375 C7.875 5.875 7.875 5.875 8.125 2.375 C10.125 0.375 10.125 0.375 12.0703125 0.1796875 C14.08854167 0.24479167 16.10677083 0.30989583 18.125 0.375 C18.785 2.025 19.445 3.675 20.125 5.375 C18.145 5.375 16.165 5.375 14.125 5.375 C14.74375 5.66375 15.3625 5.9525 16 6.25 C18.125 7.375 18.125 7.375 20.125 9.375 C20.390625 11.25 20.390625 11.25 20.375 13.375 C20.38015625 14.07625 20.3853125 14.7775 20.390625 15.5 C20.125 17.375 20.125 17.375 18.125 19.375 C16.25 19.640625 16.25 19.640625 14.125 19.625 C13.073125 19.63273437 13.073125 19.63273437 12 19.640625 C10.125 19.375 10.125 19.375 8.125 17.375 C7.795 18.035 7.465 18.695 7.125 19.375 C5.16696493 19.42889087 3.20851091 19.46774217 1.25 19.5 C-0.38582031 19.53480469 -0.38582031 19.53480469 -2.0546875 19.5703125 C-4.875 19.375 -4.875 19.375 -6.875 17.375 C-7.25 14.4375 -7.25 14.4375 -6.875 11.375 C-4.96829469 9.53185153 -3.23085853 8.55292927 -0.875 7.375 C-2.525 7.045 -4.175 6.715 -5.875 6.375 C-4.81439394 0.46590909 -4.81439394 0.46590909 0 0 Z M-0.875 12.375 C-0.545 13.035 -0.215 13.695 0.125 14.375 C0.455 13.715 0.785 13.055 1.125 12.375 C0.465 12.375 -0.195 12.375 -0.875 12.375 Z " fill="#9CA09E" transform="translate(101.875,16.625)"/>
<path d="M0 0 C1.98 0 3.96 0 6 0 C6 8.25 6 16.5 6 25 C2.37 25 -1.26 25 -5 25 C-7.66725027 20.44344746 -8.47913725 17.27050976 -8 12 C-6.5483871 7.5483871 -6.5483871 7.5483871 -5 6 C-3.33382885 5.95936168 -1.66611905 5.957279 0 6 C0 4.02 0 2.04 0 0 Z M-2 12 C-2 14.31 -2 16.62 -2 19 C-1.34 19 -0.68 19 0 19 C0 16.69 0 14.38 0 12 C-0.66 12 -1.32 12 -2 12 Z " fill="#9CA09E" transform="translate(152,11)"/>
<path d="M0 0 C3.96 0 7.92 0 12 0 C14.22264871 3.33397306 14.29675463 4.59514891 14.3125 8.5 C14.32925781 9.4590625 14.34601562 10.418125 14.36328125 11.40625 C14 14 14 14 12.6484375 15.83203125 C10.38878993 17.43306116 8.70147769 17.21903873 6 17 C6 19.64 6 22.28 6 25 C4.02 25 2.04 25 0 25 C0 16.75 0 8.5 0 0 Z M6 6 C6 7.65 6 9.3 6 11 C6.66 11 7.32 11 8 11 C8.33 10.01 8.66 9.02 9 8 C8.67 7.34 8.34 6.68 8 6 C7.34 6 6.68 6 6 6 Z " fill="#9CA09E" transform="translate(11,11)"/>
<path d="M0 0 C1.65 0 3.3 0 5 0 C5.33 1.98 5.66 3.96 6 6 C7.65 6 9.3 6 11 6 C13.04898287 10.21896866 13.21207997 13.65372146 13.125 18.3125 C13.10695312 19.56675781 13.08890625 20.82101563 13.0703125 22.11328125 C13.04710937 23.06589844 13.02390625 24.01851562 13 25 C11.02 25 9.04 25 7 25 C6.67 20.71 6.34 16.42 6 12 C5.67 16.29 5.34 20.58 5 25 C3.35 25 1.7 25 0 25 C0 16.75 0 8.5 0 0 Z " fill="#9CA09E" transform="translate(233,11)"/>
<path d="M0 0 C1.65 0 3.3 0 5 0 C5 8.25 5 16.5 5 25 C-5 25 -5 25 -7.125 23.0625 C-8.63931231 17.76240692 -8.81899096 13.11213458 -6.8125 7.9375 C-5 6 -5 6 -2.3125 5.6875 C-1.549375 5.790625 -0.78625 5.89375 0 6 C0 4.02 0 2.04 0 0 Z M-2 11 C-2.67673447 14.40320934 -2.67673447 14.40320934 -3 18 C-2.34 18.66 -1.68 19.32 -1 20 C0.41577477 18.81575674 0.41577477 18.81575674 0.0625 15.4375 C0.041875 14.303125 0.02125 13.16875 0 12 C-0.66 11.67 -1.32 11.34 -2 11 Z " fill="#9CA09E" transform="translate(211,11)"/>
<path d="M0 0 C2.48044315 3.72066472 2.44381173 6.86540474 2.625 11.1875 C2.66367188 11.93708984 2.70234375 12.68667969 2.7421875 13.45898438 C2.83628216 15.30559199 2.91922319 17.1527619 3 19 C0.85423363 19.02685938 -1.29162645 19.04633088 -3.4375 19.0625 C-4.63246094 19.07410156 -5.82742187 19.08570312 -7.05859375 19.09765625 C-10 19 -10 19 -11 18 C-11.14115161 15.32941149 -11.04247107 12.67567762 -11 10 C-8.69 8.68 -6.38 7.36 -4 6 C-5.98 6.33 -7.96 6.66 -10 7 C-10.6875 5.1875 -10.6875 5.1875 -11 3 C-8.6792422 -1.33208122 -4.2641869 -0.40611304 0 0 Z M-6 12 C-6 12.66 -6 13.32 -6 14 C-5.01 13.67 -4.02 13.34 -3 13 C-3.99 12.67 -4.98 12.34 -6 12 Z " fill="#9CA09E" transform="translate(229,17)"/>
<path d="M0 0 C8.3984375 -0.1953125 8.3984375 -0.1953125 11 0 C13 2 13 2 13.1953125 5.9140625 C13.18200376 7.48449351 13.15813602 9.05486221 13.125 10.625 C13.11597656 11.42679688 13.10695312 12.22859375 13.09765625 13.0546875 C13.07406223 15.03658523 13.03819065 17.01832981 13 19 C11.35 19 9.7 19 8 19 C8 14.71 8 10.42 8 6 C7.34 6 6.68 6 6 6 C6 10.29 6 14.58 6 19 C4.02 19 2.04 19 0 19 C0 12.73 0 6.46 0 0 Z " fill="#9CA09E" transform="translate(189,17)"/>
<path d="M0 0 C8.3984375 -0.1953125 8.3984375 -0.1953125 11 0 C13 2 13 2 13.1953125 5.9140625 C13.18200376 7.48449351 13.15813602 9.05486221 13.125 10.625 C13.11597656 11.42679688 13.10695312 12.22859375 13.09765625 13.0546875 C13.07406223 15.03658523 13.03819065 17.01832981 13 19 C11.35 19 9.7 19 8 19 C8 14.71 8 10.42 8 6 C7.34 6 6.68 6 6 6 C6 10.29 6 14.58 6 19 C4.02 19 2.04 19 0 19 C0 12.73 0 6.46 0 0 Z " fill="#9CA09E" transform="translate(130,17)"/>
<path d="M0 0 C3.5 0.4375 3.5 0.4375 5.375 1.4375 C7.17243534 4.6329406 7.20202714 7.80223107 7.5 11.4375 C4.53 11.4375 1.56 11.4375 -1.5 11.4375 C0.39755144 13.78723818 0.39755144 13.78723818 3.625 13.5625 C5.048125 13.500625 5.048125 13.500625 6.5 13.4375 C5.92655063 16.30474686 5.6385485 17.2989515 3.5 19.4375 C0.0625 19.8125 0.0625 19.8125 -3.5 19.4375 C-5.71016528 17.25273892 -6.43571092 15.86609388 -6.8984375 12.78125 C-6.89070313 11.8428125 -6.88296875 10.904375 -6.875 9.9375 C-6.88273437 8.9990625 -6.89046875 8.060625 -6.8984375 7.09375 C-6.18752012 2.35430078 -4.76569607 0.59571201 0 0 Z M-0.5 5.4375 C-0.83 6.0975 -1.16 6.7575 -1.5 7.4375 C-0.51 7.1075 0.48 6.7775 1.5 6.4375 C0.84 6.1075 0.18 5.7775 -0.5 5.4375 Z " fill="#9CA09E" transform="translate(87.5,16.5625)"/>
<path d="M0 0 C4.95 0 9.9 0 15 0 C15 1.98 15 3.96 15 6 C13.35 6 11.7 6 10 6 C10 12.27 10 18.54 10 25 C8.02 25 6.04 25 4 25 C4 18.73 4 12.46 4 6 C2.68 6 1.36 6 0 6 C0 4.02 0 2.04 0 0 Z " fill="#9CA09E" transform="translate(26,11)"/>
<path d="M0 0 C2.55949546 1.85342775 2.97918798 2.93756393 4 6 C4.37279581 11.03274337 4.00975759 13.90672968 1 18 C0 19 0 19 -2.875 19.25 C-6 19 -6 19 -7.8125 17.625 C-9.84625053 14.84197296 -10.15924415 13.02700459 -10.1875 9.625 C-10.20167969 8.85414062 -10.21585938 8.08328125 -10.23046875 7.2890625 C-9.97404645 4.7422241 -9.35625154 3.16048491 -8 1 C-5.20129973 -0.39935013 -3.09501208 -0.25265405 0 0 Z M-4 5 C-4.67673447 8.40320934 -4.67673447 8.40320934 -5 12 C-4.34 12.66 -3.68 13.32 -3 14 C-0.69924738 11.23254916 -0.69924738 11.23254916 -1.25 8.375 C-1.4975 7.59125 -1.745 6.8075 -2 6 C-2.66 5.67 -3.32 5.34 -4 5 Z " fill="#9CA09E" transform="translate(169,17)"/>
<path d="M0 0 C1.98 0 3.96 0 6 0 C6 8.25 6 16.5 6 25 C4.02 25 2.04 25 0 25 C0 16.75 0 8.5 0 0 Z " fill="#9CA09E" transform="translate(181,11)"/>
<path d="M0 0 C1.98 0 3.96 0 6 0 C6 6.27 6 12.54 6 19 C4.02 19 2.04 19 0 19 C0 12.73 0 6.46 0 0 Z " fill="#9CA09E" transform="translate(123,17)"/>
<path d="M0 0 C1.65 0 3.3 0 5 0 C5 2.31 5 4.62 5 7 C3.35 7 1.7 7 0 7 C0 4.69 0 2.38 0 0 Z " fill="#9CA09E" transform="translate(39,29)"/>
<path d="M0 0 C1.98 0 3.96 0 6 0 C6 1.32 6 2.64 6 4 C4.02 4 2.04 4 0 4 C0 2.68 0 1.36 0 0 Z " fill="#9CA09E" transform="translate(123,11)"/>
</svg>
