<?xml version="1.0" encoding="UTF-8"?>
<svg version="1.1" xmlns="http://www.w3.org/2000/svg" width="258" height="43">
<path d="M0 0 C0.33 0 0.66 0 1 0 C1 2.31 1 4.62 1 7 C1.99 7 2.98 7 4 7 C4 8.65 4 10.3 4 12 C3.01 12 2.02 12 1 12 C1 14.97 1 17.94 1 21 C1.66 21 2.32 21 3 21 C3.433125 20.21625 3.86625 19.4325 4.3125 18.625 C6.26798281 15.58313785 7.60211849 15.01018099 11 14 C10.34 14 9.68 14 9 14 C7.66216607 13.68521554 6.32796291 13.35412344 5 13 C5.875 8.125 5.875 8.125 7 7 C10.4375 6.8125 10.4375 6.8125 14 7 C16 9 16 9 16 12 C16.66 12 17.32 12 18 12 C18.2165625 11.0409375 18.2165625 11.0409375 18.4375 10.0625 C19 8 19 8 20 7 C22.875 6.625 22.875 6.625 26 7 C27.875 9.5 27.875 9.5 29 12 C27.35 12.33 25.7 12.66 24 13 C25.2375 13.7734375 25.2375 13.7734375 26.5 14.5625 C29 17 29 17 29.5 20.5625 C29 24 29 24 27.9375 25.9375 C24.97926786 27.55975634 22.30803161 27.18043809 19 27 C18.34 27 17.68 27 17 27 C12.66666667 27 8.33333333 27 4 27 C2.989375 27.020625 1.97875 27.04125 0.9375 27.0625 C-2 27 -2 27 -3 26 C-3.07271741 23.64686445 -3.08370868 21.29166332 -3.0625 18.9375 C-3.05347656 17.64714844 -3.04445313 16.35679688 -3.03515625 15.02734375 C-3.02355469 14.02832031 -3.01195313 13.02929688 -3 12 C-3.66 12 -4.32 12 -5 12 C-5 10.35 -5 8.7 -5 7 C-4.34 7 -3.68 7 -3 7 C-2.87625 6.21625 -2.7525 5.4325 -2.625 4.625 C-2 2 -2 2 0 0 Z M17 14 C17 16.64 17 19.28 17 22 C17.78375 21.979375 18.5675 21.95875 19.375 21.9375 C22 22 22 22 24 23 C24 22.01 24 21.02 24 20 C22.35666496 18.96210419 20.68756133 17.96432076 19 17 C18.34 16.01 17.68 15.02 17 14 Z M10 19 C9.67 19.66 9.34 20.32 9 21 C9.99 20.67 10.98 20.34 12 20 C11.34 19.67 10.68 19.34 10 19 Z " fill="#9CA09E" transform="translate(94,8)"/>
<path d="M0 0 C1.65 0 3.3 0 5 0 C5.33 1.32 5.66 2.64 6 4 C6.66 2.68 7.32 1.36 8 0 C10.31 0 12.62 0 15 0 C13.10909091 5.80779221 13.10909091 5.80779221 11.6875 8.3125 C10.59917298 12.56686926 12.39202155 16.03192416 14 20 C14.763125 19.21625 15.52625 18.4325 16.3125 17.625 C19 15 19 15 22 13 C20.35 13.33 18.7 13.66 17 14 C16.375 11.625 16.375 11.625 16 9 C18 7 18 7 21.4375 6.5625 C25 7 25 7 26.7109375 9.0390625 C28.30550501 12.70173575 28.33348459 15.90086153 28.1875 19.8125 C28.16719727 20.85180664 28.16719727 20.85180664 28.14648438 21.91210938 C28.11138845 23.60841265 28.05758943 25.30431136 28 27 C21.66666667 27 15.33333333 27 9 27 C8.01 24.69 7.02 22.38 6 20 C5.67 22.31 5.34 24.62 5 27 C3.35 27 1.7 27 0 27 C0 18.09 0 9.18 0 0 Z M21 19 C20.67 19.66 20.34 20.32 20 21 C20.99 20.67 21.98 20.34 23 20 C22.34 19.67 21.68 19.34 21 19 Z " fill="#9CA09E" transform="translate(193,8)"/>
<path d="M0 0 C3.63 0 7.26 0 11 0 C13 2 13 2 13.16015625 4.49609375 C13.12792969 5.46675781 13.09570312 6.43742188 13.0625 7.4375 C12.96145876 10.736716 12.94796368 12.84389105 14 16 C14.38736291 21.32624 14.33785639 22.54952481 11 27 C7.37 27 3.74 27 0 27 C0 18.09 0 9.18 0 0 Z M5 6 C5 7.32 5 8.64 5 10 C5.99 9.67 6.98 9.34 8 9 C7.67 8.01 7.34 7.02 7 6 C6.34 6 5.68 6 5 6 Z M5 16 C5 17.65 5 19.3 5 21 C5.99 21 6.98 21 8 21 C8.33 20.01 8.66 19.02 9 18 C8.67 17.34 8.34 16.68 8 16 C7.01 16 6.02 16 5 16 Z " fill="#9CA09E" transform="translate(131,8)"/>
<path d="M0 0 C1.65 0 3.3 0 5 0 C5.04898437 1.27617187 5.09796875 2.55234375 5.1484375 3.8671875 C5.22346191 5.53648072 5.29900988 7.20575046 5.375 8.875 C5.4059375 9.71675781 5.436875 10.55851562 5.46875 11.42578125 C5.50742188 12.23144531 5.54609375 13.03710938 5.5859375 13.8671875 C5.6173584 14.61081543 5.6487793 15.35444336 5.68115234 16.12060547 C5.85419551 18.24010974 5.85419551 18.24010974 8 20 C8.33 13.4 8.66 6.8 9 0 C10.98 0 12.96 0 15 0 C15.08149592 3.02138567 15.14073421 6.04053905 15.1875 9.0625 C15.22520508 10.33383789 15.22520508 10.33383789 15.26367188 11.63085938 C15.32847277 17.22533647 14.61759241 21.03514588 12 26 C11 27 11 27 7.625 27.25 C4 27 4 27 2.125 25.6875 C0.01952752 22.52929128 -0.11994168 19.79037706 -0.09765625 16.11328125 C-0.09443359 15.17548828 -0.09121094 14.23769531 -0.08789062 13.27148438 C-0.07532227 11.80678711 -0.07532227 11.80678711 -0.0625 10.3125 C-0.05798828 9.32443359 -0.05347656 8.33636719 -0.04882812 7.31835938 C-0.03704303 4.87884526 -0.02059011 2.43945311 0 0 Z " fill="#9CA09E" transform="translate(1,8)"/>
<path d="M0 0 C3.3 0 6.6 0 10 0 C10.05797565 3.93743833 10.09358789 7.87476719 10.125 11.8125 C10.14175781 12.93205078 10.15851563 14.05160156 10.17578125 15.20507812 C10.18222656 16.27822266 10.18867188 17.35136719 10.1953125 18.45703125 C10.20578613 19.44678955 10.21625977 20.43654785 10.22705078 21.45629883 C10 24 10 24 8 27 C6.0546875 27.29296875 6.0546875 27.29296875 3.875 27.1875 C2.59625 27.125625 1.3175 27.06375 0 27 C-1.4606285 24.35261084 -2 23.10551666 -2 20 C-0.02 20.33 1.96 20.66 4 21 C4.33 20.34 4.66 19.68 5 19 C3.35 19 1.7 19 0 19 C-1.93773248 15.7396882 -2.27072187 13.27138064 -2.25 9.5 C-2.25515625 8.5615625 -2.2603125 7.623125 -2.265625 6.65625 C-2 4 -2 4 0 0 Z M3 6 C3 8.31 3 10.62 3 13 C3.66 13 4.32 13 5 13 C5 10.69 5 8.38 5 6 C4.34 6 3.68 6 3 6 Z " fill="#9CA09E" transform="translate(174,15)"/>
<path d="M0 0 C3.3 0 6.6 0 10 0 C10.33 1.32 10.66 2.64 11 4 C11.66 2.68 12.32 1.36 13 0 C14.65 0 16.3 0 18 0 C16.68 6.6 15.36 13.2 14 20 C12.35 20 10.7 20 9 20 C8.01 16.04 7.02 12.08 6 8 C5.67 11.96 5.34 15.92 5 20 C3.35 20 1.7 20 0 20 C0 13.4 0 6.8 0 0 Z " fill="#9CA09E" transform="translate(31,15)"/>
<path d="M0 0 C3.3 0 6.6 0 10 0 C12 2 12 2 12.22705078 3.87939453 C12.21134033 4.99483643 12.21134033 4.99483643 12.1953125 6.1328125 C12.18564453 7.34130859 12.18564453 7.34130859 12.17578125 8.57421875 C12.15902344 9.41597656 12.14226562 10.25773437 12.125 11.125 C12.11597656 11.97449219 12.10695312 12.82398438 12.09765625 13.69921875 C12.07405647 15.79959884 12.03818483 17.89983444 12 20 C10.35 20 8.7 20 7 20 C6.67 15.71 6.34 11.42 6 7 C5.67 11.29 5.34 15.58 5 20 C3.35 20 1.7 20 0 20 C0 13.4 0 6.8 0 0 Z " fill="#9CA09E" transform="translate(159,15)"/>
<path d="M0 0 C1.65 0 3.3 0 5 0 C5 4.29 5 8.58 5 13 C5.66 13 6.32 13 7 13 C7 8.71 7 4.42 7 0 C8.65 0 10.3 0 12 0 C12 6.6 12 13.2 12 20 C8.7 20 5.4 20 2 20 C-0.03120707 16.95318939 -0.24659875 16.39881676 -0.1953125 12.98828125 C-0.18886719 12.23095703 -0.18242187 11.47363281 -0.17578125 10.69335938 C-0.15902344 9.90767578 -0.14226562 9.12199219 -0.125 8.3125 C-0.11597656 7.51521484 -0.10695312 6.71792969 -0.09765625 5.89648438 C-0.07411585 3.930861 -0.03824547 1.96539225 0 0 Z " fill="#9CA09E" transform="translate(146,15)"/>
<path d="M0 0 C3.3 0 6.6 0 10 0 C12 2 12 2 12.22705078 3.87939453 C12.21134033 4.99483643 12.21134033 4.99483643 12.1953125 6.1328125 C12.18564453 7.34130859 12.18564453 7.34130859 12.17578125 8.57421875 C12.15902344 9.41597656 12.14226563 10.25773437 12.125 11.125 C12.11597656 11.97449219 12.10695313 12.82398438 12.09765625 13.69921875 C12.07405647 15.79959884 12.03818483 17.89983444 12 20 C10.35 20 8.7 20 7 20 C6.67 15.71 6.34 11.42 6 7 C5.67 11.29 5.34 15.58 5 20 C3.35 20 1.7 20 0 20 C0 13.4 0 6.8 0 0 Z " fill="#9CA09E" transform="translate(17,15)"/>
<path d="M0 0 C3.3 0 6.6 0 10 0 C12.1103435 4.27884606 12.24128739 8.13864142 12.125 12.8125 C12.11597656 13.50537109 12.10695312 14.19824219 12.09765625 14.91210938 C12.07426157 16.60822395 12.03839641 18.30415871 12 20 C10.35 20 8.7 20 7 20 C7 15.71 7 11.42 7 7 C6.34 7 5.68 7 5 7 C5 11.29 5 15.58 5 20 C3.35 20 1.7 20 0 20 C0 13.4 0 6.8 0 0 Z " fill="#9CA09E" transform="translate(232,15)"/>
<path d="M0 0 C3 0.5 3 0.5 4.875 2.5625 C6.20764658 6.04218828 6.21742881 8.80371031 6 12.5 C3.69 12.83 1.38 13.16 -1 13.5 C0.12534105 14.85618499 0.12534105 14.85618499 3.0625 14.5625 C4.031875 14.541875 5.00125 14.52125 6 14.5 C4.125 19.375 4.125 19.375 3 20.5 C0.66702567 20.54092937 -1.66705225 20.54241723 -4 20.5 C-7.11391299 14.7704001 -7.76121798 9.87605497 -6 3.5 C-3.99740993 0.91379796 -3.32124791 0.55354132 0 0 Z M-1 5.5 C-1.33 6.49 -1.66 7.48 -2 8.5 C-1.01 8.5 -0.02 8.5 1 8.5 C0.67 7.51 0.34 6.52 0 5.5 C-0.33 5.5 -0.66 5.5 -1 5.5 Z " fill="#9CA09E" transform="translate(55,14.5)"/>
<path d="M0 0 C3 0.5 3 0.5 4.6640625 2.15625 C6.3460563 5.10711632 6.400364 7.118133 6.375 10.5 C6.38273437 11.53125 6.39046875 12.5625 6.3984375 13.625 C5.95332807 16.83677003 5.2840595 18.22666379 3 20.5 C0 21 0 21 -3 20.5 C-5.2840595 18.22666379 -5.95332807 16.83677003 -6.3984375 13.625 C-6.38683594 12.078125 -6.38683594 12.078125 -6.375 10.5 C-6.38273438 9.46875 -6.39046875 8.4375 -6.3984375 7.375 C-5.77845588 2.90140711 -4.5361908 0.7560318 0 0 Z M-1 6.5 C-2.01540112 10.60223585 -2.01540112 10.60223585 -1 14.5 C-0.34 14.5 0.32 14.5 1 14.5 C1 11.86 1 9.22 1 6.5 C0.34 6.5 -0.32 6.5 -1 6.5 Z " fill="#9CA09E" transform="translate(251,14.5)"/>
<path d="M0 0 C3.625 -0.1875 3.625 -0.1875 7 0 C7.66 1.65 8.32 3.3 9 5 C7.35 5.33 5.7 5.66 4 6 C4.825 6.309375 5.65 6.61875 6.5 6.9375 C9 9 9 9 9.40234375 11.1328125 C9.43658881 13.49952649 9.42020409 15.66897309 9 18 C7 20 7 20 3.5 20.25 C0 20 0 20 -2 18 C-1.625 15.875 -1.625 15.875 -1 14 C0.65 14.33 2.3 14.66 4 15 C4.33 14.34 4.66 13.68 5 13 C4.030625 12.71125 3.06125 12.4225 2.0625 12.125 C-1 11 -1 11 -2 9 C-2.25860135 4.94857881 -2.30441554 3.45662331 0 0 Z " fill="#9CA09E" transform="translate(73,15)"/>
<path d="M0 0 C2.97 0 5.94 0 9 0 C8.74438677 2.3431213 8.40729228 4.67843403 8 7 C7.01 7.495 7.01 7.495 6 8 C5.53101037 10.8159849 5.53101037 10.8159849 5.375 14.0625 C5.30023438 15.16722656 5.22546875 16.27195312 5.1484375 17.41015625 C5.09945312 18.26480469 5.05046875 19.11945312 5 20 C3.35 20 1.7 20 0 20 C0 13.4 0 6.8 0 0 Z " fill="#9CA09E" transform="translate(222,15)"/>
<path d="M0 0 C2.97 0 5.94 0 9 0 C8.67 2.31 8.34 4.62 8 7 C7.01 7 6.02 7 5 7 C5 11.29 5 15.58 5 20 C3.35 20 1.7 20 0 20 C0 13.4 0 6.8 0 0 Z " fill="#9CA09E" transform="translate(62,15)"/>
<path d="M0 0 C1.65 0 3.3 0 5 0 C5 6.6 5 13.2 5 20 C3.35 20 1.7 20 0 20 C0 13.4 0 6.8 0 0 Z " fill="#9CA09E" transform="translate(83,15)"/>
<path d="M0 0 C1.65 0 3.3 0 5 0 C5 1.65 5 3.3 5 5 C3.35 5 1.7 5 0 5 C0 3.35 0 1.7 0 0 Z " fill="#9CA09E" transform="translate(83,8)"/>
<path d="M0 0 C1.65 0 3.3 0 5 0 C5 1.65 5 3.3 5 5 C3.35 5 1.7 5 0 5 C0 3.35 0 1.7 0 0 Z " fill="#9CA09E" transform="translate(31,8)"/>
</svg>
