<?xml version="1.0" encoding="UTF-8"?>
<svg version="1.1" xmlns="http://www.w3.org/2000/svg" width="258" height="43">
<path d="M0 0 C2.64 0 5.28 0 8 0 C8.66 3.96 9.32 7.92 10 12 C10.66 8.04 11.32 4.08 12 0 C14.64 0 17.28 0 20 0 C20 11.22 20 22.44 20 34 C18.35 34 16.7 34 15 34 C14.67 31.03 14.34 28.06 14 25 C13.855625 26.299375 13.71125 27.59875 13.5625 28.9375 C13.125 32.875 13.125 32.875 12 34 C10.33382885 34.04063832 8.66611905 34.042721 7 34 C6.67 31.69 6.34 29.38 6 27 C5.67 29.31 5.34 31.62 5 34 C3.35 34 1.7 34 0 34 C0 22.78 0 11.56 0 0 Z " fill="#9CA09E" transform="translate(61,5)"/>
<path d="M0 0 C4.29 0 8.58 0 13 0 C16.24913098 6.3628815 17.19570804 11.98583728 15.125 18.9375 C14 21 14 21 12 23 C10.35 23 8.7 23 7 23 C7 26.63 7 30.26 7 34 C4.69 34 2.38 34 0 34 C0 22.78 0 11.56 0 0 Z M7 8 C7 10.31 7 12.62 7 15 C7.99 14.01 8.98 13.02 10 12 C9.34 10.68 8.68 9.36 8 8 C7.67 8 7.34 8 7 8 Z " fill="#9CA09E" transform="translate(13,5)"/>
<path d="M0 0 C1.98 0 3.96 0 6 0 C6.33 3.63 6.66 7.26 7 11 C7.33 10.34 7.66 9.68 8 9 C10.31 9 12.62 9 15 9 C14.690625 9.886875 14.38125 10.77375 14.0625 11.6875 C12.42208728 16.80172789 11.64362163 19.90410309 13.4375 25.0625 C14.58979179 28.41603083 15 30.35391086 15 34 C13.02 34 11.04 34 9 34 C8.34 32.02 7.68 30.04 7 28 C6.67 29.98 6.34 31.96 6 34 C4.02 34 2.04 34 0 34 C0 22.78 0 11.56 0 0 Z " fill="#9CA09E" transform="translate(170,5)"/>
<path d="M0 0 C3.0097598 5.8220288 3.38006704 10.44453452 3.1875 16.9375 C3.17396484 17.81212891 3.16042969 18.68675781 3.14648438 19.58789062 C3.11144109 21.72553086 3.05764541 23.86284984 3 26 C-3.435 26.495 -3.435 26.495 -10 27 C-12.67356175 22.98965737 -12.70026766 19.71399692 -12 15 C-9.8141602 11.95543743 -7.41889073 10.46523889 -4 9 C-4.33 8.34 -4.66 7.68 -5 7 C-5.33 7.66 -5.66 8.32 -6 9 C-7.65 9 -9.3 9 -11 9 C-12 6 -12 6 -11.1875 3.375 C-8.83366178 -1.33267643 -4.6913856 -0.07566751 0 0 Z M-4 15 C-4.99 15.495 -4.99 15.495 -6 16 C-6 17.65 -6 19.3 -6 21 C-5.01 20.01 -4.02 19.02 -3 18 C-3.33 17.01 -3.66 16.02 -4 15 Z " fill="#9CA09E" transform="translate(237,13)"/>
<path d="M0 0 C3.0097598 5.8220288 3.38006704 10.44453452 3.1875 16.9375 C3.17396484 17.81212891 3.16042969 18.68675781 3.14648438 19.58789062 C3.11144109 21.72553086 3.05764541 23.86284984 3 26 C-3.435 26.495 -3.435 26.495 -10 27 C-12.67356175 22.98965737 -12.70026766 19.71399692 -12 15 C-9.8141602 11.95543743 -7.41889073 10.46523889 -4 9 C-4.33 8.34 -4.66 7.68 -5 7 C-5.33 7.66 -5.66 8.32 -6 9 C-7.65 9 -9.3 9 -11 9 C-12 6 -12 6 -11.1875 3.375 C-8.83366178 -1.33267643 -4.6913856 -0.07566751 0 0 Z M-4 15 C-4.99 15.495 -4.99 15.495 -6 16 C-6 17.65 -6 19.3 -6 21 C-5.01 20.01 -4.02 19.02 -3 18 C-3.33 17.01 -3.66 16.02 -4 15 Z " fill="#9CA09E" transform="translate(198,13)"/>
<path d="M0 0 C3.0097598 5.8220288 3.38006704 10.44453452 3.1875 16.9375 C3.17396484 17.81212891 3.16042969 18.68675781 3.14648438 19.58789062 C3.11144109 21.72553086 3.05764541 23.86284984 3 26 C-3.435 26.495 -3.435 26.495 -10 27 C-12.67356175 22.98965737 -12.70026766 19.71399692 -12 15 C-9.8141602 11.95543743 -7.41889073 10.46523889 -4 9 C-4.33 8.34 -4.66 7.68 -5 7 C-5.33 7.66 -5.66 8.32 -6 9 C-7.65 9 -9.3 9 -11 9 C-12 6 -12 6 -11.1875 3.375 C-8.83366178 -1.33267643 -4.6913856 -0.07566751 0 0 Z M-4 15 C-4.99 15.495 -4.99 15.495 -6 16 C-6 17.65 -6 19.3 -6 21 C-5.01 20.01 -4.02 19.02 -3 18 C-3.33 17.01 -3.66 16.02 -4 15 Z " fill="#9CA09E" transform="translate(125,13)"/>
<path d="M0 0 C2.78236284 0.76290594 3.44372848 2.10461442 4.9375 4.53125 C5.36987305 7.00488281 5.36987305 7.00488281 5.44921875 9.734375 C5.48466797 10.7140625 5.52011719 11.69375 5.55664062 12.703125 C5.57919922 13.71890625 5.60175781 14.7346875 5.625 15.78125 C5.67624023 17.328125 5.67624023 17.328125 5.72851562 18.90625 C5.81088093 21.44780812 5.88006834 23.98902626 5.9375 26.53125 C4.803125 26.510625 3.66875 26.49 2.5 26.46875 C-0.87825674 26.11547523 -0.87825674 26.11547523 -2.0625 27.53125 C-4.5 27.71875 -4.5 27.71875 -7.0625 27.53125 C-9.8918078 24.7019422 -9.79595379 22.46280659 -10.0625 18.53125 C-9.23435057 14.57453608 -8.24515808 13.66641698 -4.9375 11.21875 C-3.98875 10.661875 -3.04 10.105 -2.0625 9.53125 C-2.3925 9.20125 -2.7225 8.87125 -3.0625 8.53125 C-4.73792976 8.81729898 -6.40635343 9.14906233 -8.0625 9.53125 C-8.95160615 6.62144806 -9.28417778 5.07805518 -8.125 2.21875 C-5.38655703 -0.02179425 -3.44897408 0.05225718 0 0 Z M-2.0625 15.53125 C-2.7225 16.19125 -3.3825 16.85125 -4.0625 17.53125 C-3.7439823 19.63945797 -3.7439823 19.63945797 -3.0625 21.53125 C-2.4025 21.20125 -1.7425 20.87125 -1.0625 20.53125 C-1.0625 18.88125 -1.0625 17.23125 -1.0625 15.53125 C-1.3925 15.53125 -1.7225 15.53125 -2.0625 15.53125 Z " fill="#9CA09E" transform="translate(163.0625,12.46875)"/>
<path d="M0 0 C2.31 0 4.62 0 7 0 C7.08802152 3.9790243 7.14073233 7.95779388 7.1875 11.9375 C7.22520508 13.61295898 7.22520508 13.61295898 7.26367188 15.32226562 C7.32286814 22.05090787 6.86532098 27.83782816 4 34 C3 35 3 35 -0.375 35.3125 C-4 35 -4 35 -5.875 33.5625 C-7.52122519 29.81276484 -7.74851818 26.05839626 -8 22 C-6.02 21.67 -4.04 21.34 -2 21 C-2 22.65 -2 24.3 -2 26 C-1.34 26 -0.68 26 0 26 C0 17.42 0 8.84 0 0 Z " fill="#9CA09E" transform="translate(145,5)"/>
<path d="M0 0 C5.61 0 11.22 0 17 0 C17 2.64 17 5.28 17 8 C15.02 8 13.04 8 11 8 C11 16.58 11 25.16 11 34 C9.02 34 7.04 34 5 34 C5 25.42 5 16.84 5 8 C3.35 8 1.7 8 0 8 C0 5.36 0 2.72 0 0 Z " fill="#9CA09E" transform="translate(30,5)"/>
<path d="M0 0 C0 2.97 0 5.94 0 9 C0.99 9 1.98 9 3 9 C3 11.31 3 13.62 3 16 C2.01 16 1.02 16 0 16 C0 19.96 0 23.92 0 28 C0.99 28 1.98 28 3 28 C3 30.31 3 32.62 3 35 C0.69 35 -1.62 35 -4 35 C-5.59951655 29.24436256 -6.43851196 23.83346482 -6.75 17.875 C-6.80542969 17.10285156 -6.86085937 16.33070312 -6.91796875 15.53515625 C-7.21911749 10.17835894 -6.99894942 5.49868677 -3.5 1.125 C-2 0 -2 0 0 0 Z " fill="#9CA09E" transform="translate(221,5)"/>
<path d="M0 0 C0 2.97 0 5.94 0 9 C0.99 9 1.98 9 3 9 C3 11.31 3 13.62 3 16 C2.01 16 1.02 16 0 16 C0 19.96 0 23.92 0 28 C0.99 28 1.98 28 3 28 C3 30.31 3 32.62 3 35 C0.69 35 -1.62 35 -4 35 C-5.59951655 29.24436256 -6.43851196 23.83346482 -6.75 17.875 C-6.80542969 17.10285156 -6.86085938 16.33070312 -6.91796875 15.53515625 C-7.21911749 10.17835894 -6.99894942 5.49868677 -3.5 1.125 C-2 0 -2 0 0 0 Z " fill="#9CA09E" transform="translate(98,5)"/>
<path d="M0 0 C-0.33 2.31 -0.66 4.62 -1 7 C-1.99 7 -2.98 7 -4 7 C-4.33 12.94 -4.66 18.88 -5 25 C-6.65 25 -8.3 25 -10 25 C-10 16.75 -10 8.5 -10 0 C-3.25 -1.125 -3.25 -1.125 0 0 Z " fill="#9CA09E" transform="translate(213,14)"/>
<path d="M0 0 C-0.33 2.31 -0.66 4.62 -1 7 C-1.99 7 -2.98 7 -4 7 C-4.33 12.94 -4.66 18.88 -5 25 C-6.65 25 -8.3 25 -10 25 C-10 16.75 -10 8.5 -10 0 C-3.25 -1.125 -3.25 -1.125 0 0 Z " fill="#9CA09E" transform="translate(113,14)"/>
<path d="M0 0 C1.65 0 3.3 0 5 0 C5 8.25 5 16.5 5 25 C3.35 25 1.7 25 0 25 C0 16.75 0 8.5 0 0 Z " fill="#9CA09E" transform="translate(84,14)"/>
<path d="M0 0 C1.65 0 3.3 0 5 0 C5 3.3 5 6.6 5 10 C3.35 10 1.7 10 0 10 C0 6.7 0 3.4 0 0 Z " fill="#9CA09E" transform="translate(45,29)"/>
<path d="M0 0 C1.65 0 3.3 0 5 0 C5 1.98 5 3.96 5 6 C3.35 6 1.7 6 0 6 C0 4.02 0 2.04 0 0 Z " fill="#9CA09E" transform="translate(84,5)"/>
</svg>
