<?xml version="1.0" encoding="UTF-8"?>
<svg version="1.1" xmlns="http://www.w3.org/2000/svg" width="258" height="43">
<path d="M0 0 C3.96 0 7.92 0 12 0 C12.99 4.62 13.98 9.24 15 14 C15.99 9.38 16.98 4.76 18 0 C21.96 0 25.92 0 30 0 C30 10.56 30 21.12 30 32 C27.69 32 25.38 32 23 32 C22.67 27.05 22.34 22.1 22 17 C21.01 21.95 20.02 26.9 19 32 C16.69 32 14.38 32 12 32 C10.5783681 28.6828589 9.60990891 25.55780196 9 22 C8.67 25.3 8.34 28.6 8 32 C5.36 32 2.72 32 0 32 C0 21.44 0 10.88 0 0 Z " fill="#9CA09E" transform="translate(113,7)"/>
<path d="M0 0 C3.238125 -0.061875 6.47625 -0.12375 9.8125 -0.1875 C11.33774292 -0.22846802 11.33774292 -0.22846802 12.89379883 -0.27026367 C13.69841553 -0.27775635 14.50303223 -0.28524902 15.33203125 -0.29296875 C16.56530151 -0.31653442 16.56530151 -0.31653442 17.82348633 -0.34057617 C20.54036841 0.08455568 21.37391228 0.81390999 23 3 C23.90668393 6.76622556 24.38851879 9.07187177 22.875 12.6875 C22.58625 13.450625 22.2975 14.21375 22 15 C22.98560611 16.34400833 23.98758315 17.67607028 25 19 C25.54407111 23.98731848 25.06351224 26.99386861 22 31 C19.59940183 32.20029908 18.10639351 32.11459743 15.4296875 32.09765625 C14.62257324 32.09515869 13.81545898 32.09266113 12.98388672 32.09008789 C11.9579541 32.08098389 10.93202148 32.07187988 9.875 32.0625 C4.986875 32.0315625 4.986875 32.0315625 0 32 C0 21.44 0 10.88 0 0 Z M9 7 C9 8.65 9 10.3 9 12 C10.65 12 12.3 12 14 12 C14.59070014 10.05396726 14.59070014 10.05396726 15 8 C13.93354885 6.70366379 13.93354885 6.70366379 11.4375 6.9375 C10.633125 6.958125 9.82875 6.97875 9 7 Z M9 19 C9 20.98 9 22.96 9 25 C12.465 24.505 12.465 24.505 16 24 C16 22.68 16 21.36 16 20 C13.69 19.67 11.38 19.34 9 19 Z " fill="#9CA09E" transform="translate(2,7)"/>
<path d="M0 0 C2.64 0 5.28 0 8 0 C8 10.56 8 21.12 8 32 C5.36 32 2.72 32 0 32 C-0.495 32.495 -0.495 32.495 -1 33 C-7.2298784 33.58772438 -7.2298784 33.58772438 -10.375 31.1875 C-13.05645926 27.5778433 -13.1845195 24.50127989 -13.25 20.125 C-13.28867188 18.58199219 -13.28867188 18.58199219 -13.328125 17.0078125 C-12.95503198 13.58779313 -12.03027507 11.74974147 -10 9 C-7.04335481 7.5216774 -4.25770263 7.93967217 -1 8 C-0.67 5.36 -0.34 2.72 0 0 Z M-3 14 C-5.42522207 16.42522207 -5.29629254 17.1720679 -5.3125 20.5 C-5.32925781 21.2940625 -5.34601563 22.088125 -5.36328125 22.90625 C-5.24339844 23.5971875 -5.12351563 24.288125 -5 25 C-3.515 25.99 -3.515 25.99 -2 27 C0.42522207 24.57477793 0.29629254 23.8279321 0.3125 20.5 C0.32925781 19.7059375 0.34601563 18.911875 0.36328125 18.09375 C0.24339844 17.4028125 0.12351563 16.711875 0 16 C-0.99 15.34 -1.98 14.68 -3 14 Z " fill="#9CA09E" transform="translate(206,7)"/>
<path d="M0 0 C2.64 0 5.28 0 8 0 C8.33 4.29 8.66 8.58 9 13 C9.99 11.68 10.98 10.36 12 9 C14.48046875 8.609375 14.48046875 8.609375 17.1875 8.75 C18.08855469 8.78609375 18.98960938 8.8221875 19.91796875 8.859375 C20.60503906 8.90578125 21.29210937 8.9521875 22 9 C21.62746094 9.44730469 21.25492188 9.89460938 20.87109375 10.35546875 C17.90727344 13.97074974 17.90727344 13.97074974 16.9375 18.375 C18.25519104 21.63047198 19.66033064 24.83593142 21.16015625 28.01171875 C22 30 22 30 22 32 C19.03 32 16.06 32 13 32 C12.01 29.69 11.02 27.38 10 25 C9.34 27.31 8.68 29.62 8 32 C5.36 32 2.72 32 0 32 C0 21.44 0 10.88 0 0 Z " fill="#9CA09E" transform="translate(77,7)"/>
<path d="M0 0 C1.57394531 -0.05607422 1.57394531 -0.05607422 3.1796875 -0.11328125 C6.125 0.3125 6.125 0.3125 8.4609375 1.69140625 C11.04951125 5.76871373 10.80201355 9.82501578 10.875 14.5625 C10.90464844 15.49835937 10.93429688 16.43421875 10.96484375 17.3984375 C11.03539804 19.70321092 11.08816252 22.00698168 11.125 24.3125 C10.49851563 24.30089844 9.87203125 24.28929688 9.2265625 24.27734375 C8.00066406 24.26380859 8.00066406 24.26380859 6.75 24.25 C5.53183594 24.23259766 5.53183594 24.23259766 4.2890625 24.21484375 C2.07562858 24.16783666 2.07562858 24.16783666 0.125 25.3125 C-7.02095496 25.76621143 -7.02095496 25.76621143 -9.875 24.25 C-11.44146819 21.21496787 -11.1739878 18.66116332 -10.875 15.3125 C-8.54214557 11.81321836 -7.66704931 11.6795902 -3.75 10.625 C-2.38488281 10.24794922 -2.38488281 10.24794922 -0.9921875 9.86328125 C-0.29351562 9.68152344 0.40515625 9.49976563 1.125 9.3125 C1.125 8.6525 1.125 7.9925 1.125 7.3125 C0.58875 7.6425 0.0525 7.9725 -0.5 8.3125 C-3.4679092 9.56214598 -5.68299279 9.59006584 -8.875 9.3125 C-9.535 8.6525 -10.195 7.9925 -10.875 7.3125 C-7.95036782 1.06442215 -6.84754225 0.15905049 0 0 Z M-2.875 16.3125 C-2.545 17.3025 -2.215 18.2925 -1.875 19.3125 C-0.555 18.9825 0.765 18.6525 2.125 18.3125 C2.125 17.3225 2.125 16.3325 2.125 15.3125 C-0.8004644 15.0888932 -0.8004644 15.0888932 -2.875 16.3125 Z " fill="#9CA09E" transform="translate(155.875,14.6875)"/>
<path d="M0 0 C1.57394531 -0.05607422 1.57394531 -0.05607422 3.1796875 -0.11328125 C6.125 0.3125 6.125 0.3125 8.4609375 1.69140625 C11.04951125 5.76871373 10.80201355 9.82501578 10.875 14.5625 C10.90464844 15.49835937 10.93429688 16.43421875 10.96484375 17.3984375 C11.03539804 19.70321092 11.08816252 22.00698168 11.125 24.3125 C10.49851562 24.30089844 9.87203125 24.28929688 9.2265625 24.27734375 C8.00066406 24.26380859 8.00066406 24.26380859 6.75 24.25 C5.53183594 24.23259766 5.53183594 24.23259766 4.2890625 24.21484375 C2.07562858 24.16783666 2.07562858 24.16783666 0.125 25.3125 C-7.02095496 25.76621143 -7.02095496 25.76621143 -9.875 24.25 C-11.44146819 21.21496787 -11.1739878 18.66116332 -10.875 15.3125 C-8.54214557 11.81321836 -7.66704931 11.6795902 -3.75 10.625 C-2.38488281 10.24794922 -2.38488281 10.24794922 -0.9921875 9.86328125 C-0.29351562 9.68152344 0.40515625 9.49976563 1.125 9.3125 C1.125 8.6525 1.125 7.9925 1.125 7.3125 C0.58875 7.6425 0.0525 7.9725 -0.5 8.3125 C-3.4679092 9.56214598 -5.68299279 9.59006584 -8.875 9.3125 C-9.535 8.6525 -10.195 7.9925 -10.875 7.3125 C-7.95036782 1.06442215 -6.84754225 0.15905049 0 0 Z M-2.875 16.3125 C-2.545 17.3025 -2.215 18.2925 -1.875 19.3125 C-0.555 18.9825 0.765 18.6525 2.125 18.3125 C2.125 17.3225 2.125 16.3325 2.125 15.3125 C-0.8004644 15.0888932 -0.8004644 15.0888932 -2.875 16.3125 Z " fill="#9CA09E" transform="translate(39.875,14.6875)"/>
<path d="M0 0 C3.625 0.25 3.625 0.25 5.33325195 1.46020508 C7.03344088 3.81591951 6.97045931 5.24973793 6.91796875 8.13671875 C6.90830078 9.07451172 6.89863281 10.01230469 6.88867188 10.97851562 C6.86353516 11.95498047 6.83839844 12.93144531 6.8125 13.9375 C6.79219727 15.41959961 6.79219727 15.41959961 6.77148438 16.93164062 C6.73612203 19.37164231 6.68677033 21.81054719 6.625 24.25 C3.985 24.25 1.345 24.25 -1.375 24.25 C-1.705 18.97 -2.035 13.69 -2.375 8.25 C-3.365 8.745 -3.365 8.745 -4.375 9.25 C-4.68741371 11.79941373 -4.88803421 14.25361513 -5 16.8125 C-5.05800781 17.87887695 -5.05800781 17.87887695 -5.1171875 18.96679688 C-5.21171783 20.72742425 -5.29445817 22.48867728 -5.375 24.25 C-8.015 24.25 -10.655 24.25 -13.375 24.25 C-13.375 16.66 -13.375 9.07 -13.375 1.25 C-10.375 1.25 -7.375 1.25 -4.375 1.25 C-3.375 0.25 -3.375 0.25 0 0 Z " fill="#9CA09E" transform="translate(183.375,14.75)"/>
<path d="M0 0 C3.625 0.25 3.625 0.25 5.33325195 1.46020508 C7.03344088 3.81591951 6.97045931 5.24973793 6.91796875 8.13671875 C6.90830078 9.07451172 6.89863281 10.01230469 6.88867188 10.97851562 C6.86353516 11.95498047 6.83839844 12.93144531 6.8125 13.9375 C6.79219727 15.41959961 6.79219727 15.41959961 6.77148438 16.93164062 C6.73612203 19.37164231 6.68677033 21.81054719 6.625 24.25 C3.985 24.25 1.345 24.25 -1.375 24.25 C-1.705 18.97 -2.035 13.69 -2.375 8.25 C-3.365 8.745 -3.365 8.745 -4.375 9.25 C-4.68741371 11.79941373 -4.88803421 14.25361513 -5 16.8125 C-5.05800781 17.87887695 -5.05800781 17.87887695 -5.1171875 18.96679688 C-5.21171783 20.72742425 -5.29445817 22.48867728 -5.375 24.25 C-8.015 24.25 -10.655 24.25 -13.375 24.25 C-13.375 16.66 -13.375 9.07 -13.375 1.25 C-10.375 1.25 -7.375 1.25 -4.375 1.25 C-3.375 0.25 -3.375 0.25 0 0 Z " fill="#9CA09E" transform="translate(66.375,14.75)"/>
<path d="M0 0 C1.2065625 0.0309375 1.2065625 0.0309375 2.4375 0.0625 C3.36815133 2.66832371 3.58667407 3.70448224 2.5 6.3125 C2.149375 6.89 1.79875 7.4675 1.4375 8.0625 C0.4475 8.0625 -0.5425 8.0625 -1.5625 8.0625 C-3.0432848 11.0240696 -2.91564037 13.89756295 -3.125 17.1875 C-3.20878906 18.46882813 -3.29257813 19.75015625 -3.37890625 21.0703125 C-3.43949219 22.05773437 -3.50007812 23.04515625 -3.5625 24.0625 C-6.2025 24.0625 -8.8425 24.0625 -11.5625 24.0625 C-11.5625 16.4725 -11.5625 8.8825 -11.5625 1.0625 C-8.9225 1.0625 -6.2825 1.0625 -3.5625 1.0625 C-2.5625 0.0625 -2.5625 0.0625 0 0 Z " fill="#9CA09E" transform="translate(240.5625,14.9375)"/>
<path d="M0 0 C2.64 0 5.28 0 8 0 C8 7.59 8 15.18 8 23 C5.36 23 2.72 23 0 23 C0 15.41 0 7.82 0 0 Z " fill="#9CA09E" transform="translate(245,16)"/>
<path d="M0 0 C2.64 0 5.28 0 8 0 C8 7.59 8 15.18 8 23 C5.36 23 2.72 23 0 23 C0 15.41 0 7.82 0 0 Z " fill="#9CA09E" transform="translate(217,16)"/>
<path d="M0 0 C2.64 0 5.28 0 8 0 C8 1.98 8 3.96 8 6 C5.36 6 2.72 6 0 6 C0 4.02 0 2.04 0 0 Z " fill="#9CA09E" transform="translate(245,7)"/>
<path d="M0 0 C2.64 0 5.28 0 8 0 C8 1.98 8 3.96 8 6 C5.36 6 2.72 6 0 6 C0 4.02 0 2.04 0 0 Z " fill="#9CA09E" transform="translate(217,7)"/>
</svg>
