<?xml version="1.0" encoding="UTF-8"?>
<svg version="1.1" xmlns="http://www.w3.org/2000/svg" width="258" height="43">
<path d="M0 0 C1.98 0 3.96 0 6 0 C5.814375 0.94875 5.62875 1.8975 5.4375 2.875 C4.71313368 5.89868793 4.71313368 5.89868793 6 8 C6.66 7.34 7.32 6.68 8 6 C10.5 5.6875 10.5 5.6875 13 6 C13.99 7.485 13.99 7.485 15 9 C15.33 8.01 15.66 7.02 16 6 C23.59 6 31.18 6 39 6 C40.65497356 9.30994713 40.10084335 12.99123 40.0625 16.625 C40.05798828 17.42679688 40.05347656 18.22859375 40.04882812 19.0546875 C40.03703168 21.03649006 40.01909605 23.01825433 40 25 C38.68 25 37.36 25 36 25 C35.505 19.06 35.505 19.06 35 13 C34.67 16.96 34.34 20.92 34 25 C30.7 25 27.4 25 24 25 C23.67 20.71 23.34 16.42 23 12 C20.89172945 15.16240582 20.66182535 16.50657469 20.375 20.1875 C20.30023438 21.08855469 20.22546875 21.98960938 20.1484375 22.91796875 C20.09945312 23.60503906 20.05046875 24.29210937 20 25 C18.68 25 17.36 25 16 25 C15.67 24.01 15.34 23.02 15 22 C14.34 22.99 13.68 23.98 13 25 C10.5625 25.4375 10.5625 25.4375 8 25 C5.86534009 22.79958043 5.05579238 21.49097299 4.70703125 18.421875 C4.74183594 17.54015625 4.77664062 16.6584375 4.8125 15.75 C4.83957031 14.85796875 4.86664063 13.9659375 4.89453125 13.046875 C4.92933594 12.37140625 4.96414062 11.6959375 5 11 C4.34 11 3.68 11 3 11 C3 15.62 3 20.24 3 25 C0.03 25 -2.94 25 -6 25 C-6.33 21.04 -6.66 17.08 -7 13 C-7.33 16.96 -7.66 20.92 -8 25 C-9.32 25 -10.64 25 -12 25 C-12 18.73 -12 12.46 -12 6 C-8.66666667 6 -5.33333333 6 -2 6 C-1.34 4.02 -0.68 2.04 0 0 Z M9 12 C9 14.31 9 16.62 9 19 C9.66 19 10.32 19 11 19 C11 16.69 11 14.38 11 12 C10.34 12 9.68 12 9 12 Z " fill="#9CA09E" transform="translate(104,7)"/>
<path d="M0 0 C1.65 0 3.3 0 5 0 C5.99 4.62 6.98 9.24 8 14 C8.33 9.38 8.66 4.76 9 0 C10.65 0 12.3 0 14 0 C14.495 7.92 14.495 7.92 15 16 C16.32 15.01 17.64 14.02 19 13 C17.68 13 16.36 13 15 13 C14.875 10.625 14.875 10.625 15 8 C17 6 17 6 20 5.6875 C20.99 5.790625 21.98 5.89375 23 6 C25.52775351 9.79163027 25.22443035 12.80874031 25.125 17.1875 C25.11597656 17.93708984 25.10695313 18.68667969 25.09765625 19.45898438 C25.07412578 21.30612654 25.03825561 23.15310412 25 25 C18.33333333 25 11.66666667 25 5 25 C4.67 23.68 4.34 22.36 4 21 C3.01 21.33 2.02 21.66 1 22 C0.67 22.99 0.34 23.98 0 25 C-1.65 25 -3.3 25 -5 25 C-4.35929989 21.20744718 -3.71157345 17.416128 -3.0625 13.625 C-2.88009766 12.54476563 -2.69769531 11.46453125 -2.50976562 10.3515625 C-2.33251953 9.3203125 -2.15527344 8.2890625 -1.97265625 7.2265625 C-1.81031494 6.27346191 -1.64797363 5.32036133 -1.48071289 4.33837891 C-1 2 -1 2 0 0 Z M2 10 C2 11.65 2 13.3 2 15 C2.33 15 2.66 15 3 15 C3 13.35 3 11.7 3 10 C2.67 10 2.34 10 2 10 Z M19 18 C19.33 18.66 19.66 19.32 20 20 C20.33 19.34 20.66 18.68 21 18 C20.34 18 19.68 18 19 18 Z " fill="#9CA09E" transform="translate(37,7)"/>
<path d="M0 0 C1.32 0 2.64 0 4 0 C4.33 2.31 4.66 4.62 5 7 C5.33 6.67 5.66 6.34 6 6 C8.35313555 5.92728259 10.70833668 5.91629132 13.0625 5.9375 C14.35285156 5.94652344 15.64320313 5.95554687 16.97265625 5.96484375 C17.97167969 5.97644531 18.97070312 5.98804688 20 6 C21.65497356 9.30994713 21.10084335 12.99123 21.0625 16.625 C21.05798828 17.42679688 21.05347656 18.22859375 21.04882812 19.0546875 C21.03703168 21.03649006 21.01909605 23.01825433 21 25 C19.68 25 18.36 25 17 25 C17 20.71 17 16.42 17 12 C16.34 12 15.68 12 15 12 C15 16.29 15 20.58 15 25 C12.03 25 9.06 25 6 25 C5.67 24.01 5.34 23.02 5 22 C4.67 22.99 4.34 23.98 4 25 C2.68 25 1.36 25 0 25 C0 16.75 0 8.5 0 0 Z M10 7 C7.5946081 10.39584739 7.99578492 13.08590998 8.515625 17 C9.02206313 19.417652 9.02206313 19.417652 11 23 C11 17.72 11 12.44 11 7 C10.67 7 10.34 7 10 7 Z " fill="#9CA09E" transform="translate(200,7)"/>
<path d="M0 0 C7.66666667 0 15.33333333 0 23 0 C23 1.98 23 3.96 23 6 C21.68 6 20.36 6 19 6 C19 12.27 19 18.54 19 25 C17.68 25 16.36 25 15 25 C15 18.73 15 12.46 15 6 C13.68 6 12.36 6 11 6 C11.04125 7.0725 11.0825 8.145 11.125 9.25 C11.0114175 12.65747485 10.78726636 14.20739631 9 17 C7.35 17 5.7 17 4 17 C4 19.64 4 22.28 4 25 C2.68 25 1.36 25 0 25 C0 16.75 0 8.5 0 0 Z M4 6 C4 7.65 4 9.3 4 11 C4.66 11 5.32 11 6 11 C6 9.35 6 7.7 6 6 C5.34 6 4.68 6 4 6 Z " fill="#9CA09E" transform="translate(1,7)"/>
<path d="M0 0 C1.32 0 2.64 0 4 0 C4 8.25 4 16.5 4 25 C2.68 25 1.36 25 0 25 C-0.33 24.01 -0.66 23.02 -1 22 C-1.66 22.99 -2.32 23.98 -3 25 C-5.4375 25.4375 -5.4375 25.4375 -8 25 C-10.96165319 21.95352619 -11.40947667 19.68316924 -11.375 15.5 C-11.38273438 14.5615625 -11.39046875 13.623125 -11.3984375 12.65625 C-10.9389873 9.59324868 -10.14569238 8.20714419 -8 6 C-5.4375 5.5625 -5.4375 5.5625 -3 6 C-2.01 7.485 -2.01 7.485 -1 9 C-0.67 6.03 -0.34 3.06 0 0 Z M-7 12 C-7 14.31 -7 16.62 -7 19 C-6.34 19 -5.68 19 -5 19 C-5 16.69 -5 14.38 -5 12 C-5.66 12 -6.32 12 -7 12 Z " fill="#9CA09E" transform="translate(233,7)"/>
<path d="M0 0 C4.62 0 9.24 0 14 0 C16.12401038 4.24802077 16.2376107 7.16761063 16.125 11.75 C16.11597656 12.44738281 16.10695313 13.14476562 16.09765625 13.86328125 C16.07419888 15.57566958 16.03833104 17.28788004 16 19 C12.7 19 9.4 19 6 19 C6 14.71 6 10.42 6 6 C5.34 6 4.68 6 4 6 C4 10.29 4 14.58 4 19 C2.68 19 1.36 19 0 19 C0 12.73 0 6.46 0 0 Z " fill="#9CA09E" transform="translate(63,13)"/>
<path d="M0 0 C2.97 0 5.94 0 9 0 C9.08107913 3.39631472 9.14053944 6.79068616 9.1875 10.1875 C9.22520508 11.62706055 9.22520508 11.62706055 9.26367188 13.09570312 C9.3595235 22.32940951 9.3595235 22.32940951 6 26 C2.8125 26.3125 2.8125 26.3125 0 26 C-1.4606285 23.35261084 -2 22.10551666 -2 19 C-0.35 19.33 1.3 19.66 3 20 C3.33 19.34 3.66 18.68 4 18 C2.68 18 1.36 18 0 18 C-2.33028534 13.48507216 -2.60587815 8.98067476 -2 4 C-1.34 2.68 -0.68 1.36 0 0 Z M3 5 C2.32198966 7.90073181 2.32198966 7.90073181 2 11 C2.66 11.66 3.32 12.32 4 13 C4.93065133 10.39417629 5.14917407 9.35801776 4.0625 6.75 C3.711875 6.1725 3.36125 5.595 3 5 Z " fill="#9CA09E" transform="translate(240,13)"/>
<path d="M0 0 C3 -0.1875 3 -0.1875 6 0 C6.66 0 7.32 0 8 0 C9.65 0 11.3 0 13 0 C13 6.27 13 12.54 13 19 C10.66666667 19 8.33333333 19 6 19 C5.01 19.04125 4.02 19.0825 3 19.125 C0 19 0 19 -2 17 C-1.625 14.875 -1.625 14.875 -1 13 C0.65 13.33 2.3 13.66 4 14 C4 13.34 4 12.68 4 12 C3.38125 11.87625 2.7625 11.7525 2.125 11.625 C0 11 0 11 -2 9 C-2.34490322 4.94738713 -2.30163882 3.45245824 0 0 Z M2 4 C2.33 4.99 2.66 5.98 3 7 C3.99 7.33 4.98 7.66 6 8 C6.66 8.66 7.32 9.32 8 10 C8 8.35 8 6.7 8 5 C5.03 4.505 5.03 4.505 2 4 Z " fill="#9CA09E" transform="translate(158,13)"/>
<path d="M0 0 C3.0625 0.1875 3.0625 0.1875 5.0625 2.1875 C5.36925232 5.08717757 5.57423371 7.90533178 5.6875 10.8125 C5.72617188 11.61429688 5.76484375 12.41609375 5.8046875 13.2421875 C5.89903931 15.22357556 5.98186215 17.20550645 6.0625 19.1875 C4.41675434 19.21438151 2.77088587 19.23384123 1.125 19.25 C0.20847656 19.26160156 -0.70804688 19.27320312 -1.65234375 19.28515625 C-3.9375 19.1875 -3.9375 19.1875 -4.9375 18.1875 C-5.36150881 12.92979075 -5.36150881 12.92979075 -4.9375 10.1875 C-2.9375 8.1875 -2.9375 8.1875 -0.9375 7.1875 C-2.2575 6.8575 -3.5775 6.5275 -4.9375 6.1875 C-3.87127483 0.24710265 -3.87127483 0.24710265 0 0 Z M-0.9375 12.1875 C-0.6075 12.8475 -0.2775 13.5075 0.0625 14.1875 C0.3925 13.5275 0.7225 12.8675 1.0625 12.1875 C0.4025 12.1875 -0.2575 12.1875 -0.9375 12.1875 Z " fill="#9CA09E" transform="translate(149.9375,12.8125)"/>
<path d="M0 0 C1.4540625 0.0309375 1.4540625 0.0309375 2.9375 0.0625 C5.26340854 3.69673209 5.10015833 6.83338331 4.9375 11.0625 C2.9575 11.3925 0.9775 11.7225 -1.0625 12.0625 C0.00395115 13.35883621 0.00395115 13.35883621 2.5 13.125 C3.304375 13.104375 4.10875 13.08375 4.9375 13.0625 C4.2775 15.0425 3.6175 17.0225 2.9375 19.0625 C0.125 19.375 0.125 19.375 -3.0625 19.0625 C-5.69005954 16.25976983 -6.25502884 13.7886632 -6.375 10.0625 C-6.18570317 5.05559886 -5.66431024 0.11559817 0 0 Z M-1.0625 5.0625 C-1.0625 5.7225 -1.0625 6.3825 -1.0625 7.0625 C-0.4025 6.7325 0.2575 6.4025 0.9375 6.0625 C0.2775 5.7325 -0.3825 5.4025 -1.0625 5.0625 Z " fill="#9CA09E" transform="translate(194.0625,12.9375)"/>
<path d="M0 0 C3.96 0 7.92 0 12 0 C12 1.98 12 3.96 12 6 C10.68 6 9.36 6 8 6 C8 12.27 8 18.54 8 25 C6.68 25 5.36 25 4 25 C4 18.73 4 12.46 4 6 C2.68 6 1.36 6 0 6 C0 4.02 0 2.04 0 0 Z " fill="#9CA09E" transform="translate(177,7)"/>
<path d="M0 0 C1.65 0 3.3 0 5 0 C5 8.25 5 16.5 5 25 C3.35 25 1.7 25 0 25 C0 16.75 0 8.5 0 0 Z " fill="#9CA09E" transform="translate(85,7)"/>
<path d="M0 0 C1.32 0 2.64 0 4 0 C4 6.27 4 12.54 4 19 C2.68 19 1.36 19 0 19 C0 12.73 0 6.46 0 0 Z " fill="#9CA09E" transform="translate(250,13)"/>
<path d="M0 0 C1.65 0 3.3 0 5 0 C5 2.31 5 4.62 5 7 C3.35 7 1.7 7 0 7 C0 4.69 0 2.38 0 0 Z " fill="#9CA09E" transform="translate(22,25)"/>
<path d="M0 0 C1.65 0 3.3 0 5 0 C5 1.32 5 2.64 5 4 C3.35 4 1.7 4 0 4 C0 2.68 0 1.36 0 0 Z " fill="#9CA09E" transform="translate(166,7)"/>
<path d="M0 0 C1.32 0 2.64 0 4 0 C4 1.32 4 2.64 4 4 C2.68 4 1.36 4 0 4 C0 2.68 0 1.36 0 0 Z " fill="#9CA09E" transform="translate(250,7)"/>
</svg>
