<?xml version="1.0" encoding="UTF-8"?>
<svg version="1.1" xmlns="http://www.w3.org/2000/svg" width="258" height="43">
<path d="M0 0 C2.866875 -0.103125 5.73375 -0.20625 8.6875 -0.3125 C10.02880981 -0.38078003 10.02880981 -0.38078003 11.3972168 -0.45043945 C15.73726539 -0.52588047 17.46756737 -0.41804281 21 2.35546875 C25.48873389 8.29076728 25.83782804 14.77628751 25 22 C23.84229083 25.6939277 22.54486133 28.82999473 19.40625 31.20703125 C15.70964129 32.42523185 12.11086914 32.20759716 8.25 32.125 C4.16625 32.063125 4.16625 32.063125 0 32 C0 21.44 0 10.88 0 0 Z M9 7 C9 12.94 9 18.88 9 25 C10.65 24.67 12.3 24.34 14 24 C16.81763156 19.77355266 16.67441907 15.96469944 16 11 C14.39294394 8.30357301 14.39294394 8.30357301 12 7 C11.01 7 10.02 7 9 7 Z " fill="#9CA09E" transform="translate(2,7)"/>
<path d="M0 0 C2.64 0 5.28 0 8 0 C8.33 2.64 8.66 5.28 9 8 C10.60875 7.87625 10.60875 7.87625 12.25 7.75 C16 8 16 8 18.375 9.875 C22.100931 14.74737131 21.44828495 20.07181802 21 26 C18.9375 31.53125 18.9375 31.53125 16 33 C9.46666667 33.23333333 9.46666667 33.23333333 7 32 C4.69 32 2.38 32 0 32 C0 21.44 0 10.88 0 0 Z M10 14 C7.57477793 16.42522207 7.70370746 17.1720679 7.6875 20.5 C7.67074219 21.2940625 7.65398437 22.088125 7.63671875 22.90625 C7.75660156 23.5971875 7.87648438 24.288125 8 25 C9.485 25.99 9.485 25.99 11 27 C13.42522207 24.57477793 13.29629254 23.8279321 13.3125 20.5 C13.32925781 19.7059375 13.34601563 18.911875 13.36328125 18.09375 C13.24339844 17.4028125 13.12351562 16.711875 13 16 C12.01 15.34 11.02 14.68 10 14 Z " fill="#9CA09E" transform="translate(111,7)"/>
<path d="M0 0 C2.64 0 5.28 0 8 0 C8.33 2.97 8.66 5.94 9 9 C9.33 8.67 9.66 8.34 10 8 C13.375 7.6875 13.375 7.6875 17 8 C19.04410492 10.06017263 19.91179699 11.4069217 20.34057617 14.29003906 C20.32486572 15.10698242 20.30915527 15.92392578 20.29296875 16.765625 C20.28330078 17.65507812 20.27363281 18.54453125 20.26367188 19.4609375 C20.23853516 20.38132812 20.21339844 21.30171875 20.1875 22.25 C20.16719727 23.65378906 20.16719727 23.65378906 20.14648438 25.0859375 C20.11119954 27.39121327 20.06190281 29.6953106 20 32 C17.36 32 14.72 32 12 32 C11.67 26.72 11.34 21.44 11 16 C10.34 16.33 9.68 16.66 9 17 C8.68758629 19.54941373 8.48696579 22.00361513 8.375 24.5625 C8.31699219 25.62887695 8.31699219 25.62887695 8.2578125 26.71679688 C8.16328217 28.47742425 8.08054183 30.23867728 8 32 C5.36 32 2.72 32 0 32 C0 21.44 0 10.88 0 0 Z " fill="#9CA09E" transform="translate(63,7)"/>
<path d="M0 0 C2.64 0 5.28 0 8 0 C8.33 5.28 8.66 10.56 9 16 C9.66 15.67 10.32 15.34 11 15 C11.31241371 12.45058627 11.51303421 9.99638487 11.625 7.4375 C11.68300781 6.37112305 11.68300781 6.37112305 11.7421875 5.28320312 C11.83671783 3.52257575 11.91945817 1.76132272 12 0 C14.64 0 17.28 0 20 0 C20 7.59 20 15.18 20 23 C17 23 14 23 11 23 C10.67 23.33 10.34 23.66 10 24 C3.66262607 24.46943511 3.66262607 24.46943511 1.29174805 22.78979492 C-0.40844088 20.43408049 -0.34545931 19.00026207 -0.29296875 16.11328125 C-0.28330078 15.17548828 -0.27363281 14.23769531 -0.26367188 13.27148438 C-0.23853516 12.29501953 -0.21339844 11.31855469 -0.1875 10.3125 C-0.17396484 9.32443359 -0.16042969 8.33636719 -0.14648438 7.31835938 C-0.11112203 4.87835769 -0.06177033 2.43945281 0 0 Z " fill="#9CA09E" transform="translate(87,16)"/>
<path d="M0 0 C0.845625 -0.00773438 1.69125 -0.01546875 2.5625 -0.0234375 C5.43365432 0.4458858 6.83441027 1.48010899 9 3.375 C8.67 4.695 8.34 6.015 8 7.375 C4.65747276 7.44927838 2.1964086 7.44046953 -1 6.375 C-1.33 7.035 -1.66 7.695 -2 8.375 C-1.07767578 8.53935547 -1.07767578 8.53935547 -0.13671875 8.70703125 C0.67152344 8.86558594 1.47976562 9.02414063 2.3125 9.1875 C3.11300781 9.33832031 3.91351563 9.48914062 4.73828125 9.64453125 C7.29605094 10.47061576 8.38619973 11.24193277 10 13.375 C10.62564474 17.59810199 10.44197752 19.6586916 8.1875 23.3125 C3.55969687 26.30696085 -0.6309576 26.28500719 -6 25.375 C-9.16620095 23.18881363 -9.7896387 22.00608389 -11 18.375 C-8.04335481 16.8966774 -5.25770263 17.31467217 -2 17.375 C-1.67 18.035 -1.34 18.695 -1 19.375 C-0.01 19.045 0.98 18.715 2 18.375 C1.46375 18.106875 0.9275 17.83875 0.375 17.5625 C-0.40875 17.170625 -1.1925 16.77875 -2 16.375 C-3.546875 15.6634375 -3.546875 15.6634375 -5.125 14.9375 C-8 13.375 -8 13.375 -10 10.375 C-9.77700348 4.13109756 -9.77700348 4.13109756 -7.2578125 1.6796875 C-4.62150068 0.1562824 -3.02632142 -0.02767977 0 0 Z " fill="#9CA09E" transform="translate(50,14.625)"/>
<path d="M0 0 C2.64 0 5.28 0 8 0 C8 7.59 8 15.18 8 23 C5.36 23 2.72 23 0 23 C0 15.41 0 7.82 0 0 Z " fill="#9CA09E" transform="translate(30,16)"/>
<path d="M0 0 C2.64 0 5.28 0 8 0 C8 1.98 8 3.96 8 6 C5.36 6 2.72 6 0 6 C0 4.02 0 2.04 0 0 Z " fill="#9CA09E" transform="translate(30,7)"/>
</svg>
