<?xml version="1.0" encoding="UTF-8"?>
<svg version="1.1" xmlns="http://www.w3.org/2000/svg" width="258" height="43">
<path d="M0 0 C2.375 -0.1875 2.375 -0.1875 5 0 C5.66 0.99 6.32 1.98 7 3 C7.33 2.01 7.66 1.02 8 0 C9.66611905 -0.042721 11.33382885 -0.04063832 13 0 C13.33 0.33 13.66 0.66 14 1 C14.33 0.67 14.66 0.34 15 0 C17.33297433 -0.04092937 19.66705225 -0.04241723 22 0 C24.56780471 3.8415976 24.22688882 7.8139175 24.125 12.25 C24.11597656 12.99507812 24.10695312 13.74015625 24.09765625 14.5078125 C24.07418358 16.33868059 24.03831525 18.16938238 24 20 C22.37536158 20.05395478 20.75021459 20.09277195 19.125 20.125 C17.76761719 20.15980469 17.76761719 20.15980469 16.3828125 20.1953125 C14 20 14 20 12 18 C11.5 14.625 11.5 14.625 12 11 C15 8.5625 15 8.5625 18 7 C17.67 7 17.34 7 17 7 C14.99890722 6.67329097 12.99883869 6.34022786 11 6 C10.96261719 6.67804687 10.92523438 7.35609375 10.88671875 8.0546875 C10.41514671 14.73066814 9.18078865 20.67708447 7 27 C5.02 27 3.04 27 1 27 C1 25.02 1 23.04 1 21 C1.66 21 2.32 21 3 21 C2.29411026 13.94110263 1.21786614 6.98795036 0 0 Z M17 12 C17.33 12.99 17.66 13.98 18 15 C18.33 14.01 18.66 13.02 19 12 C18.34 12 17.68 12 17 12 Z " fill="#9CA09E" transform="translate(227,14)"/>
<path d="M0 0 C1.98 0 3.96 0 6 0 C6.66 2.31 7.32 4.62 8 7 C8.33 4.69 8.66 2.38 9 0 C11.31 0 13.62 0 16 0 C16 8.91 16 17.82 16 27 C14.68 27 13.36 27 12 27 C11.67 25.35 11.34 23.7 11 22 C10.67 23.65 10.34 25.3 10 27 C9.278125 26.814375 8.55625 26.62875 7.8125 26.4375 C4.62543759 25.77633914 4.62543759 25.77633914 0 27 C0 18.09 0 9.18 0 0 Z " fill="#9CA09E" transform="translate(50,7)"/>
<path d="M0 0 C1.65 0 3.3 0 5 0 C5.33 5.61 5.66 11.22 6 17 C7.32 16.01 8.64 15.02 10 14 C8.68 14 7.36 14 6 14 C5.875 11.625 5.875 11.625 6 9 C8 7 8 7 11.5 6.6875 C12.655 6.790625 13.81 6.89375 15 7 C17.03120707 10.04681061 17.24659875 10.60118324 17.1953125 14.01171875 C17.18886719 14.76904297 17.18242187 15.52636719 17.17578125 16.30664062 C17.15902344 17.09232422 17.14226562 17.87800781 17.125 18.6875 C17.11597656 19.48478516 17.10695312 20.28207031 17.09765625 21.10351562 C17.07411585 23.069139 17.03824547 25.03460775 17 27 C15.39667209 27.08121924 13.79215974 27.13929134 12.1875 27.1875 C10.84751953 27.23970703 10.84751953 27.23970703 9.48046875 27.29296875 C6.58352485 26.95081002 5.77444972 26.24606427 4 24 C3.34 24.99 2.68 25.98 2 27 C-0.9375 27.4375 -0.9375 27.4375 -4 27 C-6.467339 24.7793949 -6.96152446 23.56430797 -7.1875 20.25 C-7.125625 19.5075 -7.06375 18.765 -7 18 C-5.34385343 17.61781233 -3.67542976 17.28604898 -2 17 C-1.67 17.33 -1.34 17.66 -1 18 C-0.505 9.09 -0.505 9.09 0 0 Z M11 19 C11 22 11 22 11 22 Z " fill="#9CA09E" transform="translate(210,7)"/>
<path d="M0 0 C3 0.5625 3 0.5625 4.875 3.0625 C5.24625 3.8875 5.6175 4.7125 6 5.5625 C6.37125 4.7375 6.7425 3.9125 7.125 3.0625 C9 0.5625 9 0.5625 12 0 C15 0.5625 15 0.5625 16.6640625 2.22265625 C18.34757032 5.1712562 18.40035426 7.18193219 18.375 10.5625 C18.38273437 11.59375 18.39046875 12.625 18.3984375 13.6875 C17.95332807 16.89927003 17.2840595 18.28916379 15 20.5625 C12 21.0625 12 21.0625 9 20.5625 C7.125 18.5625 7.125 18.5625 6 16.5625 C5.62875 17.2225 5.2575 17.8825 4.875 18.5625 C3 20.5625 3 20.5625 0 21.0625 C-3 20.5625 -3 20.5625 -4.6640625 18.90625 C-6.3460563 15.95538368 -6.400364 13.944367 -6.375 10.5625 C-6.38273437 9.53125 -6.39046875 8.5 -6.3984375 7.4375 C-5.77748589 2.95690796 -4.51360632 0.84630119 0 0 Z M12 5.5625 C10.79438816 6.54517859 10.79438816 6.54517859 10.90234375 8.41015625 C10.91394531 9.14105469 10.92554687 9.87195313 10.9375 10.625 C10.958125 11.924375 10.97875 13.22375 11 14.5625 C11.99 15.0575 11.99 15.0575 13 15.5625 C14.38125018 12.79999964 14.19079306 10.61518901 14 7.5625 C13.34 6.9025 12.68 6.2425 12 5.5625 Z M-1 6.5625 C-2.01540112 10.66473585 -2.01540112 10.66473585 -1 14.5625 C-0.34 14.5625 0.32 14.5625 1 14.5625 C1 13.9025 1 13.2425 1 12.5625 C2.65 12.8925 4.3 13.2225 6 13.5625 C6 11.5825 6 9.6025 6 7.5625 C4.35 7.8925 2.7 8.2225 1 8.5625 C1 7.9025 1 7.2425 1 6.5625 C0.34 6.5625 -0.32 6.5625 -1 6.5625 Z " fill="#9CA09E" transform="translate(106,13.4375)"/>
<path d="M0 0 C3.3 0 6.6 0 10 0 C12.30821663 3.46232494 12.27000989 4.91798316 12.25 9 C12.25515625 10.051875 12.2603125 11.10375 12.265625 12.1875 C12 15 12 15 10 18 C7.375 18.1875 7.375 18.1875 5 18 C5 20.97 5 23.94 5 27 C3.35 27 1.7 27 0 27 C0 18.09 0 9.18 0 0 Z M5 6 C5 7.98 5 9.96 5 12 C5.66 11.67 6.32 11.34 7 11 C6.67 9.35 6.34 7.7 6 6 C5.67 6 5.34 6 5 6 Z " fill="#9CA09E" transform="translate(13,7)"/>
<path d="M0 0 C1.65 0 3.3 0 5 0 C5 8.91 5 17.82 5 27 C2.03 27 -0.94 27 -4 27 C-7.06211867 23.93788133 -7.16240112 20.77454595 -7.25 16.5625 C-7.19793645 12.61868636 -6.73386034 10.02677395 -4 7 C-2.68 7 -1.36 7 0 7 C0 4.69 0 2.38 0 0 Z M-2 13 C-2 15.64 -2 18.28 -2 21 C-1.34 21 -0.68 21 0 21 C0 18.36 0 15.72 0 13 C-0.66 13 -1.32 13 -2 13 Z " fill="#9CA09E" transform="translate(170,7)"/>
<path d="M0 0 C3.5625 0.1875 3.5625 0.1875 5.5625 2.1875 C5.88134766 4.06689453 5.88134766 4.06689453 5.9765625 6.3203125 C6.01523438 7.12597656 6.05390625 7.93164062 6.09375 8.76171875 C6.1246875 9.60347656 6.155625 10.44523437 6.1875 11.3125 C6.22617188 12.16199219 6.26484375 13.01148438 6.3046875 13.88671875 C6.39906494 15.98661684 6.48187586 18.08702891 6.5625 20.1875 C2.9325 20.1875 -0.6975 20.1875 -4.4375 20.1875 C-6.63659502 14.93410633 -6.63659502 14.93410633 -5.6875 11.375 C-4.4375 9.1875 -4.4375 9.1875 -2.4375 8.1875 C-3.4275 7.5275 -4.4175 6.8675 -5.4375 6.1875 C-4.36970339 0.23834746 -4.36970339 0.23834746 0 0 Z M-0.4375 5.1875 C-0.4375 5.8475 -0.4375 6.5075 -0.4375 7.1875 C0.2225 6.8575 0.8825 6.5275 1.5625 6.1875 C0.9025 5.8575 0.2425 5.5275 -0.4375 5.1875 Z M-0.4375 12.1875 C-0.7675 12.8475 -1.0975 13.5075 -1.4375 14.1875 C-0.4475 13.8575 0.5425 13.5275 1.5625 13.1875 C0.9025 12.8575 0.2425 12.5275 -0.4375 12.1875 Z " fill="#9CA09E" transform="translate(190.4375,13.8125)"/>
<path d="M0 0 C3.3 0 6.6 0 10 0 C11 1 11 1 11.11352539 2.85766602 C11.10828857 3.64842529 11.10305176 4.43918457 11.09765625 5.25390625 C11.09443359 6.10791016 11.09121094 6.96191406 11.08789062 7.84179688 C11.07951172 8.73962891 11.07113281 9.63746094 11.0625 10.5625 C11.05798828 11.46419922 11.05347656 12.36589844 11.04882812 13.29492188 C11.03700225 15.53001314 11.0205222 17.76497437 11 20 C9.68 20 8.36 20 7 20 C7 15.71 7 11.42 7 7 C6.34 7 5.68 7 5 7 C5 11.29 5 15.58 5 20 C3.35 20 1.7 20 0 20 C0 13.4 0 6.8 0 0 Z " fill="#9CA09E" transform="translate(151,14)"/>
<path d="M0 0 C3.3 0 6.6 0 10 0 C11 1 11 1 11.11352539 2.85766602 C11.10828857 3.64842529 11.10305176 4.43918457 11.09765625 5.25390625 C11.09443359 6.10791016 11.09121094 6.96191406 11.08789062 7.84179688 C11.07951172 8.73962891 11.07113281 9.63746094 11.0625 10.5625 C11.05798828 11.46419922 11.05347656 12.36589844 11.04882812 13.29492188 C11.03700225 15.53001314 11.0205222 17.76497437 11 20 C9.68 20 8.36 20 7 20 C7 15.71 7 11.42 7 7 C6.34 7 5.68 7 5 7 C5 11.29 5 15.58 5 20 C3.35 20 1.7 20 0 20 C0 13.4 0 6.8 0 0 Z " fill="#9CA09E" transform="translate(125,14)"/>
<path d="M0 0 C1.65 0 3.3 0 5 0 C5.33 3.3 5.66 6.6 6 10 C6.33 6.7 6.66 3.4 7 0 C8.32 0 9.64 0 11 0 C11 6.6 11 13.2 11 20 C8.03 20 5.06 20 2 20 C0 18 0 18 -0.22705078 16.12060547 C-0.21657715 15.37697754 -0.20610352 14.63334961 -0.1953125 13.8671875 C-0.18886719 13.06152344 -0.18242188 12.25585938 -0.17578125 11.42578125 C-0.15064453 10.16314453 -0.15064453 10.16314453 -0.125 8.875 C-0.11597656 8.02550781 -0.10695313 7.17601562 -0.09765625 6.30078125 C-0.07405647 4.20040116 -0.03818483 2.10016556 0 0 Z " fill="#9CA09E" transform="translate(67,14)"/>
<path d="M0 0 C4.29 0 8.58 0 13 0 C13 1.98 13 3.96 13 6 C11.68 6 10.36 6 9 6 C9 12.93 9 19.86 9 27 C7.35 27 5.7 27 4 27 C4 20.07 4 13.14 4 6 C2.68 6 1.36 6 0 6 C0 4.02 0 2.04 0 0 Z " fill="#9CA09E" transform="translate(26,7)"/>
<path d="M0 0 C0.66 0 1.32 0 2 0 C2 2.31 2 4.62 2 7 C2.66 7 3.32 7 4 7 C4 8.65 4 10.3 4 12 C3.34 12 2.68 12 2 12 C2.33 14.97 2.66 17.94 3 21 C3.33 21 3.66 21 4 21 C4 22.98 4 24.96 4 27 C2.35 27 0.7 27 -1 27 C-2.95855229 22.8260361 -3.43832439 19.08346484 -3.75 14.5 C-3.84796875 13.2109375 -3.9459375 11.921875 -4.046875 10.59375 C-3.98679558 5.98766087 -3.26498338 3.26498338 0 0 Z " fill="#9CA09E" transform="translate(89,7)"/>
<path d="M0 0 C1.65 0 3.3 0 5 0 C5 8.91 5 17.82 5 27 C3.35 27 1.7 27 0 27 C0 18.09 0 9.18 0 0 Z " fill="#9CA09E" transform="translate(144,7)"/>
<path d="M0 0 C2.97 0 5.94 0 9 0 C8.67 2.31 8.34 4.62 8 7 C7.01 7 6.02 7 5 7 C5 11.29 5 15.58 5 20 C3.35 20 1.7 20 0 20 C0 13.4 0 6.8 0 0 Z " fill="#9CA09E" transform="translate(176,14)"/>
<path d="M0 0 C1.32 0 2.64 0 4 0 C4 8.91 4 17.82 4 27 C2.68 27 1.36 27 0 27 C0 18.09 0 9.18 0 0 Z " fill="#9CA09E" transform="translate(80,7)"/>
<path d="M0 0 C1.65 0 3.3 0 5 0 C5 6.6 5 13.2 5 20 C3.35 20 1.7 20 0 20 C0 13.4 0 6.8 0 0 Z " fill="#9CA09E" transform="translate(94,14)"/>
<path d="M0 0 C1.65 0 3.3 0 5 0 C5 2.31 5 4.62 5 7 C3.35 7 1.7 7 0 7 C0 4.69 0 2.38 0 0 Z " fill="#9CA09E" transform="translate(37,27)"/>
<path d="M0 0 C1.65 0 3.3 0 5 0 C5 1.65 5 3.3 5 5 C3.35 5 1.7 5 0 5 C0 3.35 0 1.7 0 0 Z " fill="#9CA09E" transform="translate(94,7)"/>
</svg>
