<?xml version="1.0" encoding="UTF-8"?>
<svg version="1.1" xmlns="http://www.w3.org/2000/svg" width="258" height="43">
<path d="M0 0 C1.98 0 3.96 0 6 0 C6.33 2.31 6.66 4.62 7 7 C7.33 4.69 7.66 2.38 8 0 C9.98 0 11.96 0 14 0 C14 8.25 14 16.5 14 25 C9.38 25 4.76 25 0 25 C0 16.75 0 8.5 0 0 Z " fill="#9CA09E" transform="translate(1,7)"/>
<path d="M0 0 C3.3 0 6.6 0 10 0 C12 2 12 2 12.23046875 4.27734375 C12.20919922 5.59412109 12.20919922 5.59412109 12.1875 6.9375 C12.17783203 8.25041016 12.17783203 8.25041016 12.16796875 9.58984375 C12 12 12 12 11 15 C11.31260159 17.53076813 11.31260159 17.53076813 11.9375 20.1875 C12.22947266 21.53908203 12.22947266 21.53908203 12.52734375 22.91796875 C12.68332031 23.60503906 12.83929688 24.29210937 13 25 C11.35 25 9.7 25 8 25 C7.34 23.02 6.68 21.04 6 19 C5.67 20.98 5.34 22.96 5 25 C3.35 25 1.7 25 0 25 C0 16.75 0 8.5 0 0 Z M5 6 C5 6.99 5 7.98 5 9 C5.66 9 6.32 9 7 9 C7 8.01 7 7.02 7 6 C6.34 6 5.68 6 5 6 Z " fill="#9CA09E" transform="translate(176,7)"/>
<path d="M0 0 C3.3 0 6.6 0 10 0 C11 1 11 1 11.0625 3.21484375 C11.02089308 5.02734512 10.97922659 6.83984513 10.9375 8.65234375 C10.83487207 11.02245407 10.83487207 11.02245407 12 13 C12.35294118 20.29411765 12.35294118 20.29411765 10 25 C6.7 25 3.4 25 0 25 C0 16.75 0 8.5 0 0 Z M4 6 C4 6.66 4 7.32 4 8 C4.66 8 5.32 8 6 8 C6 7.34 6 6.68 6 6 C5.34 6 4.68 6 4 6 Z M4 14 C4 15.65 4 17.3 4 19 C4.99 19 5.98 19 7 19 C7 17.35 7 15.7 7 14 C6.01 14 5.02 14 4 14 Z " fill="#9CA09E" transform="translate(77,7)"/>
<path d="M0 0 C3.25673682 4.01181163 3.40534556 7.44240675 3.375 12.5 C3.38273438 13.7890625 3.39046875 15.078125 3.3984375 16.40625 C2.98385753 20.14559875 2.34954815 22.08788399 0 25 C-3 25.5 -3 25.5 -6 25 C-8.55949546 23.14657225 -8.97918798 22.06243607 -10 19 C-10.12040604 16.87749355 -10.17533819 14.75088413 -10.1875 12.625 C-10.20167969 11.50351562 -10.21585938 10.38203125 -10.23046875 9.2265625 C-10.0014489 6.02028457 -9.47296065 3.84255564 -8 1 C-5.13879744 -0.43060128 -3.15989415 -0.38692581 0 0 Z M-4 6 C-6.22923777 10.32734391 -5.92470553 13.28400182 -5 18 C-4.01 18 -3.02 18 -2 18 C-0.70383728 11.71148966 -0.70383728 11.71148966 -3 6 C-3.33 6 -3.66 6 -4 6 Z " fill="#9CA09E" transform="translate(160,7)"/>
<path d="M0 0 C1.4540625 0.2165625 1.4540625 0.2165625 2.9375 0.4375 C5.0894437 3.66541555 5.13836443 4.72150809 4.9375 8.4375 C1.9675 7.9425 1.9675 7.9425 -1.0625 7.4375 C-0.27875 7.953125 0.505 8.46875 1.3125 9 C4.61820588 12.06958403 5.3336425 13.98405097 5.9375 18.4375 C5.22046755 21.0329555 4.21267053 23.034294 2.9375 25.4375 C-0.4375 25.625 -0.4375 25.625 -4.0625 25.4375 C-6.35263653 22.0022952 -6.24092973 20.452169 -6.0625 16.4375 C-4.7425 16.4375 -3.4225 16.4375 -2.0625 16.4375 C-1.4025 17.0975 -0.7425 17.7575 -0.0625 18.4375 C-0.0625 17.7775 -0.0625 17.1175 -0.0625 16.4375 C-1.71252828 15.08363064 -3.3799387 13.75071858 -5.0625 12.4375 C-6.46707737 9.62834526 -6.31145157 7.54939466 -6.0625 4.4375 C-4.46297292 1.0607206 -3.73834001 0.53404857 0 0 Z " fill="#9CA09E" transform="translate(215.0625,6.5625)"/>
<path d="M0 0 C1.65 0 3.3 0 5 0 C5 2.31 5 4.62 5 7 C6.65 7.33 8.3 7.66 10 8 C10.9702889 10.91086669 11.16467847 12.90223685 11.1875 15.9375 C11.20167969 16.79214844 11.21585938 17.64679687 11.23046875 18.52734375 C11 21 11 21 9 25 C6.03 25 3.06 25 0 25 C0 16.75 0 8.5 0 0 Z M5 13 C5 14.98 5 16.96 5 19 C5.66 18.67 6.32 18.34 7 18 C6.67 16.35 6.34 14.7 6 13 C5.67 13 5.34 13 5 13 Z " fill="#9CA09E" transform="translate(233,7)"/>
<path d="M0 0 C2.97 0 5.94 0 9 0 C11.15164703 3.22747055 11.27245079 4.20505639 11.25 7.9375 C11.25515625 8.79214844 11.2603125 9.64679687 11.265625 10.52734375 C10.98713633 13.11974567 10.30669172 14.76514234 9 17 C7.35 17 5.7 17 4 17 C4 19.64 4 22.28 4 25 C2.68 25 1.36 25 0 25 C0 16.75 0 8.5 0 0 Z M4 6 C4 7.65 4 9.3 4 11 C4.66 11 5.32 11 6 11 C6 9.35 6 7.7 6 6 C5.34 6 4.68 6 4 6 Z " fill="#9CA09E" transform="translate(138,7)"/>
<path d="M0 0 C1.32 0 2.64 0 4 0 C4.33 2.64 4.66 5.28 5 8 C5.33 7.67 5.66 7.34 6 7 C7.66617115 6.95936168 9.33388095 6.957279 11 7 C10.649375 7.680625 10.29875 8.36125 9.9375 9.0625 C8.75379149 12.77145334 9.26670023 15.20017393 10 19 C10.185625 20.134375 10.37125 21.26875 10.5625 22.4375 C10.706875 23.283125 10.85125 24.12875 11 25 C9.35 25 7.7 25 6 25 C5.67 24.01 5.34 23.02 5 22 C4.67 22.99 4.34 23.98 4 25 C2.68 25 1.36 25 0 25 C0 16.75 0 8.5 0 0 Z " fill="#9CA09E" transform="translate(37,7)"/>
<path d="M0 0 C2.31 0 4.62 0 7 0 C8.95031692 4.07723734 9.21581971 7.31692422 9.125 11.8125 C9.10695313 12.97394531 9.08890625 14.13539062 9.0703125 15.33203125 C9.04710938 16.21246094 9.02390625 17.09289062 9 18 C5.7 18 2.4 18 -1 18 C-2.41441874 15.17116253 -2.31900332 13.12623255 -2 10 C0 8.125 0 8.125 2 7 C0.68 6.67 -0.64 6.34 -2 6 C-1.34 4.02 -0.68 2.04 0 0 Z " fill="#9CA09E" transform="translate(114,14)"/>
<path d="M0 0 C3.375 -0.1875 3.375 -0.1875 7 0 C9.45391569 3.68087353 9.22802759 6.44355588 9.125 10.6875 C9.11597656 11.38939453 9.10695313 12.09128906 9.09765625 12.81445312 C9.07413704 14.54311525 9.03826713 16.27160145 9 18 C5.7 18 2.4 18 -1 18 C-1.6875 14.6875 -1.6875 14.6875 -2 11 C-0.5625 9.0625 -0.5625 9.0625 1 8 C0.01 7.01 -0.98 6.02 -2 5 C-1.34 3.35 -0.68 1.7 0 0 Z M3 5 C3 5.66 3 6.32 3 7 C3.66 6.67 4.32 6.34 5 6 C4.34 5.67 3.68 5.34 3 5 Z M3 11 C4 13 4 13 4 13 Z " fill="#9CA09E" transform="translate(50,14)"/>
<path d="M0 0 C1.134375 0.020625 2.26875 0.04125 3.4375 0.0625 C5.023369 3.234238 4.81616445 6.69763822 5 10.1875 C5.04318359 10.94160156 5.08636719 11.69570313 5.13085938 12.47265625 C5.2369832 14.33571888 5.33775001 16.19908524 5.4375 18.0625 C3.79175434 18.08938151 2.14588587 18.10884123 0.5 18.125 C-0.41652344 18.13660156 -1.33304688 18.14820312 -2.27734375 18.16015625 C-4.5625 18.0625 -4.5625 18.0625 -5.5625 17.0625 C-5.875 13.6875 -5.875 13.6875 -5.5625 10.0625 C-3.5625 8.125 -3.5625 8.125 -1.5625 7.0625 C-2.8825 6.7325 -4.2025 6.4025 -5.5625 6.0625 C-4.48849278 0.07874549 -4.48849278 0.07874549 0 0 Z M-1.5625 11.0625 C-1.2325 11.7225 -0.9025 12.3825 -0.5625 13.0625 C-0.2325 12.4025 0.0975 11.7425 0.4375 11.0625 C-0.2225 11.0625 -0.8825 11.0625 -1.5625 11.0625 Z " fill="#9CA09E" transform="translate(22.5625,13.9375)"/>
<path d="M0 0 C1.32 0 2.64 0 4 0 C4.33 2.97 4.66 5.94 5 9 C5.33 6.03 5.66 3.06 6 0 C7.32 0 8.64 0 10 0 C10 5.94 10 11.88 10 18 C7.03 18 4.06 18 1 18 C0 17 0 17 -0.09765625 13.18359375 C-0.09098089 11.60153318 -0.07901875 10.01948841 -0.0625 8.4375 C-0.05798828 7.63119141 -0.05347656 6.82488281 -0.04882812 5.99414062 C-0.03700518 3.99606244 -0.01906914 1.99802217 0 0 Z " fill="#9CA09E" transform="translate(222,14)"/>
<path d="M0 0 C2.9375 -0.5 2.9375 -0.5 6 0 C8.27338765 2.6522856 8.95526736 4.32901036 9.1875 7.8125 C9.125625 8.534375 9.06375 9.25625 9 10 C6.69 10 4.38 10 2 10 C2.66 10.66 3.32 11.32 4 12 C5.32 12 6.64 12 8 12 C7.125 16.875 7.125 16.875 6 18 C3.0625 18.25 3.0625 18.25 0 18 C-2.30821663 14.53767506 -2.27000989 13.08201684 -2.25 9 C-2.25515625 7.948125 -2.2603125 6.89625 -2.265625 5.8125 C-2 3 -2 3 0 0 Z M3 5 C2.67 5.66 2.34 6.32 2 7 C2.66 7 3.32 7 4 7 C3.67 6.34 3.34 5.68 3 5 Z " fill="#9CA09E" transform="translate(92,14)"/>
<path d="M0 0 C0.94875 0.04125 1.8975 0.0825 2.875 0.125 C3.205 1.775 3.535 3.425 3.875 5.125 C2.225 5.455 0.575 5.785 -1.125 6.125 C0.0815625 6.434375 0.0815625 6.434375 1.3125 6.75 C3.875 8.125 3.875 8.125 4.8125 11 C4.87533706 14.14185311 4.56692787 15.53734561 2.875 18.125 C0.54205225 18.16741723 -1.79202567 18.16592937 -4.125 18.125 C-5.125 17.125 -5.125 17.125 -5.1875 14.5625 C-5.166875 13.758125 -5.14625 12.95375 -5.125 12.125 C-3.475 12.125 -1.825 12.125 -0.125 12.125 C-0.95 11.774375 -1.775 11.42375 -2.625 11.0625 C-3.45 10.423125 -4.275 9.78375 -5.125 9.125 C-5.5625 5.5625 -5.5625 5.5625 -5.125 2.125 C-3.125 0.125 -3.125 0.125 0 0 Z " fill="#9CA09E" transform="translate(65.125,13.875)"/>
<path d="M0 0 C3.0625 0.1875 3.0625 0.1875 5.0625 2.1875 C5.0625 3.1775 5.0625 4.1675 5.0625 5.1875 C3.4125 5.5175 1.7625 5.8475 0.0625 6.1875 C2.5375 7.1775 2.5375 7.1775 5.0625 8.1875 C5.2578125 14.2421875 5.2578125 14.2421875 5.0625 16.1875 C3.0625 18.1875 3.0625 18.1875 -0.0625 18.3125 C-1.485625 18.250625 -1.485625 18.250625 -2.9375 18.1875 C-3.5975 16.5375 -4.2575 14.8875 -4.9375 13.1875 C-2.9575 12.5275 -0.9775 11.8675 1.0625 11.1875 C0.423125 11.043125 -0.21625 10.89875 -0.875 10.75 C-2.9375 10.1875 -2.9375 10.1875 -3.9375 9.1875 C-4.0703125 7.375 -4.0703125 7.375 -4.0625 5.1875 C-4.06507812 4.465625 -4.06765625 3.74375 -4.0703125 3 C-3.84370902 -0.09247105 -3.14227848 0.20057097 0 0 Z " fill="#9CA09E" transform="translate(105.9375,13.8125)"/>
<path d="M0 0 C1.32 0 2.64 0 4 0 C4 6.27 4 12.54 4 19 C5.98 19 7.96 19 10 19 C10 20.98 10 22.96 10 25 C6.7 25 3.4 25 0 25 C0 16.75 0 8.5 0 0 Z " fill="#9CA09E" transform="translate(165,7)"/>
<path d="M0 0 C1.65 0 3.3 0 5 0 C5 8.25 5 16.5 5 25 C3.35 25 1.7 25 0 25 C0 16.75 0 8.5 0 0 Z " fill="#9CA09E" transform="translate(190,7)"/>
<path d="M0 0 C0.99 0 1.98 0 3 0 C7.23629878 9.60227724 6.93631865 20.05509597 4 30 C3.67 30.66 3.34 31.32 3 32 C2.01 32 1.02 32 0 32 C0.0721875 31.41734375 0.144375 30.8346875 0.21875 30.234375 C1.36892994 20.07445219 1.25672138 10.14353686 0 0 Z " fill="#9CA09E" transform="translate(245,7)"/>
<path d="M0 0 C0.99 0 1.98 0 3 0 C2.9278125 0.57105469 2.855625 1.14210938 2.78125 1.73046875 C1.61965427 11.87829813 1.62754042 21.8781106 3 32 C2.01 32 1.02 32 0 32 C-4.23629878 22.39772276 -3.93631865 11.94490403 -1 2 C-0.67 1.34 -0.34 0.68 0 0 Z " fill="#9CA09E" transform="translate(205,7)"/>
<path d="M0 0 C2.64 0 5.28 0 8 0 C7.625 2.9375 7.625 2.9375 7 6 C6.01 6.495 6.01 6.495 5 7 C4.5316735 9.58605332 4.5316735 9.58605332 4.375 12.5625 C4.26285156 14.08037109 4.26285156 14.08037109 4.1484375 15.62890625 C4.09945312 16.41136719 4.05046875 17.19382812 4 18 C2.68 18 1.36 18 0 18 C0 12.06 0 6.12 0 0 Z " fill="#9CA09E" transform="translate(124,14)"/>
<path d="M0 0 C2.31 0 4.62 0 7 0 C7 1.65 7 3.3 7 5 C6.01 5.33 5.02 5.66 4 6 C4 9.96 4 13.92 4 18 C2.68 18 1.36 18 0 18 C0 12.06 0 6.12 0 0 Z " fill="#9CA09E" transform="translate(29,14)"/>
</svg>
