<?xml version="1.0" encoding="UTF-8"?>
<svg version="1.1" xmlns="http://www.w3.org/2000/svg" width="258" height="43">
<path d="M0 0 C1.65 0 3.3 0 5 0 C5.33 6.6 5.66 13.2 6 20 C6.33 20 6.66 20 7 20 C7.33 13.4 7.66 6.8 8 0 C9.98 0 11.96 0 14 0 C14.08149592 3.02138567 14.14073421 6.04053905 14.1875 9.0625 C14.22520508 10.33383789 14.22520508 10.33383789 14.26367188 11.63085938 C14.32847277 17.22533647 13.61759241 21.03514588 11 26 C10 27 10 27 6.625 27.375 C3 27 3 27 1.28515625 25.18359375 C-0.65215428 20.38448103 -0.3152372 15.80681388 -0.1875 10.6875 C-0.17396484 9.66076172 -0.16042969 8.63402344 -0.14648438 7.57617188 C-0.11123883 5.05024091 -0.061967 2.5253934 0 0 Z " fill="#9CA09E" transform="translate(50,7)"/>
<path d="M0 0 C3.3 0 6.6 0 10 0 C12.30821663 3.46232494 12.27000989 4.91798316 12.25 9 C12.25515625 10.051875 12.2603125 11.10375 12.265625 12.1875 C12 15 12 15 10 18 C7.375 18.1875 7.375 18.1875 5 18 C5 20.97 5 23.94 5 27 C3.35 27 1.7 27 0 27 C0 18.09 0 9.18 0 0 Z M5 6 C5 7.98 5 9.96 5 12 C5.66 11.67 6.32 11.34 7 11 C6.67 9.35 6.34 7.7 6 6 C5.67 6 5.34 6 5 6 Z " fill="#9CA09E" transform="translate(13,7)"/>
<path d="M0 0 C2.97 0 5.94 0 9 0 C9 8.91 9 17.82 9 27 C7.35 27 5.7 27 4 27 C4 24.69 4 22.38 4 20 C3.21625 19.9175 2.4325 19.835 1.625 19.75 C-1 19 -1 19 -2.1484375 17.23046875 C-3.91418202 12.60551406 -3.51916124 7.66131596 -2.0625 3 C-1 1 -1 1 0 0 Z M2 6 C2 8.64 2 11.28 2 14 C2.66 14 3.32 14 4 14 C4 11.36 4 8.72 4 6 C3.34 6 2.68 6 2 6 Z " fill="#9CA09E" transform="translate(86,14)"/>
<path d="M0 0 C3.3 0 6.6 0 10 0 C11.1482685 2.296537 11.11561175 3.58313167 11.09765625 6.1328125 C11.09443359 6.93847656 11.09121094 7.74414062 11.08789062 8.57421875 C11.07951172 9.41597656 11.07113281 10.25773437 11.0625 11.125 C11.05798828 11.97449219 11.05347656 12.82398438 11.04882812 13.69921875 C11.03702874 15.79950909 11.01909306 17.8997633 11 20 C9.68 20 8.36 20 7 20 C6.67 16.37 6.34 12.74 6 9 C5.67 12.63 5.34 16.26 5 20 C3.35 20 1.7 20 0 20 C0 13.4 0 6.8 0 0 Z " fill="#9CA09E" transform="translate(65,14)"/>
<path d="M0 0 C5.5015674 -0.36677116 5.5015674 -0.36677116 7.65625 1.21875 C9.33175114 3.43976314 9.48784234 4.93222436 9.6875 7.6875 C9.78611328 8.89986328 9.78611328 8.89986328 9.88671875 10.13671875 C9.92410156 10.75160156 9.96148437 11.36648437 10 12 C7.36 12 4.72 12 2 12 C3.83883881 14.28728734 3.83883881 14.28728734 6.625 14.125 C7.40875 14.08375 8.1925 14.0425 9 14 C8.125 18.875 8.125 18.875 7 20 C4.66702567 20.04092937 2.33294775 20.04241723 0 20 C-2.8568312 15.23861467 -3.84180048 11.43932615 -3 6 C-1.5 2.5 -1.5 2.5 0 0 Z M3 5 C2.67 5.99 2.34 6.98 2 8 C2.99 7.67 3.98 7.34 5 7 C4.34 6.34 3.68 5.68 3 5 Z " fill="#9CA09E" transform="translate(111,14)"/>
<path d="M0 0 C1.65 0 3.3 0 5 0 C5.33 3.96 5.66 7.92 6 12 C6.33 8.04 6.66 4.08 7 0 C8.32 0 9.64 0 11 0 C11 6.6 11 13.2 11 20 C8.03 20 5.06 20 2 20 C-0.03120707 16.95318939 -0.24659875 16.39881676 -0.1953125 12.98828125 C-0.18886719 12.23095703 -0.18242188 11.47363281 -0.17578125 10.69335938 C-0.15902344 9.90767578 -0.14226562 9.12199219 -0.125 8.3125 C-0.11597656 7.51521484 -0.10695313 6.71792969 -0.09765625 5.89648438 C-0.07411585 3.930861 -0.03824547 1.96539225 0 0 Z " fill="#9CA09E" transform="translate(96,14)"/>
<path d="M0 0 C4.29 0 8.58 0 13 0 C13 1.98 13 3.96 13 6 C11.68 6 10.36 6 9 6 C9 12.93 9 19.86 9 27 C7.35 27 5.7 27 4 27 C4 20.07 4 13.14 4 6 C2.68 6 1.36 6 0 6 C0 4.02 0 2.04 0 0 Z " fill="#9CA09E" transform="translate(26,7)"/>
<path d="M0 0 C1.32 0 2.64 0 4 0 C4 6.6 4 13.2 4 20 C2.68 20 1.36 20 0 20 C0 13.4 0 6.8 0 0 Z " fill="#9CA09E" transform="translate(78,14)"/>
<path d="M0 0 C1.65 0 3.3 0 5 0 C5 2.31 5 4.62 5 7 C3.35 7 1.7 7 0 7 C0 4.69 0 2.38 0 0 Z " fill="#9CA09E" transform="translate(37,27)"/>
<path d="M0 0 C1.32 0 2.64 0 4 0 C4 1.65 4 3.3 4 5 C2.68 5 1.36 5 0 5 C0 3.35 0 1.7 0 0 Z " fill="#9CA09E" transform="translate(78,7)"/>
</svg>
