<?xml version="1.0" encoding="UTF-8"?>
<svg version="1.1" xmlns="http://www.w3.org/2000/svg" width="258" height="43">
<path d="M0 0 C2.97 0 5.94 0 9 0 C11.41015625 2.625 11.41015625 2.625 13.0625 6 C13.63097656 7.11375 14.19945312 8.2275 14.78515625 9.375 C15.38650391 10.674375 15.38650391 10.674375 16 12 C16.33 8.04 16.66 4.08 17 0 C19.97 0 22.94 0 26 0 C26 10.56 26 21.12 26 32 C23.03 32 20.06 32 17 32 C14.58984375 29.375 14.58984375 29.375 12.9375 26 C12.36902344 24.88625 11.80054688 23.7725 11.21484375 22.625 C10.81394531 21.75875 10.41304687 20.8925 10 20 C9.67 23.96 9.34 27.92 9 32 C6.03 32 3.06 32 0 32 C0 21.44 0 10.88 0 0 Z " fill="#9CA09E" transform="translate(43,7)"/>
<path d="M0 0 C3.238125 -0.061875 6.47625 -0.12375 9.8125 -0.1875 C11.33774292 -0.22846802 11.33774292 -0.22846802 12.89379883 -0.27026367 C13.69841553 -0.27775635 14.50303223 -0.28524902 15.33203125 -0.29296875 C16.56530151 -0.31653442 16.56530151 -0.31653442 17.82348633 -0.34057617 C20.54036841 0.08455568 21.37391228 0.81390999 23 3 C23.90668393 6.76622556 24.38851879 9.07187177 22.875 12.6875 C22.58625 13.450625 22.2975 14.21375 22 15 C22.98560611 16.34400833 23.98758315 17.67607028 25 19 C25.54407111 23.98731848 25.06351224 26.99386861 22 31 C19.59940183 32.20029908 18.10639351 32.11459743 15.4296875 32.09765625 C14.62257324 32.09515869 13.81545898 32.09266113 12.98388672 32.09008789 C11.9579541 32.08098389 10.93202148 32.07187988 9.875 32.0625 C4.986875 32.0315625 4.986875 32.0315625 0 32 C0 21.44 0 10.88 0 0 Z M9 7 C9 8.65 9 10.3 9 12 C10.65 12 12.3 12 14 12 C14.59070014 10.05396726 14.59070014 10.05396726 15 8 C13.93354885 6.70366379 13.93354885 6.70366379 11.4375 6.9375 C10.633125 6.958125 9.82875 6.97875 9 7 Z M9 19 C9 20.98 9 22.96 9 25 C12.465 24.505 12.465 24.505 16 24 C16 22.68 16 21.36 16 20 C13.69 19.67 11.38 19.34 9 19 Z " fill="#9CA09E" transform="translate(2,7)"/>
<path d="M0 0 C2.64 0 5.28 0 8 0 C8 10.56 8 21.12 8 32 C5.36 32 2.72 32 0 32 C0 21.44 0 10.88 0 0 Z " fill="#9CA09E" transform="translate(31,7)"/>
</svg>
