<?xml version="1.0" encoding="UTF-8"?>
<svg version="1.1" xmlns="http://www.w3.org/2000/svg" width="258" height="43">
<path d="M0 0 C2.64 0 5.28 0 8 0 C9.98362069 2.91708924 9.9876191 4.12380904 9.625 7.75 C9.41875 8.8225 9.2125 9.895 9 11 C9.391875 10.34 9.78375 9.68 10.1875 9 C12 7 12 7 14.5625 6.75 C15.366875 6.8325 16.17125 6.915 17 7 C17.66 7 18.32 7 19 7 C21.66666667 7 24.33333333 7 27 7 C27.33 7.66 27.66 8.32 28 9 C28.33 8.34 28.66 7.68 29 7 C30.32 7 31.64 7 33 7 C33 4.69 33 2.38 33 0 C34.32 0 35.64 0 37 0 C37 2.31 37 4.62 37 7 C42.61 7 48.22 7 54 7 C54.495 7.99 54.495 7.99 55 9 C55.66 8.34 56.32 7.68 57 7 C60.625 6.875 60.625 6.875 64 7 C64 4.69 64 2.38 64 0 C64.99 0.33 65.98 0.66 67 1 C69.50702064 11.52053306 69.50702064 20.47946694 67 31 C60.41040711 32.36869266 60.41040711 32.36869266 57 32 C55 29 55 29 55 25 C53.86820313 25 52.73640625 25 51.5703125 25 C34.38020833 25 17.19010417 25 0 25 C0 16.75 0 8.5 0 0 Z M4 6 C5 8 5 8 5 8 Z M14 12 C15 14 15 14 15 14 Z M59 12 C59 14.31 59 16.62 59 19 C59.33 19 59.66 19 60 19 C60 16.69 60 14.38 60 12 C59.67 12 59.34 12 59 12 Z M10 13 C10.33 14.32 10.66 15.64 11 17 C11.99 16.01 12.98 15.02 14 14 C12.68 13.67 11.36 13.34 10 13 Z M32 13 C31.3185177 14.89179203 31.3185177 14.89179203 31 17 C31.66 17.66 32.32 18.32 33 19 C33 17.02 33 15.04 33 13 C32.67 13 32.34 13 32 13 Z M4 14 C4 15.65 4 17.3 4 19 C4.66 18.67 5.32 18.34 6 18 C5.67 16.68 5.34 15.36 5 14 C4.67 14 4.34 14 4 14 Z M55 20 C55 21.65 55 23.3 55 25 C57.475 25.99 57.475 25.99 60 27 C60 26.01 60 25.02 60 24 C59.01 23.67 58.02 23.34 57 23 C56.34 22.01 55.68 21.02 55 20 Z " fill="#9CA09E" transform="translate(189,7)"/>
<path d="M0 0 C0.763125 0.103125 1.52625 0.20625 2.3125 0.3125 C3.93199011 2.88463134 4.35658751 3.98919159 3.9375 7.0625 C3.73125 7.805 3.525 8.5475 3.3125 9.3125 C2.3225 9.3125 1.3325 9.3125 0.3125 9.3125 C-0.0175 8.6525 -0.3475 7.9925 -0.6875 7.3125 C-1.0175 10.9425 -1.3475 14.5725 -1.6875 18.3125 C-1.0275 18.3125 -0.3675 18.3125 0.3125 18.3125 C0.6425 17.3225 0.9725 16.3325 1.3125 15.3125 C1.9725 15.3125 2.6325 15.3125 3.3125 15.3125 C4.3025 12.6725 5.2925 10.0325 6.3125 7.3125 C11.64583333 7.3125 16.97916667 7.3125 22.3125 7.3125 C23.3025 5.0025 24.2925 2.6925 25.3125 0.3125 C25.9725 0.3125 26.6325 0.3125 27.3125 0.3125 C28.15577749 8.66998222 28.43440678 16.91447746 28.3125 25.3125 C26.9925 25.3125 25.6725 25.3125 24.3125 25.3125 C23.9825 24.6525 23.6525 23.9925 23.3125 23.3125 C22.9825 23.9725 22.6525 24.6325 22.3125 25.3125 C18.64583333 25.3125 14.97916667 25.3125 11.3125 25.3125 C10.4875 25.374375 9.6625 25.43625 8.8125 25.5 C7.9875 25.438125 7.1625 25.37625 6.3125 25.3125 C5.6525 24.3225 4.9925 23.3325 4.3125 22.3125 C3.6525 23.3025 2.9925 24.2925 2.3125 25.3125 C-0.125 25.8125 -0.125 25.8125 -2.6875 25.3125 C-5.90533002 21.25757339 -6.09297699 17.89199774 -6.0625 12.8125 C-6.07023438 11.5234375 -6.07796875 10.234375 -6.0859375 8.90625 C-5.58977987 4.43110274 -4.92068831 0.57217306 0 0 Z M8.3125 12.3125 C8.3125 12.9725 8.3125 13.6325 8.3125 14.3125 C8.9725 13.9825 9.6325 13.6525 10.3125 13.3125 C9.6525 12.9825 8.9925 12.6525 8.3125 12.3125 Z M8.3125 17.3125 C8.3125 17.9725 8.3125 18.6325 8.3125 19.3125 C9.9625 19.3125 11.6125 19.3125 13.3125 19.3125 C13.3125 18.6525 13.3125 17.9925 13.3125 17.3125 C11.6625 17.3125 10.0125 17.3125 8.3125 17.3125 Z " fill="#9CA09E" transform="translate(134.6875,6.6875)"/>
<path d="M0 0 C1.32 0 2.64 0 4 0 C4.33 2.31 4.66 4.62 5 7 C7.86964055 7.73790757 9.75795825 8.0506599 12.6875 7.4375 C13.8321875 7.2209375 13.8321875 7.2209375 15 7 C15.66 7.66 16.32 8.32 17 9 C17.33 8.34 17.66 7.68 18 7 C21.96 7 25.92 7 30 7 C31.59412284 10.18824568 31.10174735 13.62896662 31.0625 17.125 C31.05798828 17.87910156 31.05347656 18.63320313 31.04882812 19.41015625 C31.03703499 21.27347127 31.01909942 23.13674555 31 25 C26.71 25 22.42 25 18 25 C17.67 24.01 17.34 23.02 17 22 C16.34 22.99 15.68 23.98 15 25 C14.278125 24.814375 13.55625 24.62875 12.8125 24.4375 C9.823421 23.97253216 7.92402062 24.34209536 5 25 C3.35 25 1.7 25 0 25 C0 16.75 0 8.5 0 0 Z M8 9 C6.64560332 11.70879335 6.93498549 14.00933268 7 17 C8.42944945 14.64561267 9.08661261 13.51967567 8.625 10.75 C8.41875 10.1725 8.2125 9.595 8 9 Z M12 13 C12 14.98 12 16.96 12 19 C12.66 19 13.32 19 14 19 C14 17.02 14 15.04 14 13 C13.34 13 12.68 13 12 13 Z M8 19 C9 21 9 21 9 21 Z " fill="#9CA09E" transform="translate(23,7)"/>
<path d="M0 0 C1.32 0 2.64 0 4 0 C4 6.27 4 12.54 4 19 C5.65 19 7.3 19 9 19 C8.97679688 18.38511719 8.95359375 17.77023438 8.9296875 17.13671875 C8.90261719 15.92435547 8.90261719 15.92435547 8.875 14.6875 C8.85179688 13.88699219 8.82859375 13.08648437 8.8046875 12.26171875 C9 10 9 10 11 7 C13.5 6.6875 13.5 6.6875 16 7 C16.66 7.66 17.32 8.32 18 9 C18.33 8.34 18.66 7.68 19 7 C23.66666667 7 28.33333333 7 33 7 C33 8.98 33 10.96 33 13 C32.67 13 32.34 13 32 13 C31.67 16.96 31.34 20.92 31 25 C21.8203125 25.1953125 21.8203125 25.1953125 19 25 C18.34 24.34 17.68 23.68 17 23 C16.67 23.66 16.34 24.32 16 25 C10.66666667 25 5.33333333 25 0 25 C0 16.75 0 8.5 0 0 Z M13 12 C12.67 12.66 12.34 13.32 12 14 C12.66 14 13.32 14 14 14 C13.67 13.34 13.34 12.68 13 12 Z M18 14 C18 14.66 18 15.32 18 16 C19.32 15.34 20.64 14.68 22 14 C20.68 14 19.36 14 18 14 Z M12 17 C12 17.66 12 18.32 12 19 C13.98 19 15.96 19 18 19 C18 18.34 18 17.68 18 17 C16.02 17 14.04 17 12 17 Z " fill="#9CA09E" transform="translate(59,7)"/>
<path d="M0 0 C2.64 0 5.28 0 8 0 C8 0.99 8 1.98 8 3 C8.66 3 9.32 3 10 3 C10.33 2.01 10.66 1.02 11 0 C13.31 0 15.62 0 18 0 C18.05800828 3.60409919 18.09359869 7.20807851 18.125 10.8125 C18.14175781 11.83666016 18.15851563 12.86082031 18.17578125 13.91601562 C18.18222656 14.89892578 18.18867187 15.88183594 18.1953125 16.89453125 C18.20578613 17.80050049 18.21625977 18.70646973 18.22705078 19.63989258 C18 22 18 22 16 25 C13.5 25.375 13.5 25.375 11 25 C9 22 9 22 9 18 C6.03 18 3.06 18 0 18 C0 12.06 0 6.12 0 0 Z M13 5 C13 7.31 13 9.62 13 12 C13.33 12 13.66 12 14 12 C14 9.69 14 7.38 14 5 C13.67 5 13.34 5 13 5 Z M9 13 C9 14.65 9 16.3 9 18 C11.475 18.99 11.475 18.99 14 20 C14 19.01 14 18.02 14 17 C13.01 16.67 12.02 16.34 11 16 C10.34 15.01 9.68 14.02 9 13 Z " fill="#9CA09E" transform="translate(106,14)"/>
<path d="M0 0 C1.32 0 2.64 0 4 0 C4 8.25 4 16.5 4 25 C2.35 24.67 0.7 24.34 -1 24 C-1.33 24.33 -1.66 24.66 -2 25 C-3.66617115 25.04063832 -5.33388095 25.042721 -7 25 C-8.81643761 21.88610696 -9.2719038 19.59222291 -9.25 16 C-9.25515625 15.154375 -9.2603125 14.30875 -9.265625 13.4375 C-8.98531155 10.86521189 -8.2948187 9.2196892 -7 7 C-5.33388095 6.957279 -3.66617115 6.95936168 -2 7 C-1.67 7.33 -1.34 7.66 -1 8 C-0.67 5.36 -0.34 2.72 0 0 Z M-5 12 C-5 12.66 -5 13.32 -5 14 C-4.34 13.67 -3.68 13.34 -3 13 C-3.66 12.67 -4.32 12.34 -5 12 Z M-5 17 C-5 17.66 -5 18.32 -5 19 C-3.35 19 -1.7 19 0 19 C0 18.34 0 17.68 0 17 C-1.65 17 -3.3 17 -5 17 Z " fill="#9CA09E" transform="translate(18,7)"/>
<path d="M0 0 C4.55555556 0.55555556 4.55555556 0.55555556 6 2 C6.33 1.34 6.66 0.68 7 0 C8.98 0 10.96 0 13 0 C13.20086443 3.71599191 13.1519437 4.77208445 11 8 C10.54398739 10.50896686 10.54398739 10.50896686 10.375 13.1875 C10.30023438 14.08855469 10.22546875 14.98960938 10.1484375 15.91796875 C10.09945312 16.60503906 10.05046875 17.29210937 10 18 C9.01 18 8.02 18 7 18 C7 15.36 7 12.72 7 10 C5.02 10 3.04 10 1 10 C1 10.66 1 11.32 1 12 C2.65 12 4.3 12 6 12 C5.125 16.875 5.125 16.875 4 18 C2.33382885 18.04063832 0.66611905 18.042721 -1 18 C-3.40508533 12.62392691 -3.26322277 7.66412791 -2 2 C-1.34 1.34 -0.68 0.68 0 0 Z " fill="#9CA09E" transform="translate(166,14)"/>
<path d="M0 0 C3.3 0 6.6 0 10 0 C10 1.98 10 3.96 10 6 C9.01 6 8.02 6 7 6 C7 12.27 7 18.54 7 25 C5.68 25 4.36 25 3 25 C3 18.73 3 12.46 3 6 C2.01 6 1.02 6 0 6 C0 4.02 0 2.04 0 0 Z " fill="#9CA09E" transform="translate(0,7)"/>
<path d="M0 0 C2.31 0 4.62 0 7 0 C8 1 8 1 8.09765625 4.81640625 C8.09098089 6.39846682 8.07901875 7.98051159 8.0625 9.5625 C8.05798828 10.36880859 8.05347656 11.17511719 8.04882812 12.00585938 C8.03700518 14.00393756 8.01906914 16.00197783 8 18 C5.36 18 2.72 18 0 18 C0 12.06 0 6.12 0 0 Z " fill="#9CA09E" transform="translate(93,14)"/>
<path d="M0 0 C0.99 0 1.98 0 3 0 C2.91621094 1.22074219 2.83242187 2.44148437 2.74609375 3.69921875 C2.13745695 13.2689369 1.88570607 22.45135816 3 32 C2.01 32 1.02 32 0 32 C-2.9481667 21.31289571 -2.9481667 10.68710429 0 0 Z " fill="#9CA09E" transform="translate(185,7)"/>
<path d="M0 0 C0.99 0 1.98 0 3 0 C3 5.94 3 11.88 3 18 C2.01 18 1.02 18 0 18 C0 12.06 0 6.12 0 0 Z " fill="#9CA09E" transform="translate(102,14)"/>
<path d="M0 0 C0.99 0 1.98 0 3 0 C3 1.65 3 3.3 3 5 C2.01 5 1.02 5 0 5 C0 3.35 0 1.7 0 0 Z " fill="#9CA09E" transform="translate(102,7)"/>
</svg>
