<?xml version="1.0" encoding="UTF-8"?>
<svg version="1.1" xmlns="http://www.w3.org/2000/svg" width="258" height="43">
<path d="M0 0 C3.3 0 6.6 0 10 0 C12.6855594 2.6855594 13.06049974 5.37621328 14 9 C14.66 8.34 15.32 7.68 16 7 C19 6.6875 19 6.6875 22 7 C22.99 8.485 22.99 8.485 24 10 C24.33 9.01 24.66 8.02 25 7 C27.97 7 30.94 7 34 7 C34 4.69 34 2.38 34 0 C35.65 0 37.3 0 39 0 C39.495 3.96 39.495 3.96 40 8 C40.33 7.67 40.66 7.34 41 7 C42.66617115 6.95936168 44.33388095 6.957279 46 7 C45.83242187 7.61488281 45.66484375 8.22976563 45.4921875 8.86328125 C45.28851563 9.67152344 45.08484375 10.47976562 44.875 11.3125 C44.66617188 12.11300781 44.45734375 12.91351563 44.2421875 13.73828125 C43.72572666 16.28207233 43.72572666 16.28207233 46 19 C46.639375 18.360625 47.27875 17.72125 47.9375 17.0625 C48.95833333 16.04166667 49.97916667 15.02083333 51 14 C49.68 14 48.36 14 47 14 C46.875 11.625 46.875 11.625 47 9 C49 7 49 7 52.5 6.6875 C53.655 6.790625 54.81 6.89375 56 7 C58.03120707 10.04681061 58.24659875 10.60118324 58.1953125 14.01171875 C58.19031738 14.69451904 58.18532227 15.37731934 58.18017578 16.08081055 C58.16196777 16.94101807 58.14375977 17.80122559 58.125 18.6875 C58.08375 21.430625 58.0425 24.17375 58 27 C52.39 27 46.78 27 41 27 C40.505 25.515 40.505 25.515 40 24 C39.505 25.485 39.505 25.485 39 27 C37.35 27 35.7 27 34 27 C33.67 22.71 33.34 18.42 33 14 C32.34 14.33 31.68 14.66 31 15 C30.53101037 17.8159849 30.53101037 17.8159849 30.375 21.0625 C30.30023438 22.16722656 30.22546875 23.27195312 30.1484375 24.41015625 C30.09945312 25.26480469 30.05046875 26.11945312 30 27 C28.35 27 26.7 27 25 27 C24.67 26.01 24.34 25.02 24 24 C23.34 24.99 22.68 25.98 22 27 C18.5 27.375 18.5 27.375 15 27 C12.81024227 23.71536341 12.00193437 20.79303725 11 17 C10.67 17.33 10.34 17.66 10 18 C8.33382885 18.04063832 6.66611905 18.042721 5 18 C5 20.97 5 23.94 5 27 C3.35 27 1.7 27 0 27 C0 18.09 0 9.18 0 0 Z M5 6 C5 7.98 5 9.96 5 12 C5.66 12 6.32 12 7 12 C8.01111093 8.95086772 8.01111093 8.95086772 7 6 C6.34 6 5.68 6 5 6 Z M12 12 C13 16 13 16 13 16 Z M18 12 C17.67 12.99 17.34 13.98 17 15 C17.99 15 18.98 15 20 15 C19.67 14.01 19.34 13.02 19 12 C18.67 12 18.34 12 18 12 Z M17 19 C17.99 20.485 17.99 20.485 19 22 C20.98 21.67 22.96 21.34 25 21 C25 20.34 25 19.68 25 19 C22.36 19 19.72 19 17 19 Z M52 19 C52 22 52 22 52 22 Z M46 24 C47 26 47 26 47 26 Z " fill="#9CA09E" transform="translate(104,7)"/>
<path d="M0 0 C1.65 0 3.3 0 5 0 C5.33 1.32 5.66 2.64 6 4 C6.66 2.68 7.32 1.36 8 0 C8.804375 0.185625 9.60875 0.37125 10.4375 0.5625 C11.283125 0.706875 12.12875 0.85125 13 1 C13.33 0.67 13.66 0.34 14 0 C17.4375 -0.1875 17.4375 -0.1875 21 0 C24.0103245 3.0103245 23.97819673 5.22903621 24.09765625 9.453125 C24.08605469 10.70609375 24.07445313 11.9590625 24.0625 13.25 C24.05347656 14.51328125 24.04445313 15.7765625 24.03515625 17.078125 C24.02355469 18.04234375 24.01195313 19.0065625 24 20 C20.37 20 16.74 20 13 20 C11.47508002 16.95016004 11.76437452 14.3576631 12 11 C13.54262813 8.89641619 14.68108317 8.15945841 17 7 C15.35 6.67 13.7 6.34 12 6 C11.88930176 6.56509277 11.77860352 7.13018555 11.66455078 7.71240234 C11.15927228 10.26823878 10.64228995 12.82156878 10.125 15.375 C9.95097656 16.26445312 9.77695313 17.15390625 9.59765625 18.0703125 C9.42363281 18.92109375 9.24960938 19.771875 9.0703125 20.6484375 C8.91320801 21.43395996 8.75610352 22.21948242 8.59423828 23.02880859 C8 25 8 25 6 27 C3.375 27.125 3.375 27.125 1 27 C0.67 25.02 0.34 23.04 0 21 C0.99 21 1.98 21 3 21 C2.86722656 20.154375 2.73445313 19.30875 2.59765625 18.4375 C1.64211285 12.299703 0.72579978 6.16929811 0 0 Z M17 12 C17 12.99 17 13.98 17 15 C17.66 14.67 18.32 14.34 19 14 C19 13.34 19 12.68 19 12 C18.34 12 17.68 12 17 12 Z " fill="#9CA09E" transform="translate(73,14)"/>
<path d="M0 0 C1.98 0 3.96 0 6 0 C6.66 2.31 7.32 4.62 8 7 C8.33 4.69 8.66 2.38 9 0 C11.31 0 13.62 0 16 0 C16 8.91 16 17.82 16 27 C14.68 27 13.36 27 12 27 C11.67 25.35 11.34 23.7 11 22 C10.67 23.65 10.34 25.3 10 27 C9.278125 26.814375 8.55625 26.62875 7.8125 26.4375 C4.62543759 25.77633914 4.62543759 25.77633914 0 27 C0 18.09 0 9.18 0 0 Z " fill="#9CA09E" transform="translate(194,7)"/>
<path d="M0 0 C3.625 -0.1875 3.625 -0.1875 7 0 C7.66 1.65 8.32 3.3 9 5 C7.35 5.33 5.7 5.66 4 6 C5.65 7.65 7.3 9.3 9 11 C10.98 9.68 12.96 8.36 15 7 C14.67 7 14.34 7 14 7 C12.68 7 11.36 7 10 7 C9.875 4.625 9.875 4.625 10 2 C12 0 12 0 15.5 -0.3125 C17.2325 -0.1578125 17.2325 -0.1578125 19 0 C21.03120707 3.04681061 21.24659875 3.60118324 21.1953125 7.01171875 C21.18886719 7.76904297 21.18242187 8.52636719 21.17578125 9.30664062 C21.15902344 10.09232422 21.14226562 10.87800781 21.125 11.6875 C21.11597656 12.48478516 21.10695312 13.28207031 21.09765625 14.10351562 C21.07411585 16.069139 21.03824547 18.03460775 21 20 C19.37581255 20.08090971 17.75048255 20.13914995 16.125 20.1875 C15.22007812 20.22230469 14.31515625 20.25710937 13.3828125 20.29296875 C12.20332031 20.14794922 12.20332031 20.14794922 11 20 C10.34 19.01 9.68 18.02 9 17 C8.62875 17.495 8.2575 17.99 7.875 18.5 C5.20839115 20.63328708 3.32106337 20.35330461 0 20 C-0.66 19.34 -1.32 18.68 -2 18 C-2 16.68 -2 15.36 -2 14 C0.475 14.495 0.475 14.495 3 15 C3.33 14.34 3.66 13.68 4 13 C3.195625 12.71125 2.39125 12.4225 1.5625 12.125 C-1 11 -1 11 -2 9 C-2.25860135 4.94857881 -2.30441554 3.45662331 0 0 Z M15 12 C15 15 15 15 15 15 Z " fill="#9CA09E" transform="translate(165,14)"/>
<path d="M0 0 C3.5625 0.25 3.5625 0.25 7 1 C7.33 1.66 7.66 2.32 8 3 C8.33 2.01 8.66 1.02 9 0 C11.97 0 14.94 0 18 0 C17.74438677 2.3431213 17.40729228 4.67843403 17 7 C16.01 7.495 16.01 7.495 15 8 C14.53101037 10.8159849 14.53101037 10.8159849 14.375 14.0625 C14.30023438 15.16722656 14.22546875 16.27195312 14.1484375 17.41015625 C14.09945312 18.26480469 14.05046875 19.11945312 14 20 C12.35 20 10.7 20 9 20 C8.67 19.01 8.34 18.02 8 17 C7.608125 17.495 7.21625 17.99 6.8125 18.5 C5 20 5 20 2.5 20.4375 C0 20 0 20 -1.75 18.4375 C-4.08489529 13.88445418 -4.24593094 10.15398365 -3.1875 5.1875 C-2 2 -2 2 0 0 Z M2 5 C0.61874982 7.76250036 0.80920694 9.94731099 1 13 C1.66 13.66 2.32 14.32 3 15 C4.38125018 12.23749964 4.19079306 10.05268901 4 7 C3.34 6.34 2.68 5.68 2 5 Z " fill="#9CA09E" transform="translate(235,14)"/>
<path d="M0 0 C3.3 0 6.6 0 10 0 C12.30821663 3.46232494 12.27000989 4.91798316 12.25 9 C12.25515625 10.051875 12.2603125 11.10375 12.265625 12.1875 C12 15 12 15 10 18 C7.375 18.1875 7.375 18.1875 5 18 C5 20.97 5 23.94 5 27 C3.35 27 1.7 27 0 27 C0 18.09 0 9.18 0 0 Z M5 6 C5 7.98 5 9.96 5 12 C5.66 11.67 6.32 11.34 7 11 C6.67 9.35 6.34 7.7 6 6 C5.67 6 5.34 6 5 6 Z " fill="#9CA09E" transform="translate(13,7)"/>
<path d="M0 0 C1.134375 0.020625 2.26875 0.04125 3.4375 0.0625 C6.00530471 3.9040976 5.66438882 7.8764175 5.5625 12.3125 C5.55347656 13.05757812 5.54445313 13.80265625 5.53515625 14.5703125 C5.51168358 16.40118059 5.47581525 18.23188238 5.4375 20.0625 C3.81286158 20.11645478 2.18771459 20.15527195 0.5625 20.1875 C-0.34242187 20.21070312 -1.24734375 20.23390625 -2.1796875 20.2578125 C-4.5625 20.0625 -4.5625 20.0625 -6.5625 18.0625 C-7.0625 14.6875 -7.0625 14.6875 -6.5625 11.0625 C-3.5625 8.625 -3.5625 8.625 -0.5625 7.0625 C-0.8925 7.0625 -1.2225 7.0625 -1.5625 7.0625 C-3.23071323 6.73699498 -4.89749557 6.40403937 -6.5625 6.0625 C-4.25951087 0.07472826 -4.25951087 0.07472826 0 0 Z M-1.5625 12.0625 C-1.2325 13.0525 -0.9025 14.0425 -0.5625 15.0625 C-0.2325 14.0725 0.0975 13.0825 0.4375 12.0625 C-0.2225 12.0625 -0.8825 12.0625 -1.5625 12.0625 Z " fill="#9CA09E" transform="translate(67.5625,13.9375)"/>
<path d="M0 0 C3 0.5625 3 0.5625 4.875 2.5 C6.9025296 8.01938614 6.77849548 12.71357323 4.5 18.125 C4.005 18.929375 3.51 19.73375 3 20.5625 C0.1875 20.8125 0.1875 20.8125 -3 20.5625 C-5.30547725 18.3053894 -5.95331403 16.89937129 -6.3984375 13.6875 C-6.38683594 12.140625 -6.38683594 12.140625 -6.375 10.5625 C-6.38273438 9.53125 -6.39046875 8.5 -6.3984375 7.4375 C-5.77748589 2.95690796 -4.51360632 0.84630119 0 0 Z M-1 6.5625 C-1.79953138 9.84946233 -2.09658936 11.27273192 -1 14.5625 C-0.34 14.5625 0.32 14.5625 1 14.5625 C1 11.9225 1 9.2825 1 6.5625 C0.34 6.5625 -0.32 6.5625 -1 6.5625 Z " fill="#9CA09E" transform="translate(217,13.4375)"/>
<path d="M0 0 C4.29 0 8.58 0 13 0 C13 1.98 13 3.96 13 6 C11.68 6 10.36 6 9 6 C9 12.93 9 19.86 9 27 C7.35 27 5.7 27 4 27 C4 20.07 4 13.14 4 6 C2.68 6 1.36 6 0 6 C0 4.02 0 2.04 0 0 Z " fill="#9CA09E" transform="translate(26,7)"/>
<path d="M0 0 C1.65 0 3.3 0 5 0 C5.08696177 3.93736123 5.14037835 7.87447628 5.1875 11.8125 C5.21263672 12.93205078 5.23777344 14.05160156 5.26367188 15.20507812 C5.27817383 16.81479492 5.27817383 16.81479492 5.29296875 18.45703125 C5.31653442 19.9416687 5.31653442 19.9416687 5.34057617 21.45629883 C5 24 5 24 3.6730957 25.82299805 C1.08520481 27.643547 -0.93613347 27.3911319 -4 27 C-6.29013653 23.5647952 -6.17842973 22.014669 -6 18 C-4.35 17.67 -2.7 17.34 -1 17 C-0.67 11.39 -0.34 5.78 0 0 Z " fill="#9CA09E" transform="translate(55,7)"/>
<path d="M0 0 C0.66 0 1.32 0 2 0 C2 2.31 2 4.62 2 7 C2.66 7 3.32 7 4 7 C4 8.65 4 10.3 4 12 C3.34 12 2.68 12 2 12 C2.33 14.97 2.66 17.94 3 21 C3.33 21 3.66 21 4 21 C4 22.98 4 24.96 4 27 C2.35 27 0.7 27 -1 27 C-2.95855229 22.8260361 -3.43832439 19.08346484 -3.75 14.5 C-3.84796875 13.2109375 -3.9459375 11.921875 -4.046875 10.59375 C-3.98679558 5.98766087 -3.26498338 3.26498338 0 0 Z " fill="#9CA09E" transform="translate(227,7)"/>
<path d="M0 0 C1.65 0 3.3 0 5 0 C5 2.31 5 4.62 5 7 C3.35 7 1.7 7 0 7 C0 4.69 0 2.38 0 0 Z " fill="#9CA09E" transform="translate(37,27)"/>
</svg>
