<?xml version="1.0" encoding="UTF-8"?>
<svg version="1.1" xmlns="http://www.w3.org/2000/svg" width="258" height="43">
<path d="M0 0 C1.32 0 2.64 0 4 0 C4.33 2.31 4.66 4.62 5 7 C6.65 7 8.3 7 10 7 C10.268125 6.21625 10.53625 5.4325 10.8125 4.625 C12 2 12 2 15 0 C15 2.31 15 4.62 15 7 C15.66 7 16.32 7 17 7 C17.495 8.485 17.495 8.485 18 10 C18.66 9.01 19.32 8.02 20 7 C22.5 6.625 22.5 6.625 25 7 C25.66 7.99 26.32 8.98 27 10 C27.33 9.01 27.66 8.02 28 7 C31 7 34 7 37 7 C37.99 6.938125 38.98 6.87625 40 6.8125 C40.99 6.874375 41.98 6.93625 43 7 C45.10209857 10.15314785 45.2434761 10.86103081 45.1953125 14.44921875 C45.18886719 15.29677734 45.18242187 16.14433594 45.17578125 17.01757812 C45.15902344 17.89865234 45.14226562 18.77972656 45.125 19.6875 C45.11597656 20.58017578 45.10695312 21.47285156 45.09765625 22.39257812 C45.07409915 24.59516666 45.03822844 26.79761725 45 29 C42.03 29 39.06 29 36 29 C34.40612958 25.81225917 34.47336863 22.46072041 35 19 C37 16.5 37 16.5 39 15 C37.02 15 35.04 15 33 15 C32.67 19.62 32.34 24.24 32 29 C30.68 29 29.36 29 28 29 C28 26.03 28 23.06 28 20 C25.03 20.495 25.03 20.495 22 21 C23.65 21.33 25.3 21.66 27 22 C26.125 27.875 26.125 27.875 25 29 C22.5625 29.1875 22.5625 29.1875 20 29 C19.34 28.34 18.68 27.68 18 27 C17.67 27.66 17.34 28.32 17 29 C15.35 28.67 13.7 28.34 12 28 C11.67 26.68 11.34 25.36 11 24 C10.67 25.65 10.34 27.3 10 29 C8.68 29 7.36 29 6 29 C5.67 24.38 5.34 19.76 5 15 C4.67 19.62 4.34 24.24 4 29 C-6.05859375 29.09765625 -6.05859375 29.09765625 -9 29 C-9.33 28.67 -9.66 28.34 -10 28 C-10.66 30.64 -11.32 33.28 -12 36 C-13.65 36 -15.3 36 -17 36 C-16.76228882 34.94002808 -16.76228882 34.94002808 -16.51977539 33.85864258 C-15.99240834 30.95824766 -15.7938145 28.2061873 -15.68359375 25.26171875 C-15.64169922 24.19501953 -15.59980469 23.12832031 -15.55664062 22.02929688 C-15.51732422 20.92650391 -15.47800781 19.82371094 -15.4375 18.6875 C-15.39431641 17.56537109 -15.35113281 16.44324219 -15.30664062 15.28710938 C-15.20085213 12.52485431 -15.09876328 9.7625137 -15 7 C-13.68 7 -12.36 7 -11 7 C-10.67 10.63 -10.34 14.26 -10 18 C-8.35 17.34 -6.7 16.68 -5 16 C-6.65 15.67 -8.3 15.34 -10 15 C-10.125 12.125 -10.125 12.125 -10 9 C-8 7 -8 7 -4.875 6.875 C-3.92625 6.91625 -2.9775 6.9575 -2 7 C-1.67 7.66 -1.34 8.32 -1 9 C-0.67 6.03 -0.34 3.06 0 0 Z M15 13 C15 15.64 15 18.28 15 21 C15.99 21.495 15.99 21.495 17 22 C17 19.03 17 16.06 17 13 C16.34 13 15.68 13 15 13 Z M22 13 C21.67 13.99 21.34 14.98 21 16 C21.66 16 22.32 16 23 16 C22.67 15.01 22.34 14.02 22 13 Z M-6 20 C-6.33 20.66 -6.66 21.32 -7 22 C-6.34 22 -5.68 22 -5 22 C-5.33 21.34 -5.66 20.68 -6 20 Z M39 20 C39.33 20.99 39.66 21.98 40 23 C40.33 22.01 40.66 21.02 41 20 C40.34 20 39.68 20 39 20 Z " fill="#9CA09E" transform="translate(207,7)"/>
<path d="M0 0 C1.32 0 2.64 0 4 0 C4.33 4.29 4.66 8.58 5 13 C5.33 8.71 5.66 4.42 6 0 C10.29 0 14.58 0 19 0 C19.66 3.63 20.32 7.26 21 11 C22.65 10.34 24.3 9.68 26 9 C23.525 8.505 23.525 8.505 21 8 C20.875 5.125 20.875 5.125 21 2 C23 0 23 0 26.125 -0.125 C27.07375 -0.08375 28.0225 -0.0425 29 0 C30.17469444 2.34938888 30.20034889 3.95073205 30.31640625 6.5703125 C30.35830078 7.46621094 30.40019531 8.36210937 30.44335938 9.28515625 C30.48267578 10.22230469 30.52199219 11.15945312 30.5625 12.125 C30.60568359 13.06988281 30.64886719 14.01476563 30.69335938 14.98828125 C30.79959072 17.32537092 30.90163176 19.6625683 31 22 C26 22 21 22 16 22 C15.67 17.38 15.34 12.76 15 8 C14.67 12.62 14.34 17.24 14 22 C9.71 22 5.42 22 1 22 C0.05862745 19.17588235 -0.11725382 17.47081968 -0.09765625 14.55078125 C-0.09443359 13.70322266 -0.09121094 12.85566406 -0.08789062 11.98242188 C-0.07951172 11.10134766 -0.07113281 10.22027344 -0.0625 9.3125 C-0.05798828 8.41982422 -0.05347656 7.52714844 -0.04882812 6.60742188 C-0.03704983 4.40488013 -0.02060164 2.20247401 0 0 Z M25 13 C24.67 13.66 24.34 14.32 24 15 C24.66 15 25.32 15 26 15 C25.67 14.34 25.34 13.68 25 13 Z " fill="#9CA09E" transform="translate(63,14)"/>
<path d="M0 0 C3.63 0 7.26 0 11 0 C11.33 1.98 11.66 3.96 12 6 C12.33 4.02 12.66 2.04 13 0 C15.64 0 18.28 0 21 0 C21 1.65 21 3.3 21 5 C19.68 5 18.36 5 17 5 C17 5.66 17 6.32 17 7 C18.32 7 19.64 7 21 7 C21 14.26 21 21.52 21 29 C19.68 29 18.36 29 17 29 C16.67 26.03 16.34 23.06 16 20 C15.67 22.97 15.34 25.94 15 29 C13.35 29 11.7 29 10 29 C9.67 26.69 9.34 24.38 9 22 C8.34 24.31 7.68 26.62 7 29 C5.68 29 4.36 29 3 29 C1.72334958 19.34455651 0.632723 9.72395343 0 0 Z " fill="#9CA09E" transform="translate(30,7)"/>
<path d="M0 0 C2.875 -0.1875 2.875 -0.1875 6 0 C8.29013653 3.4352048 8.17842973 4.985331 8 9 C6.35 8.67 4.7 8.34 3 8 C2.77011494 10.36278736 2.77011494 10.36278736 5.5 12.625 C6.7375 13.800625 6.7375 13.800625 8 15 C8.7115625 13.5459375 8.7115625 13.5459375 9.4375 12.0625 C11 9 11 9 12 8 C13.66617115 7.95936168 15.33388095 7.957279 17 8 C18.78409802 11.06246747 19.22880021 13.22079273 19.125 16.75 C19.10695312 17.54921875 19.08890625 18.3484375 19.0703125 19.171875 C19.04710937 19.77515625 19.02390625 20.3784375 19 21 C17.02 21 15.04 21 13 21 C13 21.66 13 22.32 13 23 C14.98 23 16.96 23 19 23 C18.125 28.875 18.125 28.875 17 30 C15.00041636 30.04080783 12.99954746 30.04254356 11 30 C10.34 28.35 9.68 26.7 9 25 C8.01 26.98 7.02 28.96 6 31 C3.125 31.1875 3.125 31.1875 0 31 C-2.56616632 27.15075052 -2.55097676 24.5650696 -3 20 C-1.35 20 0.3 20 2 20 C2 20.99 2 21.98 2 23 C2.66 23 3.32 23 4 23 C3.6404612 19.76415082 3.02072853 19.01718952 0.4375 16.875 C-2.67437755 13.20458033 -2.4930408 11.05785158 -2.37109375 6.40234375 C-1.98584336 3.90835441 -1.25138566 2.17610438 0 0 Z M13 15 C13 15.66 13 16.32 13 17 C13.66 17 14.32 17 15 17 C15 16.34 15 15.68 15 15 C14.34 15 13.68 15 13 15 Z " fill="#9CA09E" transform="translate(172,6)"/>
<path d="M0 0 C1.32 0 2.64 0 4 0 C4 2.31 4 4.62 4 7 C5.32 7 6.64 7 8 7 C8.66 8.65 9.32 10.3 10 12 C10.391875 11.175 10.78375 10.35 11.1875 9.5 C12.0846875 8.2625 12.0846875 8.2625 13 7 C15.6875 6.6875 15.6875 6.6875 18 7 C19.78409802 10.06246747 20.22880021 12.22079273 20.125 15.75 C20.10695312 16.54921875 20.08890625 17.3484375 20.0703125 18.171875 C20.04710937 18.77515625 20.02390625 19.3784375 20 20 C18.02 20 16.04 20 14 20 C14 20.66 14 21.32 14 22 C15.98 22 17.96 22 20 22 C19.125 27.875 19.125 27.875 18 29 C16.00041636 29.04080783 13.99954746 29.04254356 12 29 C11.34 27.35 10.68 25.7 10 24 C9.01 26.475 9.01 26.475 8 29 C5.36 29 2.72 29 0 29 C0 19.43 0 9.86 0 0 Z M4 14 C4 16.64 4 19.28 4 22 C4.66 21.67 5.32 21.34 6 21 C6 19.02 6 17.04 6 15 C5.34 14.67 4.68 14.34 4 14 Z M14 14 C14 14.66 14 15.32 14 16 C14.66 16 15.32 16 16 16 C16 15.34 16 14.68 16 14 C15.34 14 14.68 14 14 14 Z " fill="#9CA09E" transform="translate(137,7)"/>
<path d="M0 0 C7.33333333 0 14.66666667 0 22 0 C22 2.31 22 4.62 22 7 C20.68 7 19.36 7 18 7 C18 14.26 18 21.52 18 29 C16.68 29 15.36 29 14 29 C14 21.74 14 14.48 14 7 C12.68 7 11.36 7 10 7 C10.02320313 7.68707031 10.04640625 8.37414063 10.0703125 9.08203125 C10.09738281 10.43361328 10.09738281 10.43361328 10.125 11.8125 C10.14820313 12.70582031 10.17140625 13.59914063 10.1953125 14.51953125 C10 17 10 17 8 20 C6.68 20 5.36 20 4 20 C4 22.97 4 25.94 4 29 C2.68 29 1.36 29 0 29 C0 19.43 0 9.86 0 0 Z M4 7 C4 8.98 4 10.96 4 13 C4.66 12.67 5.32 12.34 6 12 C5.67 10.35 5.34 8.7 5 7 C4.67 7 4.34 7 4 7 Z " fill="#9CA09E" transform="translate(1,7)"/>
<path d="M0 0 C4.62 0 9.24 0 14 0 C15.20029908 2.40059817 15.11459743 3.89360649 15.09765625 6.5703125 C15.09443359 7.46621094 15.09121094 8.36210937 15.08789062 9.28515625 C15.07951172 10.22230469 15.07113281 11.15945312 15.0625 12.125 C15.05798828 13.06988281 15.05347656 14.01476563 15.04882812 14.98828125 C15.03702375 17.3255477 15.01908799 19.66278169 15 22 C12.03 22 9.06 22 6 22 C5.67 17.38 5.34 12.76 5 8 C4.67 12.62 4.34 17.24 4 22 C2.68 22 1.36 22 0 22 C0 14.74 0 7.48 0 0 Z " fill="#9CA09E" transform="translate(121,14)"/>
<path d="M0 0 C2.64 0 5.28 0 8 0 C8.02891546 4.45831982 8.04676981 8.91661569 8.0625 13.375 C8.07087891 14.64601563 8.07925781 15.91703125 8.08789062 17.2265625 C8.09111328 18.43828125 8.09433594 19.65 8.09765625 20.8984375 C8.10289307 22.01911621 8.10812988 23.13979492 8.11352539 24.29443359 C8 27 8 27 7 29 C4.36 29 1.72 29 -1 29 C-1.33 26.69 -1.66 24.38 -2 22 C-0.35 22.33 1.3 22.66 3 23 C3.33 22.34 3.66 21.68 4 21 C2.68 21 1.36 21 0 21 C-1.77485714 17.17560545 -2.27126874 14.14339266 -2.25 9.9375 C-2.25515625 8.91527344 -2.2603125 7.89304687 -2.265625 6.83984375 C-2.00365182 4.0390422 -1.44074562 2.38409096 0 0 Z M2 7 C2 9.31 2 11.62 2 14 C2.66 14 3.32 14 4 14 C4 11.69 4 9.38 4 7 C3.34 7 2.68 7 2 7 Z " fill="#9CA09E" transform="translate(54,14)"/>
<path d="M0 0 C3.125 -0.1875 3.125 -0.1875 6 0 C7.85776765 3.13498292 8.20140476 5.37471432 8 9 C6.35 8.67 4.7 8.34 3 8 C2.67 8.99 2.34 9.98 2 11 C3.2065625 11.433125 3.2065625 11.433125 4.4375 11.875 C7 13 7 13 8 15 C8.12257461 16.95549256 8.17552388 18.91570618 8.1875 20.875 C8.20167969 21.92429687 8.21585938 22.97359375 8.23046875 24.0546875 C8.00504937 26.93547071 7.48964317 28.56240208 6 31 C3.125 31.125 3.125 31.125 0 31 C-2.39763185 28.60236815 -2.34280586 27.66726502 -2.625 24.375 C-2.69976562 23.55773437 -2.77453125 22.74046875 -2.8515625 21.8984375 C-2.90054688 21.27195312 -2.94953125 20.64546875 -3 20 C-1.35 20.33 0.3 20.66 2 21 C2 21.66 2 22.32 2 23 C2.66 23 3.32 23 4 23 C4 21.68 4 20.36 4 19 C3.071875 18.566875 3.071875 18.566875 2.125 18.125 C0 17 0 17 -2 15 C-2.265625 12.28515625 -2.265625 12.28515625 -2.25 9.0625 C-2.25515625 8.00160156 -2.2603125 6.94070312 -2.265625 5.84765625 C-2 3 -2 3 0 0 Z " fill="#9CA09E" transform="translate(102,6)"/>
<path d="M0 0 C2.97 0 5.94 0 9 0 C9 7.26 9 14.52 9 22 C6.36 22 3.72 22 1 22 C-0.20029908 19.59940183 -0.11459743 18.10639351 -0.09765625 15.4296875 C-0.09443359 14.53378906 -0.09121094 13.63789063 -0.08789062 12.71484375 C-0.07951172 11.77769531 -0.07113281 10.84054688 -0.0625 9.875 C-0.05798828 8.93011719 -0.05347656 7.98523438 -0.04882812 7.01171875 C-0.03702375 4.6744523 -0.01908799 2.33721831 0 0 Z " fill="#9CA09E" transform="translate(111,14)"/>
<path d="M0 0 C2.31 0 4.62 0 7 0 C6.67 2.31 6.34 4.62 6 7 C5.34 7 4.68 7 4 7 C4 11.95 4 16.9 4 22 C2.68 22 1.36 22 0 22 C0 14.74 0 7.48 0 0 Z " fill="#9CA09E" transform="translate(158,14)"/>
<path d="M0 0 C1.32 0 2.64 0 4 0 C4 2.64 4 5.28 4 8 C2.68 8 1.36 8 0 8 C0 5.36 0 2.72 0 0 Z " fill="#9CA09E" transform="translate(21,28)"/>
<path d="M0 0 C1.32 0 2.64 0 4 0 C4 1.65 4 3.3 4 5 C2.68 5 1.36 5 0 5 C0 3.35 0 1.7 0 0 Z " fill="#9CA09E" transform="translate(192,7)"/>
</svg>
