<?xml version="1.0" encoding="UTF-8"?>
<svg version="1.1" xmlns="http://www.w3.org/2000/svg" width="258" height="43">
<path d="M0 0 C1.65 0 3.3 0 5 0 C5.33 1.32 5.66 2.64 6 4 C6.66 2.68 7.32 1.36 8 0 C9.65 0 11.3 0 13 0 C13.33 2.31 13.66 4.62 14 7 C14.33 4.69 14.66 2.38 15 0 C16.65 0 18.3 0 20 0 C18.66477273 29.00568182 18.66477273 29.00568182 17 34 C15.35 34 13.7 34 12 34 C11.34 30.7 10.68 27.4 10 24 C9.855625 25.464375 9.71125 26.92875 9.5625 28.4375 C9.125 32.875 9.125 32.875 8 34 C6.35 34 4.7 34 3 34 C2.01 22.78 1.02 11.56 0 0 Z " fill="#9CA09E" transform="translate(37,6)"/>
<path d="M0 0 C1.98 0 3.96 0 6 0 C7.20272819 2.40545638 7.10071472 3.94996953 7.0625 6.625 C7.05347656 7.44226563 7.04445312 8.25953125 7.03515625 9.1015625 C7.02355469 9.72804688 7.01195312 10.35453125 7 11 C7.66 11 8.32 11 9 11 C8.98839844 10.28972656 8.97679687 9.57945313 8.96484375 8.84765625 C8.95130859 7.46900391 8.95130859 7.46900391 8.9375 6.0625 C8.92589844 5.14597656 8.91429687 4.22945312 8.90234375 3.28515625 C9 1 9 1 10 0 C11.98 0 13.96 0 16 0 C16 11.22 16 22.44 16 34 C14.68 34 13.36 34 12 34 C11.67 32.68 11.34 31.36 11 30 C10.67 31.32 10.34 32.64 10 34 C8.68 34 7.36 34 6 34 C5.67 32.68 5.34 31.36 5 30 C4.67 31.32 4.34 32.64 4 34 C2.68 34 1.36 34 0 34 C0 22.78 0 11.56 0 0 Z " fill="#9CA09E" transform="translate(137,6)"/>
<path d="M0 0 C2.5625 0.375 2.5625 0.375 4.3125 2.0625 C5.64432447 4.52637528 6.17879106 6.61229565 6.5625 9.375 C6.76746094 8.80910156 6.97242187 8.24320313 7.18359375 7.66015625 C7.45300781 6.92667969 7.72242187 6.19320313 8 5.4375 C8.26683594 4.70660156 8.53367187 3.97570312 8.80859375 3.22265625 C9.5625 1.375 9.5625 1.375 10.5625 0.375 C12.9375 0.0625 12.9375 0.0625 15.5625 0.375 C19.152106 3.964606 19.54280197 7.19311824 19.625 12.125 C19.604375 13.1975 19.58375 14.27 19.5625 15.375 C16.9225 15.375 14.2825 15.375 11.5625 15.375 C12.2225 16.695 12.8825 18.015 13.5625 19.375 C15.2125 19.045 16.8625 18.715 18.5625 18.375 C18.8925 19.035 19.2225 19.695 19.5625 20.375 C18.62803465 22.40644641 17.63025224 24.41033587 16.5625 26.375 C13.75 26.6875 13.75 26.6875 10.5625 26.375 C8.31192483 23.58118254 7.21282557 20.88675807 6.5625 17.375 C6.129375 19.045625 6.129375 19.045625 5.6875 20.75 C4.5625 24.375 4.5625 24.375 2.5625 26.375 C0.125 26.8125 0.125 26.8125 -2.4375 26.375 C-6.2630895 22.2761541 -6.45339816 16.74857792 -6.4375 11.375 C-5.12214829 0.78802281 -5.12214829 0.78802281 0 0 Z M-0.4375 6.375 C-1.3189688 9.01940639 -1.59924818 10.65560752 -1.625 13.375 C-1.63917969 14.055625 -1.65335937 14.73625 -1.66796875 15.4375 C-1.54690411 17.70114132 -1.54690411 17.70114132 0.5625 20.375 C1.80137548 17.89724905 1.72991669 16.13846293 1.75 13.375 C1.76417969 12.488125 1.77835938 11.60125 1.79296875 10.6875 C1.78963126 8.17980016 1.78963126 8.17980016 -0.4375 6.375 Z M12.5625 6.375 C12.2325 7.695 11.9025 9.015 11.5625 10.375 C12.5525 10.375 13.5425 10.375 14.5625 10.375 C14.2325 9.055 13.9025 7.735 13.5625 6.375 C13.2325 6.375 12.9025 6.375 12.5625 6.375 Z " fill="#9CA09E" transform="translate(84.4375,14.625)"/>
<path d="M0 0 C0.66 0 1.32 0 2 0 C3.66965451 0.31802943 5.33678518 0.64984951 7 1 C7.98043964 3.94131891 8.11621202 5.82501665 8.09765625 8.88671875 C8.09443359 9.82451172 8.09121094 10.76230469 8.08789062 11.72851562 C8.07951172 12.70498047 8.07113281 13.68144531 8.0625 14.6875 C8.05798828 15.67556641 8.05347656 16.66363281 8.04882812 17.68164062 C8.03704303 20.12115474 8.02059011 22.56054689 8 25 C6.35 25 4.7 25 3 25 C2.67 20.05 2.34 15.1 2 10 C1.67 14.95 1.34 19.9 1 25 C-0.32 25 -1.64 25 -3 25 C-3.33 19.72 -3.66 14.44 -4 9 C-4.33 14.28 -4.66 19.56 -5 25 C-6.65 25 -8.3 25 -10 25 C-10 17.08 -10 9.16 -10 1 C-6.31116522 0.26223304 -3.6477482 -0.09858779 0 0 Z " fill="#9CA09E" transform="translate(199,15)"/>
<path d="M0 0 C3.3 0 6.6 0 10 0 C12.48216434 3.72324651 12.29625107 6.6322959 12.25 10.9375 C12.25773438 11.65357422 12.26546875 12.36964844 12.2734375 13.10742188 C12.25941611 16.88969269 12.10955794 19.79380678 10 23 C8.35 23 6.7 23 5 23 C5 26.63 5 30.26 5 34 C3.35 34 1.7 34 0 34 C0 22.78 0 11.56 0 0 Z M5 8 C5 10.31 5 12.62 5 15 C5.66 14.67 6.32 14.34 7 14 C7 12.35 7 10.7 7 9 C6.34 8.67 5.68 8.34 5 8 Z " fill="#9CA09E" transform="translate(1,6)"/>
<path d="M0 0 C1.32 0 2.64 0 4 0 C4 11.22 4 22.44 4 34 C-0.455 34.495 -0.455 34.495 -5 35 C-7.2828729 30.44331322 -7.30125057 26.41307575 -7.25 21.4375 C-7.25773438 20.68275391 -7.26546875 19.92800781 -7.2734375 19.15039062 C-7.2598568 15.29686833 -7.18014902 12.26157215 -5 9 C-3.68 9 -2.36 9 -1 9 C-0.67 6.03 -0.34 3.06 0 0 Z M-2 15 C-2.2236337 16.41433206 -2.42826476 17.83167618 -2.625 19.25 C-2.74101562 20.03890625 -2.85703125 20.8278125 -2.9765625 21.640625 C-3.00319395 24.32152459 -2.36592084 25.72694089 -1 28 C0.5635348 24.87293041 0.39958487 21.42017557 0 18 C-0.66 17.01 -1.32 16.02 -2 15 Z " fill="#9CA09E" transform="translate(228,6)"/>
<path d="M0 0 C3.3 0.33 6.6 0.66 10 1 C10 9.91 10 18.82 10 28 C8.35 28 6.7 28 5 28 C4.67 26.68 4.34 25.36 4 24 C2.68 24 1.36 24 0 24 C-1.96157384 19.89003576 -2.2695411 16.53353543 -2.25 12 C-2.25773437 10.205625 -2.25773437 10.205625 -2.265625 8.375 C-2.01117201 5.14195026 -1.38687122 2.90582541 0 0 Z M3 7 C3 10.3 3 13.6 3 17 C3.66 16.67 4.32 16.34 5 16 C5 13.36 5 10.72 5 8 C4.34 7.67 3.68 7.34 3 7 Z " fill="#9CA09E" transform="translate(119,15)"/>
<path d="M0 0 C3.125 0.375 3.125 0.375 4.80859375 2.25390625 C6.70555341 6.75144562 6.44546698 10.86318529 6.3125 15.6875 C6.29896484 16.61884766 6.28542969 17.55019531 6.27148438 18.50976562 C6.23626882 20.79877646 6.18702099 23.08658458 6.125 25.375 C4.97451172 25.35953125 4.97451172 25.35953125 3.80078125 25.34375 C1.11339234 25.37513556 -1.26111582 25.77754076 -3.875 26.375 C-6.25566153 22.80400771 -6.39821384 20.78456378 -6.34375 16.59765625 C-5.53125384 12.7450703 -3.02304492 11.53928088 0.125 9.375 C0.125 8.715 0.125 8.055 0.125 7.375 C-0.205 8.035 -0.535 8.695 -0.875 9.375 C-2.525 9.045 -4.175 8.715 -5.875 8.375 C-3.72336066 0.48565574 -3.72336066 0.48565574 0 0 Z M0.125 15.375 C-0.205 17.025 -0.535 18.675 -0.875 20.375 C-0.215 19.715 0.445 19.055 1.125 18.375 C0.795 17.385 0.465 16.395 0.125 15.375 Z " fill="#9CA09E" transform="translate(245.875,14.625)"/>
<path d="M0 0 C3.125 0.375 3.125 0.375 4.80859375 2.25390625 C6.70555341 6.75144562 6.44546698 10.86318529 6.3125 15.6875 C6.29896484 16.61884766 6.28542969 17.55019531 6.27148438 18.50976562 C6.23626882 20.79877646 6.18702099 23.08658458 6.125 25.375 C4.97451172 25.35953125 4.97451172 25.35953125 3.80078125 25.34375 C1.11339234 25.37513556 -1.26111582 25.77754076 -3.875 26.375 C-6.25566153 22.80400771 -6.39821384 20.78456378 -6.34375 16.59765625 C-5.53125384 12.7450703 -3.02304492 11.53928088 0.125 9.375 C0.125 8.715 0.125 8.055 0.125 7.375 C-0.205 8.035 -0.535 8.695 -0.875 9.375 C-2.525 9.045 -4.175 8.715 -5.875 8.375 C-3.72336066 0.48565574 -3.72336066 0.48565574 0 0 Z M0.125 15.375 C-0.205 17.025 -0.535 18.675 -0.875 20.375 C-0.215 19.715 0.445 19.055 1.125 18.375 C0.795 17.385 0.465 16.395 0.125 15.375 Z " fill="#9CA09E" transform="translate(62.875,14.625)"/>
<path d="M0 0 C2.8125 -0.3125 2.8125 -0.3125 6 0 C9.12637446 3.12637446 9.16954678 6.0934939 9.1875 10.3125 C9.13958275 11.87551517 9.08187055 13.43839515 9 15 C6.69 15 4.38 15 2 15 C2 16.32 2 17.64 2 19 C3.98 18.67 5.96 18.34 8 18 C9 21 9 21 7.9375 23.6875 C6 26 6 26 2.8125 26.3125 C1.884375 26.209375 0.95625 26.10625 0 26 C-3.61687897 19.36905522 -4.4623046 12.00881347 -2.3203125 4.671875 C-1.5 2.75 -1.5 2.75 0 0 Z M2 7 C2 7.99 2 8.98 2 10 C2.99 9.67 3.98 9.34 5 9 C4.67 8.34 4.34 7.68 4 7 C3.34 7 2.68 7 2 7 Z " fill="#9CA09E" transform="translate(211,15)"/>
<path d="M0 0 C4.62 0 9.24 0 14 0 C14 2.64 14 5.28 14 8 C12.35 8 10.7 8 9 8 C9 16.58 9 25.16 9 34 C7.35 34 5.7 34 4 34 C4 25.42 4 16.84 4 8 C2.68 8 1.36 8 0 8 C0 5.36 0 2.72 0 0 Z " fill="#9CA09E" transform="translate(14,6)"/>
<path d="M0 0 C1.65 0 3.3 0 5 0 C5.33 4.29 5.66 8.58 6 13 C6.33 8.71 6.66 4.42 7 0 C8.32 0 9.64 0 11 0 C11 7.92 11 15.84 11 24 C8.03 24.33 5.06 24.66 2 25 C-0.20192224 21.69711664 -0.23959968 20.72537273 -0.1953125 16.89453125 C-0.18886719 15.91162109 -0.18242187 14.92871094 -0.17578125 13.91601562 C-0.15902344 12.89185547 -0.14226562 11.86769531 -0.125 10.8125 C-0.11597656 9.77673828 -0.10695312 8.74097656 -0.09765625 7.67382812 C-0.0740786 5.11565315 -0.0411703 2.55794252 0 0 Z " fill="#9CA09E" transform="translate(155,16)"/>
<path d="M0 0 C1.25248502 2.50497004 1.11374406 4.20853274 1.09765625 7.0078125 C1.09443359 7.99394531 1.09121094 8.98007812 1.08789062 9.99609375 C1.07951172 11.02863281 1.07113281 12.06117187 1.0625 13.125 C1.05798828 14.16527344 1.05347656 15.20554687 1.04882812 16.27734375 C1.03701952 18.85161962 1.02055075 21.42578146 1 24 C-0.65 24 -2.3 24 -4 24 C-4.33 19.05 -4.66 14.1 -5 9 C-5.33 13.95 -5.66 18.9 -6 24 C-7.32 24 -8.64 24 -10 24 C-10 16.08 -10 8.16 -10 0 C-3.95604396 -1.20879121 -3.95604396 -1.20879121 0 0 Z " fill="#9CA09E" transform="translate(115,16)"/>
<path d="M0 0 C0.66 0 1.32 0 2 0 C2 3.3 2 6.6 2 10 C2.66 10 3.32 10 4 10 C4 12.31 4 14.62 4 17 C3.34 17 2.68 17 2 17 C2 20.63 2 24.26 2 28 C2.66 28 3.32 28 4 28 C4 30.31 4 32.62 4 35 C2.02 35 0.04 35 -2 35 C-3.97416232 31.05167535 -3.48699494 26.16212318 -3.6875 21.8125 C-3.74744141 20.78318359 -3.80738281 19.75386719 -3.86914062 18.69335938 C-4.20466995 11.5185473 -4.08747602 6.13121403 0 0 Z " fill="#9CA09E" transform="translate(178,6)"/>
<path d="M0 0 C1.65 0 3.3 0 5 0 C5 11.22 5 22.44 5 34 C3.35 34 1.7 34 0 34 C0 22.78 0 11.56 0 0 Z " fill="#9CA09E" transform="translate(168,6)"/>
<path d="M0 0 C-0.25561323 2.3431213 -0.59270772 4.67843403 -1 7 C-1.99 7.495 -1.99 7.495 -3 8 C-3.31241455 10.71446979 -3.51336592 13.33909361 -3.625 16.0625 C-3.66367188 16.82111328 -3.70234375 17.57972656 -3.7421875 18.36132812 C-3.83673562 20.24047195 -3.91946756 22.12020336 -4 24 C-5.65 24 -7.3 24 -9 24 C-9 16.08 -9 8.16 -9 0 C-3.375 -1.125 -3.375 -1.125 0 0 Z " fill="#9CA09E" transform="translate(79,16)"/>
<path d="M0 0 C1.65 0 3.3 0 5 0 C5 7.92 5 15.84 5 24 C3.35 24 1.7 24 0 24 C0 16.08 0 8.16 0 0 Z " fill="#9CA09E" transform="translate(234,16)"/>
<path d="M0 0 C1.32 0 2.64 0 4 0 C4 7.92 4 15.84 4 24 C2.68 24 1.36 24 0 24 C0 16.08 0 8.16 0 0 Z " fill="#9CA09E" transform="translate(183,16)"/>
<path d="M0 0 C1.65 0 3.3 0 5 0 C5 2.97 5 5.94 5 9 C3.35 9 1.7 9 0 9 C0 6.03 0 3.06 0 0 Z " fill="#9CA09E" transform="translate(25,31)"/>
<path d="M0 0 C1.65 0 3.3 0 5 0 C5 2.31 5 4.62 5 7 C3.35 7 1.7 7 0 7 C0 4.69 0 2.38 0 0 Z " fill="#9CA09E" transform="translate(234,6)"/>
<path d="M0 0 C1.32 0 2.64 0 4 0 C4 2.31 4 4.62 4 7 C2.68 7 1.36 7 0 7 C0 4.69 0 2.38 0 0 Z " fill="#9CA09E" transform="translate(183,6)"/>
<path d="M0 0 C2.475 0.495 2.475 0.495 5 1 C5 1.33 5 1.66 5 2 C3.35 2 1.7 2 0 2 C0 1.34 0 0.68 0 0 Z " fill="#9CA09E" transform="translate(117,41)"/>
</svg>
