<?xml version="1.0" encoding="UTF-8"?>
<svg version="1.1" xmlns="http://www.w3.org/2000/svg" width="258" height="43">
<path d="M0 0 C1.98 0 3.96 0 6 0 C7.32 7.92 8.64 15.84 10 24 C10.33 19.05 10.66 14.1 11 9 C17.8359375 8.0234375 17.8359375 8.0234375 20 8 C22 10 22 10 22.22705078 12.33837891 C22.21657715 13.29147949 22.20610352 14.24458008 22.1953125 15.2265625 C22.18886719 16.2578125 22.18242188 17.2890625 22.17578125 18.3515625 C22.15902344 19.43179687 22.14226562 20.51203125 22.125 21.625 C22.11597656 22.71296875 22.10695313 23.8009375 22.09765625 24.921875 C22.07403409 27.61480152 22.04109556 30.30729255 22 33 C20.68 33 19.36 33 18 33 C17.67 28.05 17.34 23.1 17 18 C16.67 22.95 16.34 27.9 16 33 C12.37 33 8.74 33 5 33 C5 31.35 5 29.7 5 28 C3.68 28 2.36 28 1 28 C0.67 29.65 0.34 31.3 0 33 C-1.65 33 -3.3 33 -5 33 C-4.54757308 29.37423797 -4.08695367 25.74955955 -3.625 22.125 C-3.49867187 21.11179687 -3.37234375 20.09859375 -3.2421875 19.0546875 C-2.41956494 12.63823152 -1.3656753 6.32347985 0 0 Z M2 15 C2 16.65 2 18.3 2 20 C2.66 20 3.32 20 4 20 C3.67 18.35 3.34 16.7 3 15 C2.67 15 2.34 15 2 15 Z " fill="#9CA09E" transform="translate(95,8)"/>
<path d="M0 0 C3.63 0 7.26 0 11 0 C13.4078919 3.61183784 13.18277253 5.22791982 13.0625 9.5 C12.91808351 14.33699775 12.91808351 14.33699775 14 19 C14.40774083 23.18718469 14.2677291 26.99086725 13.1875 31.0625 C11 33 11 33 0 33 C0 22.11 0 11.22 0 0 Z M6 8 C6 9.32 6 10.64 6 12 C6.66 12 7.32 12 8 12 C8 10.68 8 9.36 8 8 C7.34 8 6.68 8 6 8 Z M6 20 C6 21.65 6 23.3 6 25 C6.99 24.67 7.98 24.34 9 24 C8.67 22.68 8.34 21.36 8 20 C7.34 20 6.68 20 6 20 Z " fill="#9CA09E" transform="translate(38,8)"/>
<path d="M0 0 C0.94875 0.04125 1.8975 0.0825 2.875 0.125 C5.875 6.75 5.875 6.75 5.875 10.125 C1.125 10.25 1.125 10.25 -1.125 9.125 C0.11051244 12.83153731 1.84165078 13.77415435 4.875 16.125 C6.21327901 18.80155801 6.08078556 20.94934052 6.125 23.9375 C6.16367188 25.49404297 6.16367188 25.49404297 6.203125 27.08203125 C5.82865513 30.55479351 5.05849282 32.4093119 2.875 35.125 C-0.8125 35.4375 -0.8125 35.4375 -4.125 35.125 C-6.54185712 30.89550005 -7.47333144 28.00164009 -7.125 23.125 C-4.75 22.9375 -4.75 22.9375 -2.125 23.125 C-1.465 24.115 -0.805 25.105 -0.125 26.125 C-0.43574608 22.49962911 -0.92738883 21.31273061 -3.625 18.75 C-6.77356226 15.44400963 -7.04705088 13.64604883 -7.125 9.125 C-5.22486772 0.20899471 -5.22486772 0.20899471 0 0 Z " fill="#9CA09E" transform="translate(189.125,6.875)"/>
<path d="M0 0 C3.3 0 6.6 0 10 0 C12.48216434 3.72324651 12.29625107 6.6322959 12.25 10.9375 C12.25773438 11.65357422 12.26546875 12.36964844 12.2734375 13.10742188 C12.25941611 16.88969269 12.10955794 19.79380678 10 23 C8.35 23 6.7 23 5 23 C5 26.3 5 29.6 5 33 C3.35 33 1.7 33 0 33 C0 22.11 0 11.22 0 0 Z M5 8 C5 10.31 5 12.62 5 15 C5.66 14.67 6.32 14.34 7 14 C7 12.35 7 10.7 7 9 C6.34 8.67 5.68 8.34 5 8 Z " fill="#9CA09E" transform="translate(1,8)"/>
<path d="M0 0 C1.65 0 3.3 0 5 0 C5 10.89 5 21.78 5 33 C0.545 33.495 0.545 33.495 -4 34 C-7.77769453 28.3334582 -7.56742078 21.62936615 -7 15 C-6.23605014 12.41944845 -5.2741349 10.38900294 -4 8 C-2.68 8 -1.36 8 0 8 C0 5.36 0 2.72 0 0 Z M-2 15 C-2 18.96 -2 22.92 -2 27 C-1.34 27 -0.68 27 0 27 C0 23.04 0 19.08 0 15 C-0.66 15 -1.32 15 -2 15 Z " fill="#9CA09E" transform="translate(125,8)"/>
<path d="M0 0 C3 0.25 3 0.25 5 2.25 C6.41525466 6.90520872 6.1119147 11.74646704 6.0625 16.5625 C6.05798828 17.39845703 6.05347656 18.23441406 6.04882812 19.09570312 C6.03710548 21.14716649 6.01917203 23.19859273 6 25.25 C2.37 25.58 -1.26 25.91 -5 26.25 C-6.84539076 22.55921847 -6.48322467 18.27904896 -6 14.25 C-4.1875 11.8125 -4.1875 11.8125 -2 10.25 C-1.4225 9.6725 -0.845 9.095 -0.25 8.5 C0.1625 8.0875 0.575 7.675 1 7.25 C0.34 7.25 -0.32 7.25 -1 7.25 C-1 7.91 -1 8.57 -1 9.25 C-2.65 8.92 -4.3 8.59 -6 8.25 C-4.97802198 0.41483516 -4.97802198 0.41483516 0 0 Z M0 15.25 C-0.33 16.57 -0.66 17.89 -1 19.25 C-0.34 18.92 0.32 18.59 1 18.25 C0.67 17.26 0.34 16.27 0 15.25 Z " fill="#9CA09E" transform="translate(249,15.75)"/>
<path d="M0 0 C3 0.25 3 0.25 5 2.25 C6.41525466 6.90520872 6.1119147 11.74646704 6.0625 16.5625 C6.05798828 17.39845703 6.05347656 18.23441406 6.04882812 19.09570312 C6.03710548 21.14716649 6.01917203 23.19859273 6 25.25 C2.37 25.58 -1.26 25.91 -5 26.25 C-6.84539076 22.55921847 -6.48322467 18.27904896 -6 14.25 C-4.1875 11.8125 -4.1875 11.8125 -2 10.25 C-1.4225 9.6725 -0.845 9.095 -0.25 8.5 C0.1625 8.0875 0.575 7.675 1 7.25 C0.34 7.25 -0.32 7.25 -1 7.25 C-1 7.91 -1 8.57 -1 9.25 C-2.65 8.92 -4.3 8.59 -6 8.25 C-4.97802198 0.41483516 -4.97802198 0.41483516 0 0 Z M0 15.25 C-0.33 16.57 -0.66 17.89 -1 19.25 C-0.34 18.92 0.32 18.59 1 18.25 C0.67 17.26 0.34 16.27 0 15.25 Z " fill="#9CA09E" transform="translate(202,15.75)"/>
<path d="M0 0 C0.86963087 2.99706695 1.11763099 5.64956526 1.09765625 8.765625 C1.09443359 9.65507812 1.09121094 10.54453125 1.08789062 11.4609375 C1.07951172 12.38132812 1.07113281 13.30171875 1.0625 14.25 C1.05798828 15.18585937 1.05347656 16.12171875 1.04882812 17.0859375 C1.03706918 19.39069041 1.02063426 21.69531227 1 24 C-0.65 24 -2.3 24 -4 24 C-4.33 18.72 -4.66 13.44 -5 8 C-5.33 13.28 -5.66 18.56 -6 24 C-7.65 24 -9.3 24 -11 24 C-11 16.08 -11 8.16 -11 0 C-4.25 -1.125 -4.25 -1.125 0 0 Z " fill="#9CA09E" transform="translate(241,17)"/>
<path d="M0 0 C3.125 0.375 3.125 0.375 4.80859375 2.25390625 C6.70555341 6.75144562 6.44546698 10.86318529 6.3125 15.6875 C6.29896484 16.61884766 6.28542969 17.55019531 6.27148438 18.50976562 C6.23626882 20.79877646 6.18702099 23.08658458 6.125 25.375 C4.97451172 25.35953125 4.97451172 25.35953125 3.80078125 25.34375 C1.11339234 25.37513556 -1.26111582 25.77754076 -3.875 26.375 C-6.25566153 22.80400771 -6.39821384 20.78456378 -6.34375 16.59765625 C-5.53125384 12.7450703 -3.02304492 11.53928088 0.125 9.375 C0.125 8.715 0.125 8.055 0.125 7.375 C-0.205 8.035 -0.535 8.695 -0.875 9.375 C-2.525 9.045 -4.175 8.715 -5.875 8.375 C-3.72336066 0.48565574 -3.72336066 0.48565574 0 0 Z M0.125 15.375 C-0.205 17.025 -0.535 18.675 -0.875 20.375 C-0.215 19.715 0.445 19.055 1.125 18.375 C0.795 17.385 0.465 16.395 0.125 15.375 Z " fill="#9CA09E" transform="translate(155.875,15.625)"/>
<path d="M0 0 C3.125 0.375 3.125 0.375 4.80859375 2.25390625 C6.70555341 6.75144562 6.44546698 10.86318529 6.3125 15.6875 C6.29896484 16.61884766 6.28542969 17.55019531 6.27148438 18.50976562 C6.23626882 20.79877646 6.18702099 23.08658458 6.125 25.375 C4.97451172 25.35953125 4.97451172 25.35953125 3.80078125 25.34375 C1.11339234 25.37513556 -1.26111582 25.77754076 -3.875 26.375 C-6.25566153 22.80400771 -6.39821384 20.78456378 -6.34375 16.59765625 C-5.53125384 12.7450703 -3.02304492 11.53928088 0.125 9.375 C0.125 8.715 0.125 8.055 0.125 7.375 C-0.205 8.035 -0.535 8.695 -0.875 9.375 C-2.525 9.045 -4.175 8.715 -5.875 8.375 C-3.72336066 0.48565574 -3.72336066 0.48565574 0 0 Z M0.125 15.375 C-0.205 17.025 -0.535 18.675 -0.875 20.375 C-0.215 19.715 0.445 19.055 1.125 18.375 C0.795 17.385 0.465 16.395 0.125 15.375 Z " fill="#9CA09E" transform="translate(136.875,15.625)"/>
<path d="M0 0 C3.625 -0.1875 3.625 -0.1875 7 0 C8.83069903 3.12929178 9.23931181 5.37643146 9.1953125 8.984375 C9.18564453 10.38623047 9.18564453 10.38623047 9.17578125 11.81640625 C9.15902344 12.78449219 9.14226562 13.75257812 9.125 14.75 C9.11597656 15.73355469 9.10695312 16.71710937 9.09765625 17.73046875 C9.07412925 20.15375026 9.03825937 22.57690631 9 25 C4.05 25.495 4.05 25.495 -1 26 C-3.40452049 21.19095901 -3.36935752 18.12780689 -2 13 C-0.0625 10.9375 -0.0625 10.9375 2 10 C2.66 10 3.32 10 4 10 C3.67 9.01 3.34 8.02 3 7 C2.67 7.66 2.34 8.32 2 9 C0.68 9 -0.64 9 -2 9 C-2.25 3.375 -2.25 3.375 0 0 Z M3 15 C2.67 16.32 2.34 17.64 2 19 C2.66 19 3.32 19 4 19 C3.67 17.68 3.34 16.36 3 15 Z " fill="#9CA09E" transform="translate(220,16)"/>
<path d="M0 0 C1.175625 0.0825 2.35125 0.165 3.5625 0.25 C5.71999784 3.48624676 5.84610488 4.59394066 5.9765625 8.35546875 C6.01523438 9.33837891 6.05390625 10.32128906 6.09375 11.33398438 C6.1246875 12.35814453 6.155625 13.38230469 6.1875 14.4375 C6.22617188 15.47326172 6.26484375 16.50902344 6.3046875 17.57617188 C6.39897869 20.13382027 6.48182918 22.69188578 6.5625 25.25 C2.9325 25.58 -0.6975 25.91 -4.4375 26.25 C-7.16374647 17.46542803 -7.16374647 17.46542803 -4.4375 12.25 C-1.8125 9.875 -1.8125 9.875 0.5625 8.25 C-0.6440625 8.5284375 -0.6440625 8.5284375 -1.875 8.8125 C-2.720625 8.956875 -3.56625 9.10125 -4.4375 9.25 C-4.7675 8.92 -5.0975 8.59 -5.4375 8.25 C-4.58933246 0.33376963 -4.58933246 0.33376963 0 0 Z M0.5625 15.25 C-0.0975 16.57 -0.7575 17.89 -1.4375 19.25 C-0.7775 19.25 -0.1175 19.25 0.5625 19.25 C0.8925 17.93 1.2225 16.61 1.5625 15.25 C1.2325 15.25 0.9025 15.25 0.5625 15.25 Z " fill="#9CA09E" transform="translate(77.4375,15.75)"/>
<path d="M0 0 C1.27861615 2.55723229 1.11336609 4.36737102 1.09765625 7.2265625 C1.09443359 8.2578125 1.09121094 9.2890625 1.08789062 10.3515625 C1.07951172 11.43179687 1.07113281 12.51203125 1.0625 13.625 C1.05798828 14.71296875 1.05347656 15.8009375 1.04882812 16.921875 C1.03701776 19.61463789 1.02054778 22.30729188 1 25 C-0.32 25 -1.64 25 -3 25 C-3 19.39 -3 13.78 -3 8 C-3.66 8 -4.32 8 -5 8 C-5 13.61 -5 19.22 -5 25 C-6.65 25 -8.3 25 -10 25 C-10 17.08 -10 9.16 -10 1 C-4 0 -4 0 0 0 Z " fill="#9CA09E" transform="translate(173,16)"/>
<path d="M0 0 C1.27861615 2.55723229 1.11336609 4.36737102 1.09765625 7.2265625 C1.09443359 8.2578125 1.09121094 9.2890625 1.08789062 10.3515625 C1.07951172 11.43179687 1.07113281 12.51203125 1.0625 13.625 C1.05798828 14.71296875 1.05347656 15.8009375 1.04882812 16.921875 C1.03701776 19.61463789 1.02054778 22.30729188 1 25 C-0.32 25 -1.64 25 -3 25 C-3 19.39 -3 13.78 -3 8 C-3.66 8 -4.32 8 -5 8 C-5 13.61 -5 19.22 -5 25 C-6.65 25 -8.3 25 -10 25 C-10 17.08 -10 9.16 -10 1 C-4 0 -4 0 0 0 Z " fill="#9CA09E" transform="translate(69,16)"/>
<path d="M0 0 C4.29 0 8.58 0 13 0 C13 2.64 13 5.28 13 8 C11.68 8 10.36 8 9 8 C9 16.25 9 24.5 9 33 C7.35 33 5.7 33 4 33 C4 24.75 4 16.5 4 8 C2.68 8 1.36 8 0 8 C0 5.36 0 2.72 0 0 Z " fill="#9CA09E" transform="translate(14,8)"/>
<path d="M0 0 C1.65 0 3.3 0 5 0 C5 10.89 5 21.78 5 33 C3.35 33 1.7 33 0 33 C0 22.11 0 11.22 0 0 Z " fill="#9CA09E" transform="translate(144,8)"/>
<path d="M0 0 C-0.33 2.31 -0.66 4.62 -1 7 C-1.99 7 -2.98 7 -4 7 C-4 12.61 -4 18.22 -4 24 C-5.65 24 -7.3 24 -9 24 C-9 16.08 -9 8.16 -9 0 C-3.375 -1.125 -3.375 -1.125 0 0 Z " fill="#9CA09E" transform="translate(218,17)"/>
<path d="M0 0 C1.65 0 3.3 0 5 0 C5 7.92 5 15.84 5 24 C3.35 24 1.7 24 0 24 C0 16.08 0 8.16 0 0 Z " fill="#9CA09E" transform="translate(53,17)"/>
<path d="M0 0 C1.65 0 3.3 0 5 0 C5 2.97 5 5.94 5 9 C3.35 9 1.7 9 0 9 C0 6.03 0 3.06 0 0 Z " fill="#9CA09E" transform="translate(25,32)"/>
<path d="M0 0 C1.65 0 3.3 0 5 0 C5 1.98 5 3.96 5 6 C3.35 6 1.7 6 0 6 C0 4.02 0 2.04 0 0 Z " fill="#9CA09E" transform="translate(53,8)"/>
</svg>
