<?xml version="1.0" encoding="UTF-8"?>
<svg version="1.1" xmlns="http://www.w3.org/2000/svg" width="258" height="43">
<path d="M0 0 C3.625 0.3125 3.625 0.3125 5.5625 2 C6.77320847 4.63507137 6.8639871 6.44465478 6.625 9.3125 C4.25 9.9375 4.25 9.9375 1.625 10.3125 C0.965 9.6525 0.305 8.9925 -0.375 8.3125 C-1.73771133 11.03792267 -1.54423601 13.27337274 -1.5625 16.3125 C-1.58376953 17.92125 -1.58376953 17.92125 -1.60546875 19.5625 C-1.66085786 22.45703096 -1.66085786 22.45703096 0.625 24.3125 C1.285 22.9925 1.945 21.6725 2.625 20.3125 C1.635 20.3125 0.645 20.3125 -0.375 20.3125 C-0.375 18.0025 -0.375 15.6925 -0.375 13.3125 C1.48125 13.4671875 1.48125 13.4671875 3.375 13.625 C5.57444881 13.70741432 5.57444881 13.70741432 7.625 13.3125 C9.82642332 10.8734294 9.82642332 10.8734294 11.625 8.3125 C14.1875 7.75 14.1875 7.75 16.625 8.3125 C18.4375 10.3125 18.4375 10.3125 19.625 12.3125 C19.955 11.3225 20.285 10.3325 20.625 9.3125 C23.925 8.9825 27.225 8.6525 30.625 8.3125 C31.8513757 10.76525141 31.73915314 12.3630781 31.72265625 15.1015625 C31.71943359 16.04257812 31.71621094 16.98359375 31.71289062 17.953125 C31.70032227 19.43039063 31.70032227 19.43039063 31.6875 20.9375 C31.68298828 21.93007813 31.67847656 22.92265625 31.67382812 23.9453125 C31.66202145 26.4011016 31.645554 28.85677104 31.625 31.3125 C30.305 31.3125 28.985 31.3125 27.625 31.3125 C27.625 26.3625 27.625 21.4125 27.625 16.3125 C26.965 16.3125 26.305 16.3125 25.625 16.3125 C25.625 21.2625 25.625 26.2125 25.625 31.3125 C23.975 31.3125 22.325 31.3125 20.625 31.3125 C20.625 28.0125 20.625 24.7125 20.625 21.3125 C17.985 21.3125 15.345 21.3125 12.625 21.3125 C12.955 22.3025 13.285 23.2925 13.625 24.3125 C15.275 23.9825 16.925 23.6525 18.625 23.3125 C19.3125 25.0625 19.3125 25.0625 19.625 27.3125 C18.5625 29.5625 18.5625 29.5625 16.625 31.3125 C13.625 31.8125 13.625 31.8125 10.625 31.3125 C8.75 29.3125 8.75 29.3125 7.625 27.3125 C6.8515625 28.55 6.8515625 28.55 6.0625 29.8125 C3.625 32.3125 3.625 32.3125 0.0625 32.9375 C-3.375 32.3125 -3.375 32.3125 -5.25 30.0625 C-8.4451153 22.25221816 -8.89691731 12.45433629 -5.9375 4.5 C-3.90904336 0.36194846 -3.90904336 0.36194846 0 0 Z M13.625 14.3125 C13.295 15.3025 12.965 16.2925 12.625 17.3125 C13.615 16.9825 14.605 16.6525 15.625 16.3125 C14.965 15.6525 14.305 14.9925 13.625 14.3125 Z " fill="#9CA09E" transform="translate(76.375,6.6875)"/>
<path d="M0 0 C3.0625 0.375 3.0625 0.375 4.875 2.125 C7.27006205 6.66301231 7.27517306 11.13436613 7.3125 16.1875 C7.333125 16.87392578 7.35375 17.56035156 7.375 18.26757812 C7.41351119 23.35586872 6.36599803 26.83198999 4.0625 31.375 C3.0625 32.375 3.0625 32.375 0.1875 32.625 C-2.9375 32.375 -2.9375 32.375 -4.52734375 31.21484375 C-6.36572287 28.81629371 -6.90239295 26.61233805 -7.625 23.6875 C-7.87636719 22.69363281 -8.12773438 21.69976563 -8.38671875 20.67578125 C-8.56847656 19.91652344 -8.75023437 19.15726563 -8.9375 18.375 C-9.5975 19.365 -10.2575 20.355 -10.9375 21.375 C-12.5875 21.375 -14.2375 21.375 -15.9375 21.375 C-15.9375 24.675 -15.9375 27.975 -15.9375 31.375 C-17.5875 31.375 -19.2375 31.375 -20.9375 31.375 C-20.9375 21.475 -20.9375 11.575 -20.9375 1.375 C-17.6375 1.375 -14.3375 1.375 -10.9375 1.375 C-8.57796906 3.73453094 -8.44608587 5.15395617 -7.9375 8.375 C-7.48375 7.42625 -7.03 6.4775 -6.5625 5.5 C-3.96575889 0.50626709 -3.96575889 0.50626709 0 0 Z M-0.9375 7.375 C-2.75393761 10.48889304 -3.2094038 12.78277709 -3.1875 16.375 C-3.19265625 17.220625 -3.1978125 18.06625 -3.203125 18.9375 C-2.92281155 21.50978811 -2.2323187 23.1553108 -0.9375 25.375 C1.48614591 23.52841264 2.0254499 22.63653012 2.4609375 19.5625 C2.45320313 18.510625 2.44546875 17.45875 2.4375 16.375 C2.44523437 15.323125 2.45296875 14.27125 2.4609375 13.1875 C2.0254499 10.11346988 1.48614591 9.22158736 -0.9375 7.375 Z M-15.9375 8.375 C-15.9375 10.355 -15.9375 12.335 -15.9375 14.375 C-15.2775 14.375 -14.6175 14.375 -13.9375 14.375 C-12.92638907 11.32586772 -12.92638907 11.32586772 -13.9375 8.375 C-14.5975 8.375 -15.2575 8.375 -15.9375 8.375 Z " fill="#9CA09E" transform="translate(54.9375,6.625)"/>
<path d="M0 0 C2.5625 0.375 2.5625 0.375 4.375 2.375 C4.766875 3.035 5.15875 3.695 5.5625 4.375 C5.8925 3.385 6.2225 2.395 6.5625 1.375 C14.1875 0.375 14.1875 0.375 17.5625 0.375 C18.738125 0.313125 19.91375 0.25125 21.125 0.1875 C22.259375 0.249375 23.39375 0.31125 24.5625 0.375 C26.69854308 3.57906462 26.80458908 4.37100747 26.7578125 8.04296875 C26.75136719 8.93564453 26.74492187 9.82832031 26.73828125 10.74804688 C26.72152344 11.67681641 26.70476562 12.60558594 26.6875 13.5625 C26.67847656 14.50287109 26.66945312 15.44324219 26.66015625 16.41210938 C26.63659056 18.73332968 26.60369116 21.05403644 26.5625 23.375 C24.93831255 23.45590971 23.31298255 23.51414995 21.6875 23.5625 C20.78257812 23.59730469 19.87765625 23.63210937 18.9453125 23.66796875 C17.76582031 23.52294922 17.76582031 23.52294922 16.5625 23.375 C14.05365184 19.61172776 14.37396331 17.80484458 14.9375 13.47265625 C15.5625 11.375 15.5625 11.375 18.125 9.3125 C18.929375 9.003125 19.73375 8.69375 20.5625 8.375 C20.2325 8.375 19.9025 8.375 19.5625 8.375 C16.89583333 8.375 14.22916667 8.375 11.5625 8.375 C11.5625 13.325 11.5625 18.275 11.5625 23.375 C9.9125 23.375 8.2625 23.375 6.5625 23.375 C6.5625 20.075 6.5625 16.775 6.5625 13.375 C3.9225 13.375 1.2825 13.375 -1.4375 13.375 C-1.1075 14.365 -0.7775 15.355 -0.4375 16.375 C1.2125 16.045 2.8625 15.715 4.5625 15.375 C5.25 17.125 5.25 17.125 5.5625 19.375 C4.5 21.625 4.5 21.625 2.5625 23.375 C-0.625 23.625 -0.625 23.625 -3.4375 23.375 C-6.68663098 17.0121185 -7.63320804 11.38916272 -5.5625 4.4375 C-4.03840902 1.64333321 -3.20983787 0.49382121 0 0 Z M-0.4375 6.375 C-0.7675 7.365 -1.0975 8.355 -1.4375 9.375 C-0.4475 9.045 0.5425 8.715 1.5625 8.375 C0.9025 7.715 0.2425 7.055 -0.4375 6.375 Z M20.5625 13.375 C20.2325 14.695 19.9025 16.015 19.5625 17.375 C20.2225 17.045 20.8825 16.715 21.5625 16.375 C21.2325 15.385 20.9025 14.395 20.5625 13.375 Z " fill="#9CA09E" transform="translate(115.4375,14.625)"/>
<path d="M0 0 C0.33 -0.33 0.66 -0.66 1 -1 C4.4375 -1.25 4.4375 -1.25 8 -1 C10.13604308 2.20406462 10.24208908 2.99600747 10.1953125 6.66796875 C10.18886719 7.56064453 10.18242187 8.45332031 10.17578125 9.37304688 C10.15902344 10.30181641 10.14226562 11.23058594 10.125 12.1875 C10.11597656 13.12787109 10.10695312 14.06824219 10.09765625 15.03710938 C10.07409056 17.35832968 10.04119116 19.67903644 10 22 C8.37581255 22.08090971 6.75048255 22.13914995 5.125 22.1875 C4.22007812 22.22230469 3.31515625 22.25710937 2.3828125 22.29296875 C1.20332031 22.14794922 1.20332031 22.14794922 0 22 C-2.50884816 18.23672776 -2.18853669 16.42984458 -1.625 12.09765625 C-1 10 -1 10 1.5625 7.9375 C2.366875 7.628125 3.17125 7.31875 4 7 C1.34223434 7 -1.37423517 7.61807057 -4 8 C-4.33 12.62 -4.66 17.24 -5 22 C-6.65 22 -8.3 22 -10 22 C-10 14.74 -10 7.48 -10 0 C-5.564347 -0.8871306 -4.09689624 -0.91042139 0 0 Z M4 12 C3.67 13.32 3.34 14.64 3 16 C3.66 15.67 4.32 15.34 5 15 C4.67 14.01 4.34 13.02 4 12 Z " fill="#9CA09E" transform="translate(209,16)"/>
<path d="M0 0 C3.3 0 6.6 0 10 0 C11.98895323 3.97790647 12.29635077 5.69353772 12.3125 10 C12.33763672 11.546875 12.33763672 11.546875 12.36328125 13.125 C11.95344155 16.3684626 11.37689716 17.76797016 9 20 C7.68 20 6.36 20 5 20 C5 23.3 5 26.6 5 30 C3.35 30 1.7 30 0 30 C0 20.1 0 10.2 0 0 Z M5 7 C5 8.98 5 10.96 5 13 C5.66 12.67 6.32 12.34 7 12 C6.67 10.35 6.34 8.7 6 7 C5.67 7 5.34 7 5 7 Z " fill="#9CA09E" transform="translate(21,8)"/>
<path d="M0 0 C0.94875 0.04125 1.8975 0.0825 2.875 0.125 C5.09354707 4.74697306 6.25781159 7.89324163 5.875 13.125 C3.235 13.125 0.595 13.125 -2.125 13.125 C-1.135 14.61 -1.135 14.61 -0.125 16.125 C1.525 15.795 3.175 15.465 4.875 15.125 C5.205 15.785 5.535 16.445 5.875 17.125 C4.94053465 19.15644641 3.94275224 21.16033587 2.875 23.125 C-2.52030843 23.60458297 -2.52030843 23.60458297 -4.9375 21.6875 C-7.98362021 15.11429323 -7.36274499 8.83823497 -5.125 2.125 C-3.125 0.125 -3.125 0.125 0 0 Z M-1.125 6.125 C-1.455 7.115 -1.785 8.105 -2.125 9.125 C-1.135 9.125 -0.145 9.125 0.875 9.125 C0.545 8.135 0.215 7.145 -0.125 6.125 C-0.455 6.125 -0.785 6.125 -1.125 6.125 Z " fill="#9CA09E" transform="translate(251.125,14.875)"/>
<path d="M0 0 C1.2263757 2.45275141 1.11415314 4.0505781 1.09765625 6.7890625 C1.09443359 7.73007812 1.09121094 8.67109375 1.08789062 9.640625 C1.07951172 10.62546875 1.07113281 11.6103125 1.0625 12.625 C1.05798828 13.61757813 1.05347656 14.61015625 1.04882812 15.6328125 C1.03702145 18.0886016 1.020554 20.54427104 1 23 C-0.32 23 -1.64 23 -3 23 C-3 18.05 -3 13.1 -3 8 C-3.66 8 -4.32 8 -5 8 C-5 12.95 -5 17.9 -5 23 C-6.65 23 -8.3 23 -10 23 C-10 15.74 -10 8.48 -10 1 C-4 0 -4 0 0 0 Z " fill="#9CA09E" transform="translate(230,15)"/>
<path d="M0 0 C1.20029908 2.40059817 1.11459743 3.89360649 1.09765625 6.5703125 C1.09443359 7.46621094 1.09121094 8.36210937 1.08789062 9.28515625 C1.07951172 10.22230469 1.07113281 11.15945312 1.0625 12.125 C1.05798828 13.06988281 1.05347656 14.01476563 1.04882812 14.98828125 C1.03702357 17.32558387 1.02055759 19.66276061 1 22 C-0.65 22 -2.3 22 -4 22 C-4.33 17.71 -4.66 13.42 -5 9 C-5.33 13.29 -5.66 17.58 -6 22 C-7.32 22 -8.64 22 -10 22 C-10 14.74 -10 7.48 -10 0 C-3.95604396 -1.20879121 -3.95604396 -1.20879121 0 0 Z " fill="#9CA09E" transform="translate(173,16)"/>
<path d="M0 0 C1.32 0 2.64 0 4 0 C4.33 4.29 4.66 8.58 5 13 C5.33 8.71 5.66 4.42 6 0 C7.65 0 9.3 0 11 0 C11 7.26 11 14.52 11 22 C7.7 22 4.4 22 1 22 C-0.20029908 19.59940183 -0.11459743 18.10639351 -0.09765625 15.4296875 C-0.09443359 14.53378906 -0.09121094 13.63789063 -0.08789062 12.71484375 C-0.07951172 11.77769531 -0.07113281 10.84054688 -0.0625 9.875 C-0.05798828 8.93011719 -0.05347656 7.98523438 -0.04882812 7.01171875 C-0.03702357 4.67441613 -0.02055759 2.33723939 0 0 Z " fill="#9CA09E" transform="translate(187,16)"/>
<path d="M0 0 C1.65 0 3.3 0 5 0 C5 7.59 5 15.18 5 23 C7.31 23 9.62 23 12 23 C12 25.31 12 27.62 12 30 C8.04 30 4.08 30 0 30 C0 20.1 0 10.2 0 0 Z " fill="#9CA09E" transform="translate(1,8)"/>
<path d="M0 0 C2.9375 -0.5 2.9375 -0.5 6 0 C7.9375 2.375 7.9375 2.375 9 5 C8.67 5.66 8.34 6.32 8 7 C6.35 7 4.7 7 3 7 C4.2065625 7.680625 4.2065625 7.680625 5.4375 8.375 C8 10 8 10 9 12 C9.26422717 15.56706674 9.38735953 18.16072103 7.875 21.4375 C6 23 6 23 2.9375 23.375 C0 23 0 23 -2 21 C-2.125 18.375 -2.125 18.375 -2 16 C-0.35 16.33 1.3 16.66 3 17 C3 16.34 3 15.68 3 15 C2.360625 14.71125 1.72125 14.4225 1.0625 14.125 C-1 13 -1 13 -2 11 C-2.35555556 3.53333333 -2.35555556 3.53333333 0 0 Z " fill="#9CA09E" transform="translate(177,15)"/>
<path d="M0 0 C2.8125 -0.25 2.8125 -0.25 6 0 C7.9375 1.6875 7.9375 1.6875 9 4 C8.6875 6.75 8.6875 6.75 8 9 C7.01 9 6.02 9 5 9 C4.67 8.34 4.34 7.68 4 7 C2.59567064 8.17718985 2.59567064 8.17718985 2.875 11.5 C2.59567064 14.82281015 2.59567064 14.82281015 4 16 C4.33 15.34 4.66 14.68 5 14 C6.32 14 7.64 14 9 14 C9.25 19.625 9.25 19.625 7 23 C3.375 23.1875 3.375 23.1875 0 23 C-3.0485572 17.02990882 -4.41934438 11.44564763 -2.3203125 4.87109375 C-1.61790879 3.21542787 -0.81791649 1.60175313 0 0 Z " fill="#9CA09E" transform="translate(235,15)"/>
<path d="M0 0 C1.65 0 3.3 0 5 0 C5 9.9 5 19.8 5 30 C3.35 30 1.7 30 0 30 C0 20.1 0 10.2 0 0 Z " fill="#9CA09E" transform="translate(156,8)"/>
<path d="M0 0 C1.65 0 3.3 0 5 0 C5 9.9 5 19.8 5 30 C3.35 30 1.7 30 0 30 C0 20.1 0 10.2 0 0 Z " fill="#9CA09E" transform="translate(143,8)"/>
<path d="M0 0 C1.65 0 3.3 0 5 0 C5 9.9 5 19.8 5 30 C3.35 30 1.7 30 0 30 C0 20.1 0 10.2 0 0 Z " fill="#9CA09E" transform="translate(14,8)"/>
</svg>
