<?xml version="1.0" encoding="UTF-8"?>
<svg version="1.1" xmlns="http://www.w3.org/2000/svg" width="258" height="43">
<path d="M0 0 C3.3 0 6.6 0 10 0 C10 1.98 10 3.96 10 6 C8.02 6 6.04 6 4 6 C4 6.99 4 7.98 4 9 C6.91634129 9.2502157 6.91634129 9.2502157 10 9 C10.66 8.01 11.32 7.02 12 6 C14.9375 5.625 14.9375 5.625 18 6 C19.875 7.5 19.875 7.5 21 9 C21.66 8.01 22.32 7.02 23 6 C26 5.625 26 5.625 29 6 C31.38081145 9.57121718 31.26906871 11.26674633 31.25 15.5 C31.25515625 16.6446875 31.2603125 17.789375 31.265625 18.96875 C31 22 31 22 29 25 C26.0625 25.375 26.0625 25.375 23 25 C21.125 23.5 21.125 23.5 20 22 C19.34 22.99 18.68 23.98 18 25 C14.875 25.1875 14.875 25.1875 12 25 C9 18.375 9 18.375 9 15 C7.35 15 5.7 15 4 15 C4 18.3 4 21.6 4 25 C2.68 25 1.36 25 0 25 C0 16.75 0 8.5 0 0 Z M14 12 C14 14.31 14 16.62 14 19 C14.66 19 15.32 19 16 19 C16 16.69 16 14.38 16 12 C15.34 12 14.68 12 14 12 Z M25 12 C25 14.31 25 16.62 25 19 C25.66 19 26.32 19 27 19 C27 16.69 27 14.38 27 12 C26.34 12 25.68 12 25 12 Z " fill="#9CA09E" transform="translate(106,7)"/>
<path d="M0 0 C8 0 8 0 10 1.5 C10.495 2.2425 10.495 2.2425 11 3 C11.66 2.01 12.32 1.02 13 0 C16 -0.375 16 -0.375 19 0 C21.67927341 4.01891012 21.15601248 6.24161923 21 11 C19.02 11 17.04 11 15 11 C15 11.66 15 12.32 15 13 C18.63 13 22.26 13 26 13 C24.77119784 11.7058258 24.77119784 11.7058258 22 10 C21.671875 8.125 21.671875 8.125 21.75 6 C21.77320313 4.948125 21.77320313 4.948125 21.796875 3.875 C22 2 22 2 23 0 C25.875 -0.125 25.875 -0.125 29 0 C31 2 31 2 31 5 C29.68 5.33 28.36 5.66 27 6 C27.66 6.33 28.32 6.66 29 7 C31.32304053 9.32304053 31.31765651 9.90287345 31.375 13.0625 C31 17 31 17 29 19 C25.875 19.125 25.875 19.125 23 19 C22.67 18.01 22.34 17.02 22 16 C21.34 16 20.68 16 20 16 C19.67 16.99 19.34 17.98 19 19 C16.125 19.1875 16.125 19.1875 13 19 C12.34 18.01 11.68 17.02 11 16 C10.67 16.99 10.34 17.98 10 19 C8.68 19 7.36 19 6 19 C5.67 15.04 5.34 11.08 5 7 C4.67 10.96 4.34 14.92 4 19 C2.68 19 1.36 19 0 19 C0 12.73 0 6.46 0 0 Z " fill="#9CA09E" transform="translate(195,13)"/>
<path d="M0 0 C3.0625 0.1875 3.0625 0.1875 5.0625 2.1875 C5.3925 1.5275 5.7225 0.8675 6.0625 0.1875 C12.0025 0.1875 17.9425 0.1875 24.0625 0.1875 C24.0625 6.4575 24.0625 12.7275 24.0625 19.1875 C21.4225 19.1875 18.7825 19.1875 16.0625 19.1875 C14.39139958 16.22571227 13.73567248 13.81678808 13.4375 10.4375 C13.36273438 9.63828125 13.28796875 8.8390625 13.2109375 8.015625 C13.16195312 7.41234375 13.11296875 6.8090625 13.0625 6.1875 C12.4025 6.1875 11.7425 6.1875 11.0625 6.1875 C11.0625 10.4775 11.0625 14.7675 11.0625 19.1875 C8.58326199 19.21435095 6.1043116 19.23426547 3.625 19.25 C2.91794922 19.25837891 2.21089844 19.26675781 1.48242188 19.27539062 C-0.32443559 19.28403588 -2.13137603 19.23970011 -3.9375 19.1875 C-4.9375 18.1875 -4.9375 18.1875 -5.25 14.3125 C-5.22939189 10.47939189 -5.22939189 10.47939189 -2.9375 8.1875 C-2.2775 7.8575 -1.6175 7.5275 -0.9375 7.1875 C-2.2575 6.8575 -3.5775 6.5275 -4.9375 6.1875 C-3.87127483 0.24710265 -3.87127483 0.24710265 0 0 Z M-0.9375 12.1875 C-0.6075 12.8475 -0.2775 13.5075 0.0625 14.1875 C0.3925 13.5275 0.7225 12.8675 1.0625 12.1875 C0.4025 12.1875 -0.2575 12.1875 -0.9375 12.1875 Z " fill="#9CA09E" transform="translate(51.9375,12.8125)"/>
<path d="M0 0 C1.32 0 2.64 0 4 0 C4 8.25 4 16.5 4 25 C-3 25 -10 25 -17 25 C-17 18.73 -17 12.46 -17 6 C-14.03 6 -11.06 6 -8 6 C-7.01 7.485 -7.01 7.485 -6 9 C-5.34 8.01 -4.68 7.02 -4 6 C-2.68 6 -1.36 6 0 6 C0 4.02 0 2.04 0 0 Z M-2 12 C-2 14.31 -2 16.62 -2 19 C-1.34 19 -0.68 19 0 19 C0 16.69 0 14.38 0 12 C-0.66 12 -1.32 12 -2 12 Z " fill="#9CA09E" transform="translate(178,7)"/>
<path d="M0 0 C7.66666667 0 15.33333333 0 23 0 C23 1.98 23 3.96 23 6 C21.68 6 20.36 6 19 6 C19 12.27 19 18.54 19 25 C17.68 25 16.36 25 15 25 C15 18.73 15 12.46 15 6 C13.68 6 12.36 6 11 6 C11.04125 7.0725 11.0825 8.145 11.125 9.25 C11.0114175 12.65747485 10.78726636 14.20739631 9 17 C7.35 17 5.7 17 4 17 C4 19.64 4 22.28 4 25 C2.68 25 1.36 25 0 25 C0 16.75 0 8.5 0 0 Z M4 6 C4 7.65 4 9.3 4 11 C4.66 11 5.32 11 6 11 C6 9.35 6 7.7 6 6 C5.34 6 4.68 6 4 6 Z " fill="#9CA09E" transform="translate(1,7)"/>
<path d="M0 0 C1.134375 0.020625 2.26875 0.04125 3.4375 0.0625 C5.20212683 3.15059695 5.4375 4.29562136 5.4375 8.0625 C3.10416667 8.0625 0.77083333 8.0625 -1.5625 8.0625 C-1.5625 11.0325 -1.5625 14.0025 -1.5625 17.0625 C-1.2325 17.0625 -0.9025 17.0625 -0.5625 17.0625 C-0.5625 15.0825 -0.5625 13.1025 -0.5625 11.0625 C1.4175 11.0625 3.3975 11.0625 5.4375 11.0625 C5.51864106 12.83257714 5.57675505 14.60372098 5.625 16.375 C5.65980469 17.36113281 5.69460937 18.34726562 5.73046875 19.36328125 C5.4375 22.0625 5.4375 22.0625 4.11328125 23.890625 C1.48269634 25.73019486 -0.45245859 25.51604771 -3.5625 25.0625 C-7.16698693 21.45801307 -7.73056508 17.68657889 -7.8125 12.75 C-7.77199526 6.63378404 -7.02525689 0.12325012 0 0 Z " fill="#9CA09E" transform="translate(40.5625,6.9375)"/>
<path d="M0 0 C1.32 0 2.64 0 4 0 C4 8.25 4 16.5 4 25 C1.36 25 -1.28 25 -4 25 C-6.38081145 21.42878282 -6.26906871 19.73325367 -6.25 15.5 C-6.25773438 13.78296875 -6.25773438 13.78296875 -6.265625 12.03125 C-6 9 -6 9 -4 6 C-2.68 6 -1.36 6 0 6 C0 4.02 0 2.04 0 0 Z M-2 12 C-2 14.31 -2 16.62 -2 19 C-1.34 19 -0.68 19 0 19 C0 16.69 0 14.38 0 12 C-0.66 12 -1.32 12 -2 12 Z " fill="#9CA09E" transform="translate(144,7)"/>
<path d="M0 0 C1.32 0 2.64 0 4 0 C4 8.25 4 16.5 4 25 C1.36 25 -1.28 25 -4 25 C-6.07128547 21.58895449 -6.26961411 18.89464724 -6.25 14.9375 C-6.25515625 13.89464844 -6.2603125 12.85179687 -6.265625 11.77734375 C-6 9 -6 9 -4 6 C-2.68 6 -1.36 6 0 6 C0 4.02 0 2.04 0 0 Z M-2 12 C-2 14.31 -2 16.62 -2 19 C-1.34 19 -0.68 19 0 19 C0 16.69 0 14.38 0 12 C-0.66 12 -1.32 12 -2 12 Z " fill="#9CA09E" transform="translate(83,7)"/>
<path d="M0 0 C2.31 0 4.62 0 7 0 C9.44989101 3.74235319 9.23086143 7.44225419 9.125 11.75 C9.11597656 12.44738281 9.10695312 13.14476562 9.09765625 13.86328125 C9.07419888 15.57566958 9.03833104 17.28788004 9 19 C7.54207116 19.05399736 6.08357288 19.09279177 4.625 19.125 C3.40683594 19.15980469 3.40683594 19.15980469 2.1640625 19.1953125 C0 19 0 19 -2 17 C-2.56338028 11.70422535 -2.56338028 11.70422535 -0.5 9.125 C-0.005 8.75375 0.49 8.3825 1 8 C0.01 7.01 -0.98 6.02 -2 5 C-1.34 3.35 -0.68 1.7 0 0 Z M3 5 C3 5.66 3 6.32 3 7 C3.66 6.67 4.32 6.34 5 6 C4.34 5.67 3.68 5.34 3 5 Z M3 12 C4 14 4 14 4 14 Z " fill="#9CA09E" transform="translate(234,13)"/>
<path d="M0 0 C2.31 0 4.62 0 7 0 C9.44989101 3.74235319 9.23086143 7.44225419 9.125 11.75 C9.11597656 12.44738281 9.10695313 13.14476562 9.09765625 13.86328125 C9.07419888 15.57566958 9.03833104 17.28788004 9 19 C7.54207116 19.05399736 6.08357288 19.09279177 4.625 19.125 C3.40683594 19.15980469 3.40683594 19.15980469 2.1640625 19.1953125 C0 19 0 19 -2 17 C-2.56338028 11.70422535 -2.56338028 11.70422535 -0.5 9.125 C-0.005 8.75375 0.49 8.3825 1 8 C0.01 7.01 -0.98 6.02 -2 5 C-1.34 3.35 -0.68 1.7 0 0 Z M3 5 C3 5.66 3 6.32 3 7 C3.66 6.67 4.32 6.34 5 6 C4.34 5.67 3.68 5.34 3 5 Z M3 12 C4 14 4 14 4 14 Z " fill="#9CA09E" transform="translate(90,13)"/>
<path d="M0 0 C2.3125 -0.25 2.3125 -0.25 5 0 C7.97716723 3.02666882 8.40939458 5.32679075 8.375 9.5 C8.38273438 10.4384375 8.39046875 11.376875 8.3984375 12.34375 C7.93907139 15.40619076 7.14815591 16.79544859 5 19 C2.4375 19.375 2.4375 19.375 0 19 C-2.97012601 16.02987399 -2.9426844 13.77376066 -3.25 9.625 C-2.97923223 5.69886737 -1.9712563 3.36756285 0 0 Z M2 5 C1.31506627 7.85778033 1.31506627 7.85778033 1 11 C1.99 12.485 1.99 12.485 3 14 C3.67673447 10.59679066 3.67673447 10.59679066 4 7 C3.34 6.34 2.68 5.68 2 5 Z " fill="#9CA09E" transform="translate(186,13)"/>
<path d="M0 0 C1.65 0 3.3 0 5 0 C5 8.25 5 16.5 5 25 C3.35 25 1.7 25 0 25 C0 16.75 0 8.5 0 0 Z " fill="#9CA09E" transform="translate(155,7)"/>
<path d="M0 0 C1.32 0 2.64 0 4 0 C4 6.27 4 12.54 4 19 C2.68 19 1.36 19 0 19 C0 12.73 0 6.46 0 0 Z " fill="#9CA09E" transform="translate(227,13)"/>
<path d="M0 0 C1.65 0 3.3 0 5 0 C5 2.31 5 4.62 5 7 C3.35 7 1.7 7 0 7 C0 4.69 0 2.38 0 0 Z " fill="#9CA09E" transform="translate(22,25)"/>
<path d="M0 0 C1.32 0 2.64 0 4 0 C4 1.32 4 2.64 4 4 C2.68 4 1.36 4 0 4 C0 2.68 0 1.36 0 0 Z " fill="#9CA09E" transform="translate(227,7)"/>
</svg>
