<?xml version="1.0" encoding="UTF-8"?>
<svg version="1.1" xmlns="http://www.w3.org/2000/svg" width="258" height="43">
<path d="M0 0 C1.65 0 3.3 0 5 0 C5.33 0.99 5.66 1.98 6 3 C6.33 2.01 6.66 1.02 7 0 C8.65 0 10.3 0 12 0 C12.33 2.64 12.66 5.28 13 8 C13.33 7.67 13.66 7.34 14 7 C16.5 6.875 16.5 6.875 19 7 C19.33 7.33 19.66 7.66 20 8 C20.33 5.36 20.66 2.72 21 0 C22.32 0 23.64 0 25 0 C25 2.31 25 4.62 25 7 C26.32 7 27.64 7 29 7 C29.33 7.99 29.66 8.98 30 10 C30.66 9.01 31.32 8.02 32 7 C34.5625 6.75 34.5625 6.75 37 7 C37.495 7.495 37.495 7.495 38 8 C38.33 5.36 38.66 2.72 39 0 C40.32 0 41.64 0 43 0 C43.495 3.465 43.495 3.465 44 7 C44.77085938 7 45.54171875 7 46.3359375 7 C53.890625 7 61.4453125 7 69 7 C71.44989101 10.74235319 71.23086143 14.44225419 71.125 18.75 C71.11597656 19.44738281 71.10695313 20.14476563 71.09765625 20.86328125 C71.07419888 22.57566958 71.03833104 24.28788004 71 26 C47.33333333 26 23.66666667 26 0 26 C0 17.42 0 8.84 0 0 Z M48 8 C45.77076223 12.32734391 46.07529447 15.28400182 47 20 C48.65 18.35 50.3 16.7 52 15 C51.01 14.34 50.02 13.68 49 13 C48.8125 10.375 48.8125 10.375 49 8 C48.67 8 48.34 8 48 8 Z M16 12 C17 14 17 14 17 14 Z M12 13 C12.33 14.32 12.66 15.64 13 17 C13.99 16.01 14.98 15.02 16 14 C14.68 13.67 13.36 13.34 12 13 Z M30 13 C30 14.65 30 16.3 30 18 C31.32 16.68 32.64 15.36 34 14 C32.68 13.67 31.36 13.34 30 13 Z " fill="#9CA09E" transform="translate(68,9)"/>
<path d="M0 0 C2.64 0 5.28 0 8 0 C8.99 2.64 9.98 5.28 11 8 C11.78375 7.79375 12.5675 7.5875 13.375 7.375 C14.674375 7.189375 14.674375 7.189375 16 7 C16.66 7.66 17.32 8.32 18 9 C18.66 8.34 19.32 7.68 20 7 C22.5625 6.8125 22.5625 6.8125 25 7 C26 8 26 8 26.0625 10.5625 C26.041875 11.366875 26.02125 12.17125 26 13 C26.226875 12.195625 26.45375 11.39125 26.6875 10.5625 C28 8 28 8 30.5 7.0625 C31.325 7.041875 32.15 7.02125 33 7 C33.66 7.66 34.32 8.32 35 9 C35.33 8.34 35.66 7.68 36 7 C38.64 7 41.28 7 44 7 C44 13.27 44 19.54 44 26 C41.69 26 39.38 26 37 26 C36.34 25.34 35.68 24.68 35 24 C34.34 24.66 33.68 25.32 33 26 C30.375 25.625 30.375 25.625 28 25 C28 24.34 28 23.68 28 23 C27.34 23 26.68 23 26 23 C25.67 23.99 25.34 24.98 25 26 C22.625 26.125 22.625 26.125 20 26 C19.34 25.34 18.68 24.68 18 24 C17.34 24.66 16.68 25.32 16 26 C13.6171875 26.1953125 13.6171875 26.1953125 10.875 26.125 C9.50988281 26.09792969 9.50988281 26.09792969 8.1171875 26.0703125 C7.41851562 26.04710938 6.71984375 26.02390625 6 26 C5.67 25.34 5.34 24.68 5 24 C4.67 24.66 4.34 25.32 4 26 C2.68 26 1.36 26 0 26 C0 17.42 0 8.84 0 0 Z M4 6 C5 10 5 10 5 10 Z M9 9 C10 13 10 13 10 13 Z M31 13 C29.70366379 14.06645115 29.70366379 14.06645115 29.9375 16.5625 C29.958125 17.366875 29.97875 18.17125 30 19 C30.99 19.495 30.99 19.495 32 20 C32 17.69 32 15.38 32 13 C31.67 13 31.34 13 31 13 Z M8 14 C9 17 9 17 9 17 Z M13 18 C13 18.66 13 19.32 13 20 C17.53140653 20.93380961 17.53140653 20.93380961 22 20 C22.33 20.66 22.66 21.32 23 22 C23 21.01 23 20.02 23 19 C19.42181037 16.66041447 17.07775191 17.0732382 13 18 Z M9 20 C10 22 10 22 10 22 Z " fill="#9CA09E" transform="translate(144,9)"/>
<path d="M0 0 C4.62 0 9.24 0 14 0 C14 2.31 14 4.62 14 7 C15.32 7.33 16.64 7.66 18 8 C18.33 5.36 18.66 2.72 19 0 C20.32 0 21.64 0 23 0 C23.33 2.31 23.66 4.62 24 7 C25.32 7 26.64 7 28 7 C27.835 7.515625 27.67 8.03125 27.5 8.5625 C26.30444637 14.39082392 27.18324636 20.18063035 28 26 C22 26 16 26 10 26 C10 19.4 10 12.8 10 6 C9.01 6 8.02 6 7 6 C7 12.6 7 19.2 7 26 C5.68 26 4.36 26 3 26 C3 19.4 3 12.8 3 6 C2.01 6 1.02 6 0 6 C0 4.02 0 2.04 0 0 Z M14 13 C14 15.31 14 17.62 14 20 C14.33 20 14.66 20 15 20 C15 17.69 15 15.38 15 13 C14.67 13 14.34 13 14 13 Z " fill="#9CA09E" transform="translate(226,9)"/>
<path d="M0 0 C9.9609375 -0.29296875 9.9609375 -0.29296875 13 0 C13.66 0.99 14.32 1.98 15 3 C15.66 2.01 16.32 1.02 17 0 C19.625 -0.1875 19.625 -0.1875 22 0 C22.33 0.99 22.66 1.98 23 3 C23.66 3 24.32 3 25 3 C25.33 2.01 25.66 1.02 26 0 C27.65 0 29.3 0 31 0 C32 5.75 32 5.75 32 8 C32.20625 8.928125 32.4125 9.85625 32.625 10.8125 C33.03257532 14.27689024 32.53726077 15.92547846 31 19 C29.02 19 27.04 19 25 19 C24.67 18.34 24.34 17.68 24 17 C23.34 17.66 22.68 18.32 22 19 C19.5 19.3125 19.5 19.3125 17 19 C16.34 18.01 15.68 17.02 15 16 C14.34 16.99 13.68 17.98 13 19 C10.5 19.375 10.5 19.375 8 19 C5.86413322 15.79619983 5.76867825 14.98060033 5.875 11.3125 C5.89304688 10.50425781 5.91109375 9.69601563 5.9296875 8.86328125 C5.95289063 8.24839844 5.97609375 7.63351563 6 7 C5.34 7 4.68 7 4 7 C4 10.96 4 14.92 4 19 C2.68 19 1.36 19 0 19 C0 12.73 0 6.46 0 0 Z M10 5 C9.19032562 7.91482778 8.78154007 9.46113217 9.9375 12.3125 C10.288125 12.869375 10.63875 13.42625 11 14 C11 13.01 11 12.02 11 11 C12.32 11.33 13.64 11.66 15 12 C15 10.02 15 8.04 15 6 C13.68 6.33 12.36 6.66 11 7 C10.67 6.34 10.34 5.68 10 5 Z M19 5 C19 5.66 19 6.32 19 7 C19.66 6.67 20.32 6.34 21 6 C20.34 5.67 19.68 5.34 19 5 Z M24 9 C24 9.66 24 10.32 24 11 C22.35 11 20.7 11 19 11 C19 11.66 19 12.32 19 13 C23.53140653 13.93380961 23.53140653 13.93380961 28 13 C28.33 13.66 28.66 14.32 29 15 C29 14.01 29 13.02 29 12 C28.360625 11.87625 27.72125 11.7525 27.0625 11.625 C26.381875 11.41875 25.70125 11.2125 25 11 C24.67 10.34 24.34 9.68 24 9 Z " fill="#9CA09E" transform="translate(189,16)"/>
<path d="M0 0 C0.33 0 0.66 0 1 0 C1 2.31 1 4.62 1 7 C1.95712891 6.98259766 1.95712891 6.98259766 2.93359375 6.96484375 C3.75988281 6.95582031 4.58617187 6.94679688 5.4375 6.9375 C6.26121094 6.92589844 7.08492187 6.91429687 7.93359375 6.90234375 C10 7 10 7 11 8 C11.15582303 9.34015221 11.25044142 10.68758903 11.31640625 12.03515625 C11.35830078 12.84404297 11.40019531 13.65292969 11.44335938 14.48632812 C11.48267578 15.33646484 11.52199219 16.18660156 11.5625 17.0625 C11.60568359 17.91650391 11.64886719 18.77050781 11.69335938 19.65039062 C11.79976702 21.76672037 11.90041731 23.88333813 12 26 C7.38 26 2.76 26 -2 26 C-2.66 22.04 -3.32 18.08 -4 14 C-4.66 14 -5.32 14 -6 14 C-6 17.96 -6 21.92 -6 26 C-7.32 26 -8.64 26 -10 26 C-10 19.73 -10 13.46 -10 7 C-7.69 7 -5.38 7 -3 7 C-2.814375 5.824375 -2.814375 5.824375 -2.625 4.625 C-2 2 -2 2 0 0 Z M1 12 C1 14.64 1 17.28 1 20 C1.66 20 2.32 20 3 20 C3.28875 19.38125 3.5775 18.7625 3.875 18.125 C5 16 5 16 7 14 C5.68 14 4.36 14 3 14 C3 13.34 3 12.68 3 12 C2.34 12 1.68 12 1 12 Z " fill="#9CA09E" transform="translate(51,9)"/>
<path d="M0 0 C6.33333333 0 12.66666667 0 19 0 C19 1.98 19 3.96 19 6 C18.01 6 17.02 6 16 6 C16 12.6 16 19.2 16 26 C14.68 26 13.36 26 12 26 C12 19.4 12 12.8 12 6 C11.01 6 10.02 6 9 6 C9.04125 7.2375 9.0825 8.475 9.125 9.75 C9.13658291 13.01637962 8.8568702 15.2146947 7 18 C6.01 18 5.02 18 4 18 C4 20.64 4 23.28 4 26 C2.68 26 1.36 26 0 26 C0 17.42 0 8.84 0 0 Z M4 7 C5 11 5 11 5 11 Z " fill="#9CA09E" transform="translate(1,9)"/>
<path d="M0 0 C4.62 0 9.24 0 14 0 C14 1.65 14 3.3 14 5 C12.02 5.33 10.04 5.66 8 6 C8 12.6 8 19.2 8 26 C6.68 26 5.36 26 4 26 C4 19.4 4 12.8 4 6 C2.68 6 1.36 6 0 6 C0 4.02 0 2.04 0 0 Z " fill="#9CA09E" transform="translate(26,9)"/>
<path d="M0 0 C0.99 0 1.98 0 3 0 C3 6.27 3 12.54 3 19 C2.01 19 1.02 19 0 19 C0 12.73 0 6.46 0 0 Z " fill="#9CA09E" transform="translate(37,16)"/>
<path d="M0 0 C1.32 0 2.64 0 4 0 C4 2.31 4 4.62 4 7 C2.68 7 1.36 7 0 7 C0 4.69 0 2.38 0 0 Z " fill="#9CA09E" transform="translate(18,28)"/>
</svg>
