<?xml version="1.0" encoding="UTF-8"?>
<svg version="1.1" xmlns="http://www.w3.org/2000/svg" width="258" height="43">
<path d="M0 0 C2.578125 -0.061875 5.15625 -0.12375 7.8125 -0.1875 C9.02450073 -0.22846802 9.02450073 -0.22846802 10.26098633 -0.27026367 C15.46208082 -0.33094637 15.46208082 -0.33094637 18 1.23046875 C19.27121153 3.47991728 19.30320754 4.92872129 19.1875 7.5 C19.16042969 8.2734375 19.13335938 9.046875 19.10546875 9.84375 C19.07066406 10.5553125 19.03585938 11.266875 19 12 C19 12.99 19 13.98 19 15 C19.33 15.33 19.66 15.66 20 16 C20.23828125 18.14453125 20.23828125 18.14453125 20.3125 20.8125 C20.34988281 21.68519531 20.38726563 22.55789062 20.42578125 23.45703125 C20 26 20 26 18.49609375 28.30859375 C14.99366029 30.6819172 11.81220574 30.4351671 7.75 30.25 C5.1925 30.1675 2.635 30.085 0 30 C0 20.1 0 10.2 0 0 Z M7 7 C7 8.32 7 9.64 7 11 C8.65 10.67 10.3 10.34 12 10 C11.67 9.01 11.34 8.02 11 7 C9.68 7 8.36 7 7 7 Z M7 18 C7 19.65 7 21.3 7 23 C8.65 23 10.3 23 12 23 C12.59070014 21.05396726 12.59070014 21.05396726 13 19 C11.93354885 17.70366379 11.93354885 17.70366379 9.4375 17.9375 C8.633125 17.958125 7.82875 17.97875 7 18 Z " fill="#9CA09E" transform="translate(2,6)"/>
<path d="M0 0 C2.31 0 4.62 0 7 0 C7 9.9 7 19.8 7 30 C4.33333333 30 1.66666667 30 -1 30 C-1.969375 30.0825 -2.93875 30.165 -3.9375 30.25 C-7 30 -7 30 -8.8125 28.1875 C-11.48440386 23.26557183 -11.5153202 18.47636895 -11 13 C-9.83567931 10.51949071 -8.90574048 8.90574048 -7 7 C-5.00041636 6.95919217 -2.99954746 6.95745644 -1 7 C-0.67 4.69 -0.34 2.38 0 0 Z M-3 14 C-4.38908639 15.17110184 -4.38908639 15.17110184 -4.25 18.4375 C-4.1675 19.613125 -4.085 20.78875 -4 22 C-2.515 22.99 -2.515 22.99 -1 24 C0.4783226 21.04335481 0.06032783 18.25770263 0 15 C-0.99 14.67 -1.98 14.34 -3 14 Z " fill="#9CA09E" transform="translate(138,6)"/>
<path d="M0 0 C2.31 0 4.62 0 7 0 C7.33 3.96 7.66 7.92 8 12 C8.99 10.68 9.98 9.36 11 8 C13.76142303 7.47200324 16.16365545 7.81401019 19 8 C18.319375 9.051875 17.63875 10.10375 16.9375 11.1875 C15.56351962 13.61876316 14.99160891 14.6643565 15.0625 17.5 C15.83679265 19.5647804 16.68962249 21.59992418 17.5625 23.625 C19 27 19 27 19 30 C16.69 30 14.38 30 12 30 C11.01 28.02 10.02 26.04 9 24 C8.67 24 8.34 24 8 24 C7.67 25.98 7.34 27.96 7 30 C4.69 30 2.38 30 0 30 C0 20.1 0 10.2 0 0 Z " fill="#9CA09E" transform="translate(65,6)"/>
<path d="M0 0 C0.9590625 -0.01933594 1.918125 -0.03867188 2.90625 -0.05859375 C5.5 0.4375 5.5 0.4375 7.30078125 1.85546875 C9.15898275 5.85635212 9.07472233 9.82461527 9.1875 14.1875 C9.23874023 15.51974609 9.23874023 15.51974609 9.29101562 16.87890625 C9.37328714 19.06497803 9.44250172 21.25065951 9.5 23.4375 C6.5 23.4375 3.5 23.4375 0.5 23.4375 C-1.2015625 23.56125 -1.2015625 23.56125 -2.9375 23.6875 C-6.5 23.4375 -6.5 23.4375 -8.5 21.875 C-10.02883871 18.14845565 -9.85567161 16.23338051 -8.5 12.4375 C-6.23884471 11.0350659 -4.04068924 10.13922836 -1.53125 9.26171875 C0.6819419 8.62415441 0.6819419 8.62415441 1.5 6.4375 C0.51 7.0975 -0.48 7.7575 -1.5 8.4375 C-4.6875 8.5625 -4.6875 8.5625 -7.5 8.4375 C-8.1875 6.125 -8.1875 6.125 -8.5 3.4375 C-6.17645351 0.08392775 -3.91961911 0.00526831 0 0 Z M-2.5 14.4375 C-2.17 15.4275 -1.84 16.4175 -1.5 17.4375 C-0.51 17.1075 0.48 16.7775 1.5 16.4375 C1.5 15.4475 1.5 14.4575 1.5 13.4375 C-0.5745356 13.2884288 -0.5745356 13.2884288 -2.5 14.4375 Z " fill="#9CA09E" transform="translate(246.5,12.5625)"/>
<path d="M0 0 C0.9590625 -0.01933594 1.918125 -0.03867188 2.90625 -0.05859375 C5.5 0.4375 5.5 0.4375 7.30078125 1.85546875 C9.15898275 5.85635212 9.07472233 9.82461527 9.1875 14.1875 C9.23874023 15.51974609 9.23874023 15.51974609 9.29101562 16.87890625 C9.37328714 19.06497803 9.44250172 21.25065951 9.5 23.4375 C6.5 23.4375 3.5 23.4375 0.5 23.4375 C-1.2015625 23.56125 -1.2015625 23.56125 -2.9375 23.6875 C-6.5 23.4375 -6.5 23.4375 -8.5 21.875 C-10.02883871 18.14845565 -9.85567161 16.23338051 -8.5 12.4375 C-6.23884471 11.0350659 -4.04068924 10.13922836 -1.53125 9.26171875 C0.6819419 8.62415441 0.6819419 8.62415441 1.5 6.4375 C0.51 7.0975 -0.48 7.7575 -1.5 8.4375 C-4.6875 8.5625 -4.6875 8.5625 -7.5 8.4375 C-8.1875 6.125 -8.1875 6.125 -8.5 3.4375 C-6.17645351 0.08392775 -3.91961911 0.00526831 0 0 Z M-2.5 14.4375 C-2.17 15.4275 -1.84 16.4175 -1.5 17.4375 C-0.51 17.1075 0.48 16.7775 1.5 16.4375 C1.5 15.4475 1.5 14.4575 1.5 13.4375 C-0.5745356 13.2884288 -0.5745356 13.2884288 -2.5 14.4375 Z " fill="#9CA09E" transform="translate(33.5,12.5625)"/>
<path d="M0 0 C3.0625 0.1875 3.0625 0.1875 5.0625 2.1875 C5.97131016 4.9307802 6.18195003 7.42009605 6.16015625 10.296875 C6.15693359 11.05097656 6.15371094 11.80507813 6.15039062 12.58203125 C6.14201172 13.35933594 6.13363281 14.13664062 6.125 14.9375 C6.12048828 15.73027344 6.11597656 16.52304687 6.11132812 17.33984375 C6.09958565 19.28909508 6.08165146 21.23830738 6.0625 23.1875 C3.7525 23.1875 1.4425 23.1875 -0.9375 23.1875 C-1.2675 18.2375 -1.5975 13.2875 -1.9375 8.1875 C-2.9275 8.6825 -2.9275 8.6825 -3.9375 9.1875 C-4.40751033 12.46305608 -4.40751033 12.46305608 -4.5625 16.25 C-4.63726562 17.54035156 -4.71203125 18.83070312 -4.7890625 20.16015625 C-4.83804688 21.15917969 -4.88703125 22.15820312 -4.9375 23.1875 C-7.2475 23.1875 -9.5575 23.1875 -11.9375 23.1875 C-11.9375 15.9275 -11.9375 8.6675 -11.9375 1.1875 C-9.2975 1.1875 -6.6575 1.1875 -3.9375 1.1875 C-2.9375 0.1875 -2.9375 0.1875 0 0 Z " fill="#9CA09E" transform="translate(56.9375,12.8125)"/>
<path d="M0 0 C3.06126536 0.09351132 4.42582801 0.26047611 7.125 1.8125 C9.35285686 5.61842214 9.36694258 8.98802393 9.625 13.375 C5.665 13.375 1.705 13.375 -2.375 13.375 C-1.385 14.365 -0.395 15.355 0.625 16.375 C0.955 16.045 1.285 15.715 1.625 15.375 C4.5625 15.1875 4.5625 15.1875 7.625 15.375 C8.285 16.035 8.945 16.695 9.625 17.375 C6.875 22.25 6.875 22.25 4.625 23.375 C0.27845729 23.88685155 -3.21421764 24.18754765 -6.875 21.625 C-9.72418664 17.35122004 -9.72650186 13.47177701 -9.375 8.375 C-7.22664039 3.19940639 -5.84915431 0.09716203 0 0 Z M-0.375 6.375 C-1.365 7.86 -1.365 7.86 -2.375 9.375 C-0.725 9.375 0.925 9.375 2.625 9.375 C2.625 8.715 2.625 8.055 2.625 7.375 C1.635 7.045 0.645 6.715 -0.375 6.375 Z " fill="#9CA09E" transform="translate(197.375,12.625)"/>
<path d="M0 0 C3.125 0.25 3.125 0.25 4.80200195 1.47387695 C6.51098087 3.76817878 6.47223475 5.07804789 6.41796875 7.91796875 C6.40830078 8.81064453 6.39863281 9.70332031 6.38867188 10.62304688 C6.36353516 11.55181641 6.33839844 12.48058594 6.3125 13.4375 C6.29219727 14.84805664 6.29219727 14.84805664 6.27148438 16.28710938 C6.23613096 18.60865038 6.18678674 20.92903653 6.125 23.25 C3.815 23.25 1.505 23.25 -0.875 23.25 C-1.205 18.3 -1.535 13.35 -1.875 8.25 C-2.205 8.25 -2.535 8.25 -2.875 8.25 C-3.205 13.2 -3.535 18.15 -3.875 23.25 C-6.185 23.25 -8.495 23.25 -10.875 23.25 C-10.875 15.99 -10.875 8.73 -10.875 1.25 C-8.565 1.25 -6.255 1.25 -3.875 1.25 C-2.875 0.25 -2.875 0.25 0 0 Z " fill="#9CA09E" transform="translate(179.875,12.75)"/>
<path d="M0 0 C3.125 0.25 3.125 0.25 4.80200195 1.47387695 C6.51098087 3.76817878 6.47223475 5.07804789 6.41796875 7.91796875 C6.40830078 8.81064453 6.39863281 9.70332031 6.38867188 10.62304688 C6.36353516 11.55181641 6.33839844 12.48058594 6.3125 13.4375 C6.29219727 14.84805664 6.29219727 14.84805664 6.27148438 16.28710938 C6.23613096 18.60865038 6.18678674 20.92903653 6.125 23.25 C3.815 23.25 1.505 23.25 -0.875 23.25 C-1.205 18.3 -1.535 13.35 -1.875 8.25 C-2.205 8.25 -2.535 8.25 -2.875 8.25 C-3.205 13.2 -3.535 18.15 -3.875 23.25 C-6.185 23.25 -8.495 23.25 -10.875 23.25 C-10.875 15.99 -10.875 8.73 -10.875 1.25 C-8.565 1.25 -6.255 1.25 -3.875 1.25 C-2.875 0.25 -2.875 0.25 0 0 Z " fill="#9CA09E" transform="translate(118.875,12.75)"/>
<path d="M0 0 C2.43119623 1.87015094 3.64069173 3.28138345 5 6 C5.41676403 10.97712427 5.65548795 15.51025466 3.625 20.125 C1.10760727 23.02968392 0.09548659 22.99229947 -3.875 23.3125 C-7.07613675 23.28345157 -7.79001963 23.16152336 -10.4375 21.125 C-13.89203946 16.42682634 -13.47445484 11.66891729 -13 6 C-10.28550701 -0.16930226 -6.49296503 -0.96430174 0 0 Z M-5 6 C-6.23267348 7.00836062 -6.23267348 7.00836062 -6.09765625 9.06640625 C-6.08605469 9.89011719 -6.07445312 10.71382812 -6.0625 11.5625 C-6.05347656 12.38878906 -6.04445312 13.21507812 -6.03515625 14.06640625 C-6.02355469 14.70449219 -6.01195312 15.34257812 -6 16 C-4.68 16 -3.36 16 -2 16 C-2 13.03 -2 10.06 -2 7 C-2.99 6.67 -3.98 6.34 -5 6 Z " fill="#9CA09E" transform="translate(161,13)"/>
<path d="M0 0 C0.86625 0.0103125 1.7325 0.020625 2.625 0.03125 C3.924375 0.01578125 3.924375 0.01578125 5.25 0 C7.625 0.53125 7.625 0.53125 9.5 2.375 C9.87125 3.0865625 10.2425 3.798125 10.625 4.53125 C10.295 5.52125 9.965 6.51125 9.625 7.53125 C7.645 7.53125 5.665 7.53125 3.625 7.53125 C4.388125 7.77875 5.15125 8.02625 5.9375 8.28125 C8.99980696 9.70557882 10.14890425 10.49705319 11.625 13.53125 C11.41723638 19.45251304 11.41723638 19.45251304 9.3828125 22.22265625 C7.04309439 23.9644464 5.51825276 23.93208261 2.625 23.90625 C1.75875 23.91398437 0.8925 23.92171875 0 23.9296875 C-2.82461615 23.45582097 -3.67381656 22.79595045 -5.375 20.53125 C-5.705 19.54125 -6.035 18.55125 -6.375 17.53125 C-3.63594655 16.16172327 -1.40412668 16.40503639 1.625 16.53125 C2.285 16.86125 2.945 17.19125 3.625 17.53125 C3.955 16.87125 4.285 16.21125 4.625 15.53125 C3.66787109 15.24121094 3.66787109 15.24121094 2.69140625 14.9453125 C1.86511719 14.68492188 1.03882813 14.42453125 0.1875 14.15625 C-0.63621094 13.90101562 -1.45992187 13.64578125 -2.30859375 13.3828125 C-4.375 12.53125 -4.375 12.53125 -5.375 10.53125 C-5.65563824 7.30391028 -5.76386873 5.23070869 -4.171875 2.3671875 C-2.375 0.53125 -2.375 0.53125 0 0 Z " fill="#9CA09E" transform="translate(214.375,12.46875)"/>
<path d="M0 0 C2.31 0 4.62 0 7 0 C7 9.9 7 19.8 7 30 C4.69 30 2.38 30 0 30 C0 20.1 0 10.2 0 0 Z " fill="#9CA09E" transform="translate(97,6)"/>
<path d="M0 0 C2.31 0 4.62 0 7 0 C7 7.26 7 14.52 7 22 C4.69 22 2.38 22 0 22 C0 14.74 0 7.48 0 0 Z " fill="#9CA09E" transform="translate(228,14)"/>
<path d="M0 0 C2.31 0 4.62 0 7 0 C7 1.65 7 3.3 7 5 C4.69 5 2.38 5 0 5 C0 3.35 0 1.7 0 0 Z " fill="#9CA09E" transform="translate(228,6)"/>
</svg>
